# MagicaVoxel @ Ephtracy

# group
o 

# material
mtllib WEST_3D_TILEMAP.vox-55.mtl
usemtl palette

# normals
vn -1 0 0
vn 1 0 0
vn 0 0 1
vn 0 0 -1
vn 0 -1 0
vn 0 1 0

# texcoords
vt 0.591797 0.5
vt 0.916016 0.5

# verts
v -7.7 0 -5.1
v -7.7 0 -5.2
v -7.7 0 -5.3
v -7.7 0 -5.4
v -7.7 0.1 -5.1
v -7.7 0.1 -5.2
v -7.7 0.1 -5.3
v -7.7 0.1 -5.4
v -7.7 0.2 -5.1
v -7.7 0.2 -5.2
v -7.7 0.2 -5.3
v -7.7 0.2 -5.4
v -7.6 0 -5.2
v -7.6 0 -5.3
v -7.6 0.1 -5.2
v -7.6 0.1 -5.3
v -7.6 0.2 -5.2
v -7.6 0.2 -5.3
v -7.6 0.5 -5.2
v -7.6 0.5 -5.3
v -7.6 0.6 -5.2
v -7.6 0.6 -5.3
v -7.5 0 -5.1
v -7.5 0 -5.2
v -7.5 0 -5.3
v -7.5 0 -5.4
v -7.5 0.2 -5.3
v -7.5 0.2 -5.4
v -7.5 0.3 -5.1
v -7.5 0.3 -5.2
v -7.5 0.3 -5.3
v -7.5 0.3 -5.4
v -7.5 0.4 -5.1
v -7.5 0.4 -5.2
v -7.6 0 -5.1
v -7.6 0 -5.2
v -7.6 0 -5.3
v -7.6 0 -5.4
v -7.6 0.1 -5.1
v -7.6 0.1 -5.2
v -7.6 0.1 -5.3
v -7.6 0.1 -5.4
v -7.6 0.2 -5.1
v -7.6 0.2 -5.2
v -7.6 0.2 -5.3
v -7.6 0.2 -5.4
v -7.5 0 -5.2
v -7.5 0 -5.3
v -7.5 0.2 -5.3
v -7.5 0.3 -5.2
v -7.5 0.3 -5.3
v -7.5 0.4 -5.2
v -7.5 0.5 -5.2
v -7.5 0.5 -5.3
v -7.5 0.6 -5.2
v -7.5 0.6 -5.3
v -7.4 0 -5.1
v -7.4 0 -5.2
v -7.4 0 -5.3
v -7.4 0 -5.4
v -7.4 0.2 -5.3
v -7.4 0.2 -5.4
v -7.4 0.3 -5.1
v -7.4 0.3 -5.2
v -7.4 0.3 -5.3
v -7.4 0.3 -5.4
v -7.4 0.4 -5.1
v -7.4 0.4 -5.2
v -7.7 0 -5.1
v -7.7 0.1 -5.1
v -7.7 0.2 -5.1
v -7.6 0 -5.1
v -7.6 0.1 -5.1
v -7.6 0.2 -5.1
v -7.5 0 -5.1
v -7.5 0.3 -5.1
v -7.5 0.4 -5.1
v -7.4 0 -5.1
v -7.4 0.3 -5.1
v -7.4 0.4 -5.1
v -7.6 0 -5.2
v -7.6 0.1 -5.2
v -7.6 0.2 -5.2
v -7.6 0.5 -5.2
v -7.6 0.6 -5.2
v -7.5 0 -5.2
v -7.5 0.3 -5.2
v -7.5 0.4 -5.2
v -7.5 0.5 -5.2
v -7.5 0.6 -5.2
v -7.7 0 -5.3
v -7.7 0.1 -5.3
v -7.7 0.2 -5.3
v -7.6 0 -5.3
v -7.6 0.1 -5.3
v -7.6 0.2 -5.3
v -7.5 0 -5.3
v -7.5 0.2 -5.3
v -7.5 0.3 -5.3
v -7.4 0 -5.3
v -7.4 0.2 -5.3
v -7.4 0.3 -5.3
v -7.7 0 -5.2
v -7.7 0.1 -5.2
v -7.7 0.2 -5.2
v -7.6 0 -5.2
v -7.6 0.1 -5.2
v -7.6 0.2 -5.2
v -7.5 0 -5.2
v -7.5 0.3 -5.2
v -7.5 0.4 -5.2
v -7.4 0 -5.2
v -7.4 0.3 -5.2
v -7.4 0.4 -5.2
v -7.6 0 -5.3
v -7.6 0.1 -5.3
v -7.6 0.2 -5.3
v -7.6 0.5 -5.3
v -7.6 0.6 -5.3
v -7.5 0 -5.3
v -7.5 0.2 -5.3
v -7.5 0.3 -5.3
v -7.5 0.5 -5.3
v -7.5 0.6 -5.3
v -7.7 0 -5.4
v -7.7 0.1 -5.4
v -7.7 0.2 -5.4
v -7.6 0 -5.4
v -7.6 0.1 -5.4
v -7.6 0.2 -5.4
v -7.5 0 -5.4
v -7.5 0.2 -5.4
v -7.5 0.3 -5.4
v -7.4 0 -5.4
v -7.4 0.2 -5.4
v -7.4 0.3 -5.4
v -7.7 0 -5.1
v -7.6 0 -5.1
v -7.5 0 -5.1
v -7.4 0 -5.1
v -7.7 0 -5.2
v -7.6 0 -5.2
v -7.5 0 -5.2
v -7.4 0 -5.2
v -7.7 0 -5.3
v -7.6 0 -5.3
v -7.5 0 -5.3
v -7.4 0 -5.3
v -7.7 0 -5.4
v -7.6 0 -5.4
v -7.5 0 -5.4
v -7.4 0 -5.4
v -7.7 0.2 -5.1
v -7.6 0.2 -5.1
v -7.7 0.2 -5.2
v -7.6 0.2 -5.2
v -7.7 0.2 -5.3
v -7.6 0.2 -5.3
v -7.7 0.2 -5.4
v -7.6 0.2 -5.4
v -7.5 0.3 -5.3
v -7.4 0.3 -5.3
v -7.5 0.3 -5.4
v -7.4 0.3 -5.4
v -7.5 0.4 -5.1
v -7.4 0.4 -5.1
v -7.5 0.4 -5.2
v -7.4 0.4 -5.2
v -7.6 0.6 -5.2
v -7.5 0.6 -5.2
v -7.6 0.6 -5.3
v -7.5 0.6 -5.3

# faces
f 5/1/1 2/1/1 1/1/1
f 6/1/1 2/1/1 5/1/1
f 7/1/1 4/1/1 3/1/1
f 8/1/1 4/1/1 7/1/1
f 9/2/1 6/2/1 5/2/1
f 10/2/1 6/2/1 9/2/1
f 11/2/1 8/2/1 7/2/1
f 12/2/1 8/2/1 11/2/1
f 15/1/1 14/1/1 13/1/1
f 16/1/1 14/1/1 15/1/1
f 17/1/1 16/1/1 15/1/1
f 18/1/1 16/1/1 17/1/1
f 19/1/1 18/1/1 17/1/1
f 20/1/1 18/1/1 19/1/1
f 21/2/1 20/2/1 19/2/1
f 22/2/1 20/2/1 21/2/1
f 27/1/1 26/1/1 25/1/1
f 28/1/1 26/1/1 27/1/1
f 29/1/1 24/1/1 23/1/1
f 30/1/1 24/1/1 29/1/1
f 31/2/1 28/2/1 27/2/1
f 32/2/1 28/2/1 31/2/1
f 33/2/1 30/2/1 29/2/1
f 34/2/1 30/2/1 33/2/1
f 35/1/2 36/1/2 39/1/2
f 39/1/2 36/1/2 40/1/2
f 37/1/2 38/1/2 41/1/2
f 41/1/2 38/1/2 42/1/2
f 39/2/2 40/2/2 43/2/2
f 43/2/2 40/2/2 44/2/2
f 41/2/2 42/2/2 45/2/2
f 45/2/2 42/2/2 46/2/2
f 47/1/2 48/1/2 49/1/2
f 47/1/2 49/1/2 50/1/2
f 50/1/2 49/1/2 51/1/2
f 50/1/2 51/1/2 52/1/2
f 52/1/2 51/1/2 53/1/2
f 53/1/2 51/1/2 54/1/2
f 53/2/2 54/2/2 55/2/2
f 55/2/2 54/2/2 56/2/2
f 59/1/2 60/1/2 61/1/2
f 61/1/2 60/1/2 62/1/2
f 57/1/2 58/1/2 63/1/2
f 63/1/2 58/1/2 64/1/2
f 61/2/2 62/2/2 65/2/2
f 65/2/2 62/2/2 66/2/2
f 63/2/2 64/2/2 67/2/2
f 67/2/2 64/2/2 68/2/2
f 72/1/3 70/1/3 69/1/3
f 73/2/3 71/2/3 70/2/3
f 73/1/3 70/1/3 72/1/3
f 74/2/3 71/2/3 73/2/3
f 78/1/3 76/1/3 75/1/3
f 79/2/3 77/2/3 76/2/3
f 79/1/3 76/1/3 78/1/3
f 80/2/3 77/2/3 79/2/3
f 86/1/3 82/1/3 81/1/3
f 86/1/3 83/1/3 82/1/3
f 86/1/3 84/1/3 83/1/3
f 87/1/3 84/1/3 86/1/3
f 88/1/3 84/1/3 87/1/3
f 89/2/3 85/2/3 84/2/3
f 89/1/3 84/1/3 88/1/3
f 90/2/3 85/2/3 89/2/3
f 94/1/3 92/1/3 91/1/3
f 95/2/3 93/2/3 92/2/3
f 95/1/3 92/1/3 94/1/3
f 96/2/3 93/2/3 95/2/3
f 100/1/3 98/1/3 97/1/3
f 101/2/3 99/2/3 98/2/3
f 101/1/3 98/1/3 100/1/3
f 102/2/3 99/2/3 101/2/3
f 103/1/4 104/1/4 106/1/4
f 104/2/4 105/2/4 107/2/4
f 106/1/4 104/1/4 107/1/4
f 107/2/4 105/2/4 108/2/4
f 109/1/4 110/1/4 112/1/4
f 110/2/4 111/2/4 113/2/4
f 112/1/4 110/1/4 113/1/4
f 113/2/4 111/2/4 114/2/4
f 115/1/4 116/1/4 120/1/4
f 116/1/4 117/1/4 120/1/4
f 117/1/4 118/1/4 120/1/4
f 120/1/4 118/1/4 121/1/4
f 121/1/4 118/1/4 122/1/4
f 118/2/4 119/2/4 123/2/4
f 122/1/4 118/1/4 123/1/4
f 123/2/4 119/2/4 124/2/4
f 125/1/4 126/1/4 128/1/4
f 126/2/4 127/2/4 129/2/4
f 128/1/4 126/1/4 129/1/4
f 129/2/4 127/2/4 130/2/4
f 131/1/4 132/1/4 134/1/4
f 132/2/4 133/2/4 135/2/4
f 134/1/4 132/1/4 135/1/4
f 135/2/4 133/2/4 136/2/4
f 141/1/5 138/1/5 137/1/5
f 142/1/5 138/1/5 141/1/5
f 143/1/5 140/1/5 139/1/5
f 144/1/5 140/1/5 143/1/5
f 146/1/5 143/1/5 142/1/5
f 147/1/5 143/1/5 146/1/5
f 149/1/5 146/1/5 145/1/5
f 150/1/5 146/1/5 149/1/5
f 151/1/5 148/1/5 147/1/5
f 152/1/5 148/1/5 151/1/5
f 153/2/6 154/2/6 155/2/6
f 155/2/6 154/2/6 156/2/6
f 157/2/6 158/2/6 159/2/6
f 159/2/6 158/2/6 160/2/6
f 161/2/6 162/2/6 163/2/6
f 163/2/6 162/2/6 164/2/6
f 165/2/6 166/2/6 167/2/6
f 167/2/6 166/2/6 168/2/6
f 169/2/6 170/2/6 171/2/6
f 171/2/6 170/2/6 172/2/6
