# MagicaVoxel @ Ephtracy

# group
o 

# material
mtllib WEST_3D_TILEMAP.vox-51.mtl
usemtl palette

# normals
vn -1 0 0
vn 1 0 0
vn 0 0 1
vn 0 0 -1
vn 0 -1 0
vn 0 1 0

# texcoords
vt 0.591797 0.5
vt 0.833984 0.5
vt 0.837891 0.5

# verts
v -6.1 0 -5.3
v -6.1 0 -5.4
v -6.1 0.2 -5.3
v -6.1 0.2 -5.4
v -6.1 0.3 -5.3
v -6.1 0.3 -5.4
v -6 0 -5.2
v -6 0 -5.3
v -6 0 -5.4
v -6 0 -5.5
v -6 0 -5.6
v -6 0 -5.7
v -6 0.1 -5.2
v -6 0.1 -5.3
v -6 0.1 -5.4
v -6 0.1 -5.5
v -6 0.2 -5.2
v -6 0.2 -5.3
v -6 0.2 -5.4
v -6 0.2 -5.5
v -6 0.2 -5.6
v -6 0.2 -5.7
v -6 0.3 -5.6
v -6 0.3 -5.7
v -5.9 0 -5.1
v -5.9 0 -5.2
v -5.9 0 -5.3
v -5.9 0 -5.4
v -5.9 0 -5.5
v -5.9 0 -5.6
v -5.9 0.1 -5.2
v -5.9 0.1 -5.3
v -5.9 0.1 -5.4
v -5.9 0.1 -5.5
v -5.9 0.1 -5.6
v -5.9 0.2 -5.1
v -5.9 0.2 -5.2
v -5.9 0.2 -5.3
v -5.9 0.2 -5.4
v -5.9 0.2 -5.5
v -5.9 0.2 -5.6
v -5.9 0.3 -5.1
v -5.9 0.3 -5.2
v -5.8 0 -5.2
v -5.8 0 -5.3
v -5.8 0 -5.4
v -5.8 0 -5.5
v -5.8 0 -5.6
v -5.8 0 -5.7
v -5.8 0.1 -5.2
v -5.8 0.1 -5.3
v -5.8 0.1 -5.4
v -5.8 0.1 -5.5
v -5.8 0.1 -5.6
v -5.8 0.1 -5.7
v -5.8 0.2 -5.2
v -5.8 0.2 -5.3
v -5.8 0.2 -5.4
v -5.8 0.2 -5.5
v -5.8 0.2 -5.6
v -5.8 0.2 -5.7
v -5.8 0.3 -5.4
v -5.8 0.3 -5.5
v -5.7 0 -5.1
v -5.7 0 -5.2
v -5.7 0 -5.3
v -5.7 0 -5.4
v -5.7 0 -5.5
v -5.7 0 -5.6
v -5.7 0 -5.7
v -5.7 0 -5.8
v -5.7 0.1 -5.1
v -5.7 0.1 -5.2
v -5.7 0.1 -5.3
v -5.7 0.1 -5.4
v -5.7 0.1 -5.5
v -5.7 0.1 -5.6
v -5.7 0.1 -5.7
v -5.7 0.2 -5.1
v -5.7 0.2 -5.2
v -5.7 0.2 -5.3
v -5.7 0.2 -5.4
v -5.7 0.2 -5.5
v -5.7 0.2 -5.6
v -5.7 0.2 -5.7
v -5.7 0.2 -5.8
v -5.7 0.3 -5.7
v -5.7 0.3 -5.8
v -5.6 0 -5.2
v -5.6 0 -5.3
v -5.6 0 -5.4
v -5.6 0 -5.5
v -5.6 0 -5.6
v -5.6 0 -5.7
v -5.6 0.1 -5.2
v -5.6 0.1 -5.3
v -5.6 0.1 -5.4
v -5.6 0.1 -5.5
v -5.6 0.1 -5.6
v -5.6 0.2 -5.2
v -5.6 0.2 -5.3
v -5.6 0.2 -5.4
v -5.6 0.2 -5.5
v -5.6 0.2 -5.6
v -5.6 0.2 -5.7
v -5.6 0.3 -5.2
v -5.6 0.3 -5.3
v -5.6 0.3 -5.4
v -5.6 0.3 -5.5
v -5.6 0.3 -5.6
v -5.6 0.3 -5.7
v -5.5 0 -5.3
v -5.5 0 -5.4
v -5.5 0 -5.5
v -5.5 0 -5.6
v -5.5 0.1 -5.3
v -5.5 0.1 -5.4
v -5.5 0.1 -5.5
v -5.5 0.1 -5.6
v -5.5 0.2 -5.3
v -5.5 0.2 -5.4
v -5.5 0.2 -5.5
v -5.5 0.2 -5.6
v -5.4 0 -5.6
v -5.4 0 -5.7
v -5.4 0.1 -5.6
v -5.4 0.2 -5.6
v -5.4 0.2 -5.7
v -5.4 0.3 -5.6
v -5.4 0.3 -5.7
v -6 0 -5.3
v -6 0 -5.4
v -6 0.1 -5.3
v -6 0.1 -5.4
v -6 0.2 -5.3
v -6 0.2 -5.4
v -6 0.3 -5.3
v -6 0.3 -5.4
v -5.9 0 -5.2
v -5.9 0 -5.3
v -5.9 0 -5.4
v -5.9 0 -5.5
v -5.9 0 -5.6
v -5.9 0 -5.7
v -5.9 0.1 -5.2
v -5.9 0.1 -5.3
v -5.9 0.1 -5.4
v -5.9 0.1 -5.5
v -5.9 0.1 -5.6
v -5.9 0.2 -5.2
v -5.9 0.2 -5.3
v -5.9 0.2 -5.4
v -5.9 0.2 -5.5
v -5.9 0.2 -5.6
v -5.9 0.2 -5.7
v -5.9 0.3 -5.6
v -5.9 0.3 -5.7
v -5.8 0 -5.1
v -5.8 0 -5.2
v -5.8 0 -5.3
v -5.8 0 -5.4
v -5.8 0 -5.5
v -5.8 0 -5.6
v -5.8 0.1 -5.2
v -5.8 0.1 -5.3
v -5.8 0.1 -5.4
v -5.8 0.1 -5.5
v -5.8 0.1 -5.6
v -5.8 0.2 -5.1
v -5.8 0.2 -5.2
v -5.8 0.2 -5.3
v -5.8 0.2 -5.4
v -5.8 0.2 -5.5
v -5.8 0.2 -5.6
v -5.8 0.3 -5.1
v -5.8 0.3 -5.2
v -5.7 0 -5.2
v -5.7 0 -5.3
v -5.7 0 -5.4
v -5.7 0 -5.5
v -5.7 0 -5.6
v -5.7 0 -5.7
v -5.7 0.1 -5.2
v -5.7 0.1 -5.3
v -5.7 0.1 -5.4
v -5.7 0.1 -5.5
v -5.7 0.1 -5.6
v -5.7 0.1 -5.7
v -5.7 0.2 -5.2
v -5.7 0.2 -5.3
v -5.7 0.2 -5.4
v -5.7 0.2 -5.5
v -5.7 0.2 -5.6
v -5.7 0.2 -5.7
v -5.7 0.3 -5.4
v -5.7 0.3 -5.5
v -5.6 0 -5.1
v -5.6 0 -5.2
v -5.6 0 -5.3
v -5.6 0 -5.4
v -5.6 0 -5.5
v -5.6 0 -5.6
v -5.6 0 -5.7
v -5.6 0 -5.8
v -5.6 0.1 -5.1
v -5.6 0.1 -5.2
v -5.6 0.1 -5.3
v -5.6 0.1 -5.4
v -5.6 0.1 -5.5
v -5.6 0.1 -5.6
v -5.6 0.2 -5.1
v -5.6 0.2 -5.2
v -5.6 0.2 -5.3
v -5.6 0.2 -5.4
v -5.6 0.2 -5.5
v -5.6 0.2 -5.6
v -5.6 0.2 -5.7
v -5.6 0.2 -5.8
v -5.6 0.3 -5.7
v -5.6 0.3 -5.8
v -5.5 0 -5.2
v -5.5 0 -5.3
v -5.5 0 -5.4
v -5.5 0 -5.5
v -5.5 0 -5.6
v -5.5 0 -5.7
v -5.5 0.1 -5.3
v -5.5 0.1 -5.4
v -5.5 0.1 -5.5
v -5.5 0.1 -5.6
v -5.5 0.2 -5.2
v -5.5 0.2 -5.3
v -5.5 0.2 -5.4
v -5.5 0.2 -5.5
v -5.5 0.2 -5.6
v -5.5 0.2 -5.7
v -5.5 0.3 -5.2
v -5.5 0.3 -5.3
v -5.5 0.3 -5.4
v -5.5 0.3 -5.5
v -5.5 0.3 -5.6
v -5.5 0.3 -5.7
v -5.4 0 -5.3
v -5.4 0 -5.4
v -5.4 0 -5.5
v -5.4 0 -5.6
v -5.4 0.1 -5.3
v -5.4 0.1 -5.4
v -5.4 0.1 -5.5
v -5.4 0.1 -5.6
v -5.4 0.2 -5.3
v -5.4 0.2 -5.4
v -5.4 0.2 -5.5
v -5.4 0.2 -5.6
v -5.3 0 -5.6
v -5.3 0 -5.7
v -5.3 0.2 -5.6
v -5.3 0.2 -5.7
v -5.3 0.3 -5.6
v -5.3 0.3 -5.7
v -5.9 0 -5.1
v -5.9 0.2 -5.1
v -5.9 0.3 -5.1
v -5.8 0 -5.1
v -5.8 0.2 -5.1
v -5.8 0.3 -5.1
v -5.7 0 -5.1
v -5.7 0.1 -5.1
v -5.7 0.2 -5.1
v -5.6 0 -5.1
v -5.6 0.1 -5.1
v -5.6 0.2 -5.1
v -6 0 -5.2
v -6 0.1 -5.2
v -6 0.2 -5.2
v -5.9 0 -5.2
v -5.9 0.1 -5.2
v -5.9 0.2 -5.2
v -5.8 0 -5.2
v -5.8 0.1 -5.2
v -5.8 0.2 -5.2
v -5.7 0 -5.2
v -5.7 0.1 -5.2
v -5.7 0.2 -5.2
v -5.6 0 -5.2
v -5.6 0.1 -5.2
v -5.6 0.2 -5.2
v -5.6 0.3 -5.2
v -5.5 0 -5.2
v -5.5 0.2 -5.2
v -5.5 0.3 -5.2
v -6.1 0 -5.3
v -6.1 0.2 -5.3
v -6.1 0.3 -5.3
v -6 0 -5.3
v -6 0.1 -5.3
v -6 0.2 -5.3
v -6 0.3 -5.3
v -5.9 0 -5.3
v -5.9 0.1 -5.3
v -5.9 0.2 -5.3
v -5.8 0 -5.3
v -5.8 0.1 -5.3
v -5.8 0.2 -5.3
v -5.7 0 -5.3
v -5.7 0.1 -5.3
v -5.7 0.2 -5.3
v -5.6 0 -5.3
v -5.6 0.1 -5.3
v -5.6 0.2 -5.3
v -5.5 0 -5.3
v -5.5 0.1 -5.3
v -5.5 0.2 -5.3
v -5.4 0 -5.3
v -5.4 0.1 -5.3
v -5.4 0.2 -5.3
v -6 0 -5.4
v -6 0.1 -5.4
v -6 0.2 -5.4
v -5.9 0 -5.4
v -5.9 0.1 -5.4
v -5.9 0.2 -5.4
v -5.8 0 -5.4
v -5.8 0.1 -5.4
v -5.8 0.2 -5.4
v -5.8 0.3 -5.4
v -5.7 0 -5.4
v -5.7 0.1 -5.4
v -5.7 0.2 -5.4
v -5.7 0.3 -5.4
v -5.6 0 -5.4
v -5.6 0.1 -5.4
v -5.6 0.2 -5.4
v -5.6 0.3 -5.4
v -5.5 0 -5.4
v -5.5 0.1 -5.4
v -5.5 0.2 -5.4
v -5.5 0.3 -5.4
v -5.9 0 -5.5
v -5.9 0.1 -5.5
v -5.9 0.2 -5.5
v -5.8 0 -5.5
v -5.8 0.1 -5.5
v -5.8 0.2 -5.5
v -5.7 0 -5.5
v -5.7 0.1 -5.5
v -5.7 0.2 -5.5
v -5.6 0 -5.5
v -5.6 0.1 -5.5
v -5.6 0.2 -5.5
v -5.5 0 -5.5
v -5.5 0.1 -5.5
v -5.5 0.2 -5.5
v -5.4 0 -5.5
v -5.4 0.1 -5.5
v -5.4 0.2 -5.5
v -6 0 -5.6
v -6 0.2 -5.6
v -6 0.3 -5.6
v -5.9 0 -5.6
v -5.9 0.1 -5.6
v -5.9 0.2 -5.6
v -5.9 0.3 -5.6
v -5.8 0 -5.6
v -5.8 0.1 -5.6
v -5.8 0.2 -5.6
v -5.7 0 -5.6
v -5.7 0.1 -5.6
v -5.7 0.2 -5.6
v -5.6 0 -5.6
v -5.6 0.1 -5.6
v -5.6 0.2 -5.6
v -5.6 0.3 -5.6
v -5.5 0 -5.6
v -5.5 0.1 -5.6
v -5.5 0.2 -5.6
v -5.5 0.3 -5.6
v -5.4 0 -5.6
v -5.4 0.1 -5.6
v -5.4 0.2 -5.6
v -5.4 0.3 -5.6
v -5.3 0 -5.6
v -5.3 0.2 -5.6
v -5.3 0.3 -5.6
v -5.7 0 -5.7
v -5.7 0.1 -5.7
v -5.7 0.2 -5.7
v -5.7 0.3 -5.7
v -5.6 0 -5.7
v -5.6 0.2 -5.7
v -5.6 0.3 -5.7
v -5.9 0 -5.2
v -5.9 0.1 -5.2
v -5.9 0.2 -5.2
v -5.9 0.3 -5.2
v -5.8 0 -5.2
v -5.8 0.1 -5.2
v -5.8 0.2 -5.2
v -5.8 0.3 -5.2
v -5.7 0 -5.2
v -5.7 0.1 -5.2
v -5.7 0.2 -5.2
v -5.6 0 -5.2
v -5.6 0.1 -5.2
v -5.6 0.2 -5.2
v -6 0 -5.3
v -6 0.1 -5.3
v -6 0.2 -5.3
v -5.9 0 -5.3
v -5.9 0.1 -5.3
v -5.9 0.2 -5.3
v -5.8 0 -5.3
v -5.8 0.1 -5.3
v -5.8 0.2 -5.3
v -5.7 0 -5.3
v -5.7 0.1 -5.3
v -5.7 0.2 -5.3
v -5.6 0 -5.3
v -5.6 0.1 -5.3
v -5.6 0.2 -5.3
v -5.6 0.3 -5.3
v -5.5 0 -5.3
v -5.5 0.1 -5.3
v -5.5 0.2 -5.3
v -5.5 0.3 -5.3
v -6.1 0 -5.4
v -6.1 0.2 -5.4
v -6.1 0.3 -5.4
v -6 0 -5.4
v -6 0.1 -5.4
v -6 0.2 -5.4
v -6 0.3 -5.4
v -5.9 0 -5.4
v -5.9 0.1 -5.4
v -5.9 0.2 -5.4
v -5.8 0 -5.4
v -5.8 0.1 -5.4
v -5.8 0.2 -5.4
v -5.7 0 -5.4
v -5.7 0.1 -5.4
v -5.7 0.2 -5.4
v -5.6 0 -5.4
v -5.6 0.1 -5.4
v -5.6 0.2 -5.4
v -5.5 0 -5.4
v -5.5 0.1 -5.4
v -5.5 0.2 -5.4
v -5.4 0 -5.4
v -5.4 0.1 -5.4
v -5.4 0.2 -5.4
v -6 0 -5.5
v -6 0.1 -5.5
v -6 0.2 -5.5
v -5.9 0 -5.5
v -5.9 0.1 -5.5
v -5.9 0.2 -5.5
v -5.8 0 -5.5
v -5.8 0.1 -5.5
v -5.8 0.2 -5.5
v -5.8 0.3 -5.5
v -5.7 0 -5.5
v -5.7 0.1 -5.5
v -5.7 0.2 -5.5
v -5.7 0.3 -5.5
v -5.6 0 -5.5
v -5.6 0.1 -5.5
v -5.6 0.2 -5.5
v -5.6 0.3 -5.5
v -5.5 0 -5.5
v -5.5 0.1 -5.5
v -5.5 0.2 -5.5
v -5.5 0.3 -5.5
v -5.9 0 -5.6
v -5.9 0.1 -5.6
v -5.9 0.2 -5.6
v -5.8 0 -5.6
v -5.8 0.1 -5.6
v -5.8 0.2 -5.6
v -5.7 0 -5.6
v -5.7 0.1 -5.6
v -5.7 0.2 -5.6
v -5.6 0 -5.6
v -5.6 0.1 -5.6
v -5.6 0.2 -5.6
v -5.5 0 -5.6
v -5.5 0.1 -5.6
v -5.5 0.2 -5.6
v -5.4 0 -5.6
v -5.4 0.1 -5.6
v -5.4 0.2 -5.6
v -6 0 -5.7
v -6 0.2 -5.7
v -6 0.3 -5.7
v -5.9 0 -5.7
v -5.9 0.2 -5.7
v -5.9 0.3 -5.7
v -5.8 0 -5.7
v -5.8 0.1 -5.7
v -5.8 0.2 -5.7
v -5.7 0 -5.7
v -5.7 0.1 -5.7
v -5.7 0.2 -5.7
v -5.6 0 -5.7
v -5.6 0.2 -5.7
v -5.6 0.3 -5.7
v -5.5 0 -5.7
v -5.5 0.2 -5.7
v -5.5 0.3 -5.7
v -5.4 0 -5.7
v -5.4 0.2 -5.7
v -5.4 0.3 -5.7
v -5.3 0 -5.7
v -5.3 0.2 -5.7
v -5.3 0.3 -5.7
v -5.7 0 -5.8
v -5.7 0.2 -5.8
v -5.7 0.3 -5.8
v -5.6 0 -5.8
v -5.6 0.2 -5.8
v -5.6 0.3 -5.8
v -5.9 0 -5.1
v -5.8 0 -5.1
v -5.7 0 -5.1
v -5.6 0 -5.1
v -6 0 -5.2
v -5.9 0 -5.2
v -5.8 0 -5.2
v -5.7 0 -5.2
v -5.6 0 -5.2
v -5.5 0 -5.2
v -6.1 0 -5.3
v -6 0 -5.3
v -5.9 0 -5.3
v -5.8 0 -5.3
v -5.7 0 -5.3
v -5.6 0 -5.3
v -5.5 0 -5.3
v -5.4 0 -5.3
v -6.1 0 -5.4
v -6 0 -5.4
v -5.9 0 -5.4
v -5.8 0 -5.4
v -5.7 0 -5.4
v -5.6 0 -5.4
v -5.5 0 -5.4
v -5.4 0 -5.4
v -6 0 -5.5
v -5.9 0 -5.5
v -5.8 0 -5.5
v -5.7 0 -5.5
v -5.6 0 -5.5
v -5.5 0 -5.5
v -5.4 0 -5.5
v -6 0 -5.6
v -5.9 0 -5.6
v -5.8 0 -5.6
v -5.7 0 -5.6
v -5.6 0 -5.6
v -5.5 0 -5.6
v -5.4 0 -5.6
v -5.3 0 -5.6
v -6 0 -5.7
v -5.9 0 -5.7
v -5.8 0 -5.7
v -5.7 0 -5.7
v -5.6 0 -5.7
v -5.5 0 -5.7
v -5.4 0 -5.7
v -5.3 0 -5.7
v -5.7 0 -5.8
v -5.6 0 -5.8
v -5.7 0.2 -5.1
v -5.6 0.2 -5.1
v -6 0.2 -5.2
v -5.9 0.2 -5.2
v -5.8 0.2 -5.2
v -5.7 0.2 -5.2
v -5.6 0.2 -5.2
v -6 0.2 -5.3
v -5.9 0.2 -5.3
v -5.8 0.2 -5.3
v -5.7 0.2 -5.3
v -5.6 0.2 -5.3
v -5.5 0.2 -5.3
v -5.4 0.2 -5.3
v -6 0.2 -5.4
v -5.9 0.2 -5.4
v -5.8 0.2 -5.4
v -5.7 0.2 -5.4
v -5.6 0.2 -5.4
v -5.5 0.2 -5.4
v -5.4 0.2 -5.4
v -6 0.2 -5.5
v -5.9 0.2 -5.5
v -5.8 0.2 -5.5
v -5.7 0.2 -5.5
v -5.6 0.2 -5.5
v -5.5 0.2 -5.5
v -5.4 0.2 -5.5
v -5.9 0.2 -5.6
v -5.8 0.2 -5.6
v -5.7 0.2 -5.6
v -5.6 0.2 -5.6
v -5.5 0.2 -5.6
v -5.4 0.2 -5.6
v -5.8 0.2 -5.7
v -5.7 0.2 -5.7
v -5.9 0.3 -5.1
v -5.8 0.3 -5.1
v -5.9 0.3 -5.2
v -5.8 0.3 -5.2
v -5.6 0.3 -5.2
v -5.5 0.3 -5.2
v -6.1 0.3 -5.3
v -6 0.3 -5.3
v -5.6 0.3 -5.3
v -5.5 0.3 -5.3
v -6.1 0.3 -5.4
v -6 0.3 -5.4
v -5.8 0.3 -5.4
v -5.7 0.3 -5.4
v -5.6 0.3 -5.4
v -5.5 0.3 -5.4
v -5.8 0.3 -5.5
v -5.7 0.3 -5.5
v -5.6 0.3 -5.5
v -5.5 0.3 -5.5
v -6 0.3 -5.6
v -5.9 0.3 -5.6
v -5.6 0.3 -5.6
v -5.5 0.3 -5.6
v -5.4 0.3 -5.6
v -5.3 0.3 -5.6
v -6 0.3 -5.7
v -5.9 0.3 -5.7
v -5.7 0.3 -5.7
v -5.6 0.3 -5.7
v -5.5 0.3 -5.7
v -5.4 0.3 -5.7
v -5.3 0.3 -5.7
v -5.7 0.3 -5.8
v -5.6 0.3 -5.8

# faces
f 3/1/1 2/1/1 1/1/1
f 4/1/1 2/1/1 3/1/1
f 5/2/1 4/2/1 3/2/1
f 6/2/1 4/2/1 5/2/1
f 13/1/1 8/1/1 7/1/1
f 14/1/1 8/1/1 13/1/1
f 15/1/1 10/1/1 9/1/1
f 16/1/1 10/1/1 15/1/1
f 17/3/1 14/3/1 13/3/1
f 18/3/1 14/3/1 17/3/1
f 19/3/1 16/3/1 15/3/1
f 20/3/1 16/3/1 19/3/1
f 21/1/1 12/1/1 11/1/1
f 22/1/1 12/1/1 21/1/1
f 23/3/1 22/3/1 21/3/1
f 24/3/1 22/3/1 23/3/1
f 31/1/1 26/1/1 25/1/1
f 32/1/1 28/1/1 27/1/1
f 33/1/1 28/1/1 32/1/1
f 34/1/1 30/1/1 29/1/1
f 35/1/1 30/1/1 34/1/1
f 36/1/1 31/1/1 25/1/1
f 37/1/1 31/1/1 36/1/1
f 38/3/1 33/3/1 32/3/1
f 39/3/1 33/3/1 38/3/1
f 40/2/1 35/2/1 34/2/1
f 41/2/1 35/2/1 40/2/1
f 42/3/1 37/3/1 36/3/1
f 43/3/1 37/3/1 42/3/1
f 50/1/1 45/1/1 44/1/1
f 51/1/1 45/1/1 50/1/1
f 52/1/1 47/1/1 46/1/1
f 53/1/1 47/1/1 52/1/1
f 54/1/1 49/1/1 48/1/1
f 55/1/1 49/1/1 54/1/1
f 56/3/1 51/3/1 50/3/1
f 57/3/1 51/3/1 56/3/1
f 58/1/1 53/1/1 52/1/1
f 59/1/1 53/1/1 58/1/1
f 60/3/1 55/3/1 54/3/1
f 61/3/1 55/3/1 60/3/1
f 62/2/1 59/2/1 58/2/1
f 63/2/1 59/2/1 62/2/1
f 72/1/1 65/1/1 64/1/1
f 73/1/1 65/1/1 72/1/1
f 74/1/1 67/1/1 66/1/1
f 75/1/1 67/1/1 74/1/1
f 76/1/1 69/1/1 68/1/1
f 77/1/1 69/1/1 76/1/1
f 78/1/1 71/1/1 70/1/1
f 79/2/1 73/2/1 72/2/1
f 80/2/1 73/2/1 79/2/1
f 81/2/1 75/2/1 74/2/1
f 82/2/1 75/2/1 81/2/1
f 83/3/1 77/3/1 76/3/1
f 84/3/1 77/3/1 83/3/1
f 85/1/1 71/1/1 78/1/1
f 86/1/1 71/1/1 85/1/1
f 87/2/1 86/2/1 85/2/1
f 88/2/1 86/2/1 87/2/1
f 95/1/1 90/1/1 89/1/1
f 96/1/1 90/1/1 95/1/1
f 97/1/1 92/1/1 91/1/1
f 98/1/1 92/1/1 97/1/1
f 99/1/1 94/1/1 93/1/1
f 100/1/1 96/1/1 95/1/1
f 101/1/1 96/1/1 100/1/1
f 102/1/1 98/1/1 97/1/1
f 103/1/1 98/1/1 102/1/1
f 104/1/1 94/1/1 99/1/1
f 105/1/1 94/1/1 104/1/1
f 106/2/1 101/2/1 100/2/1
f 107/2/1 101/2/1 106/2/1
f 108/3/1 103/3/1 102/3/1
f 109/3/1 103/3/1 108/3/1
f 110/3/1 105/3/1 104/3/1
f 111/3/1 105/3/1 110/3/1
f 116/1/1 113/1/1 112/1/1
f 117/1/1 113/1/1 116/1/1
f 118/1/1 115/1/1 114/1/1
f 119/1/1 115/1/1 118/1/1
f 120/3/1 117/3/1 116/3/1
f 121/3/1 117/3/1 120/3/1
f 122/3/1 119/3/1 118/3/1
f 123/3/1 119/3/1 122/3/1
f 126/1/1 125/1/1 124/1/1
f 127/1/1 125/1/1 126/1/1
f 128/1/1 125/1/1 127/1/1
f 129/2/1 128/2/1 127/2/1
f 130/2/1 128/2/1 129/2/1
f 131/1/2 132/1/2 133/1/2
f 133/1/2 132/1/2 134/1/2
f 133/1/2 134/1/2 135/1/2
f 135/1/2 134/1/2 136/1/2
f 135/2/2 136/2/2 137/2/2
f 137/2/2 136/2/2 138/2/2
f 139/1/2 140/1/2 145/1/2
f 145/1/2 140/1/2 146/1/2
f 141/1/2 142/1/2 147/1/2
f 147/1/2 142/1/2 148/1/2
f 143/1/2 144/1/2 149/1/2
f 145/3/2 146/3/2 150/3/2
f 150/3/2 146/3/2 151/3/2
f 147/3/2 148/3/2 152/3/2
f 152/3/2 148/3/2 153/3/2
f 149/1/2 144/1/2 154/1/2
f 154/1/2 144/1/2 155/1/2
f 154/3/2 155/3/2 156/3/2
f 156/3/2 155/3/2 157/3/2
f 158/1/2 159/1/2 164/1/2
f 160/1/2 161/1/2 165/1/2
f 165/1/2 161/1/2 166/1/2
f 162/1/2 163/1/2 167/1/2
f 167/1/2 163/1/2 168/1/2
f 158/1/2 164/1/2 169/1/2
f 169/1/2 164/1/2 170/1/2
f 165/3/2 166/3/2 171/3/2
f 171/3/2 166/3/2 172/3/2
f 167/2/2 168/2/2 173/2/2
f 173/2/2 168/2/2 174/2/2
f 169/3/2 170/3/2 175/3/2
f 175/3/2 170/3/2 176/3/2
f 177/1/2 178/1/2 183/1/2
f 183/1/2 178/1/2 184/1/2
f 179/1/2 180/1/2 185/1/2
f 185/1/2 180/1/2 186/1/2
f 181/1/2 182/1/2 187/1/2
f 187/1/2 182/1/2 188/1/2
f 183/3/2 184/3/2 189/3/2
f 189/3/2 184/3/2 190/3/2
f 185/1/2 186/1/2 191/1/2
f 191/1/2 186/1/2 192/1/2
f 187/3/2 188/3/2 193/3/2
f 193/3/2 188/3/2 194/3/2
f 191/2/2 192/2/2 195/2/2
f 195/2/2 192/2/2 196/2/2
f 197/1/2 198/1/2 205/1/2
f 205/1/2 198/1/2 206/1/2
f 199/1/2 200/1/2 207/1/2
f 207/1/2 200/1/2 208/1/2
f 201/1/2 202/1/2 209/1/2
f 209/1/2 202/1/2 210/1/2
f 205/2/2 206/2/2 211/2/2
f 211/2/2 206/2/2 212/2/2
f 207/2/2 208/2/2 213/2/2
f 213/2/2 208/2/2 214/2/2
f 209/3/2 210/3/2 215/3/2
f 215/3/2 210/3/2 216/3/2
f 203/1/2 204/1/2 217/1/2
f 217/1/2 204/1/2 218/1/2
f 217/2/2 218/2/2 219/2/2
f 219/2/2 218/2/2 220/2/2
f 221/1/2 222/1/2 227/1/2
f 223/1/2 224/1/2 228/1/2
f 228/1/2 224/1/2 229/1/2
f 225/1/2 226/1/2 230/1/2
f 221/1/2 227/1/2 231/1/2
f 231/1/2 227/1/2 232/1/2
f 228/1/2 229/1/2 233/1/2
f 233/1/2 229/1/2 234/1/2
f 230/1/2 226/1/2 235/1/2
f 235/1/2 226/1/2 236/1/2
f 231/2/2 232/2/2 237/2/2
f 237/2/2 232/2/2 238/2/2
f 233/3/2 234/3/2 239/3/2
f 239/3/2 234/3/2 240/3/2
f 235/3/2 236/3/2 241/3/2
f 241/3/2 236/3/2 242/3/2
f 243/1/2 244/1/2 247/1/2
f 247/1/2 244/1/2 248/1/2
f 245/1/2 246/1/2 249/1/2
f 249/1/2 246/1/2 250/1/2
f 247/3/2 248/3/2 251/3/2
f 251/3/2 248/3/2 252/3/2
f 249/3/2 250/3/2 253/3/2
f 253/3/2 250/3/2 254/3/2
f 255/1/2 256/1/2 257/1/2
f 257/1/2 256/1/2 258/1/2
f 257/2/2 258/2/2 259/2/2
f 259/2/2 258/2/2 260/2/2
f 264/1/3 262/1/3 261/1/3
f 265/3/3 263/3/3 262/3/3
f 265/1/3 262/1/3 264/1/3
f 266/3/3 263/3/3 265/3/3
f 270/1/3 268/1/3 267/1/3
f 271/2/3 269/2/3 268/2/3
f 271/1/3 268/1/3 270/1/3
f 272/2/3 269/2/3 271/2/3
f 276/1/3 274/1/3 273/1/3
f 277/3/3 275/3/3 274/3/3
f 277/1/3 274/1/3 276/1/3
f 278/3/3 275/3/3 277/3/3
f 282/1/3 280/1/3 279/1/3
f 283/3/3 281/3/3 280/3/3
f 283/1/3 280/1/3 282/1/3
f 284/3/3 281/3/3 283/3/3
f 289/1/3 287/1/3 286/1/3
f 289/1/3 286/1/3 285/1/3
f 290/2/3 288/2/3 287/2/3
f 290/1/3 287/1/3 289/1/3
f 291/2/3 288/2/3 290/2/3
f 295/1/3 293/1/3 292/1/3
f 296/1/3 293/1/3 295/1/3
f 297/2/3 294/2/3 293/2/3
f 297/1/3 293/1/3 296/1/3
f 298/2/3 294/2/3 297/2/3
f 302/1/3 300/1/3 299/1/3
f 303/3/3 301/3/3 300/3/3
f 303/1/3 300/1/3 302/1/3
f 304/3/3 301/3/3 303/3/3
f 308/1/3 306/1/3 305/1/3
f 309/2/3 307/2/3 306/2/3
f 309/1/3 306/1/3 308/1/3
f 310/2/3 307/2/3 309/2/3
f 314/1/3 312/1/3 311/1/3
f 315/3/3 313/3/3 312/3/3
f 315/1/3 312/1/3 314/1/3
f 316/3/3 313/3/3 315/3/3
f 320/1/3 318/1/3 317/1/3
f 321/3/3 319/3/3 318/3/3
f 321/1/3 318/1/3 320/1/3
f 322/3/3 319/3/3 321/3/3
f 327/1/3 325/1/3 324/1/3
f 327/1/3 324/1/3 323/1/3
f 328/1/3 325/1/3 327/1/3
f 329/2/3 326/2/3 325/2/3
f 329/1/3 325/1/3 328/1/3
f 330/2/3 326/2/3 329/2/3
f 335/1/3 332/1/3 331/1/3
f 335/1/3 333/1/3 332/1/3
f 336/1/3 333/1/3 335/1/3
f 337/3/3 334/3/3 333/3/3
f 337/1/3 333/1/3 336/1/3
f 338/3/3 334/3/3 337/3/3
f 342/1/3 340/1/3 339/1/3
f 343/2/3 341/2/3 340/2/3
f 343/1/3 340/1/3 342/1/3
f 344/2/3 341/2/3 343/2/3
f 348/1/3 346/1/3 345/1/3
f 349/3/3 347/3/3 346/3/3
f 349/1/3 346/1/3 348/1/3
f 350/3/3 347/3/3 349/3/3
f 354/1/3 352/1/3 351/1/3
f 355/3/3 353/3/3 352/3/3
f 355/1/3 352/1/3 354/1/3
f 356/3/3 353/3/3 355/3/3
f 360/1/3 358/1/3 357/1/3
f 361/1/3 358/1/3 360/1/3
f 362/3/3 359/3/3 358/3/3
f 362/1/3 358/1/3 361/1/3
f 363/3/3 359/3/3 362/3/3
f 367/1/3 365/1/3 364/1/3
f 368/3/3 366/3/3 365/3/3
f 368/1/3 365/1/3 367/1/3
f 369/3/3 366/3/3 368/3/3
f 374/1/3 372/1/3 371/1/3
f 374/1/3 371/1/3 370/1/3
f 375/1/3 372/1/3 374/1/3
f 376/3/3 373/3/3 372/3/3
f 376/1/3 372/1/3 375/1/3
f 377/3/3 373/3/3 376/3/3
f 382/1/3 379/1/3 378/1/3
f 382/1/3 380/1/3 379/1/3
f 383/2/3 381/2/3 380/2/3
f 383/1/3 380/1/3 382/1/3
f 384/2/3 381/2/3 383/2/3
f 389/1/3 386/1/3 385/1/3
f 389/1/3 387/1/3 386/1/3
f 390/2/3 388/2/3 387/2/3
f 390/1/3 387/1/3 389/1/3
f 391/2/3 388/2/3 390/2/3
f 392/1/4 393/1/4 396/1/4
f 393/1/4 394/1/4 396/1/4
f 396/1/4 394/1/4 397/1/4
f 394/3/4 395/3/4 398/3/4
f 397/1/4 394/1/4 398/1/4
f 398/3/4 395/3/4 399/3/4
f 400/1/4 401/1/4 403/1/4
f 401/2/4 402/2/4 404/2/4
f 403/1/4 401/1/4 404/1/4
f 404/2/4 402/2/4 405/2/4
f 406/1/4 407/1/4 409/1/4
f 407/3/4 408/3/4 410/3/4
f 409/1/4 407/1/4 410/1/4
f 410/3/4 408/3/4 411/3/4
f 412/1/4 413/1/4 415/1/4
f 413/3/4 414/3/4 416/3/4
f 415/1/4 413/1/4 416/1/4
f 416/3/4 414/3/4 417/3/4
f 419/1/4 420/1/4 422/1/4
f 418/1/4 419/1/4 422/1/4
f 422/1/4 420/1/4 423/1/4
f 420/2/4 421/2/4 424/2/4
f 423/1/4 420/1/4 424/1/4
f 424/2/4 421/2/4 425/2/4
f 426/1/4 427/1/4 429/1/4
f 429/1/4 427/1/4 430/1/4
f 427/2/4 428/2/4 431/2/4
f 430/1/4 427/1/4 431/1/4
f 431/2/4 428/2/4 432/2/4
f 433/1/4 434/1/4 436/1/4
f 434/3/4 435/3/4 437/3/4
f 436/1/4 434/1/4 437/1/4
f 437/3/4 435/3/4 438/3/4
f 439/1/4 440/1/4 442/1/4
f 440/2/4 441/2/4 443/2/4
f 442/1/4 440/1/4 443/1/4
f 443/2/4 441/2/4 444/2/4
f 445/1/4 446/1/4 448/1/4
f 446/3/4 447/3/4 449/3/4
f 448/1/4 446/1/4 449/1/4
f 449/3/4 447/3/4 450/3/4
f 451/1/4 452/1/4 454/1/4
f 452/3/4 453/3/4 455/3/4
f 454/1/4 452/1/4 455/1/4
f 455/3/4 453/3/4 456/3/4
f 458/1/4 459/1/4 461/1/4
f 457/1/4 458/1/4 461/1/4
f 461/1/4 459/1/4 462/1/4
f 459/2/4 460/2/4 463/2/4
f 462/1/4 459/1/4 463/1/4
f 463/2/4 460/2/4 464/2/4
f 465/1/4 466/1/4 469/1/4
f 466/1/4 467/1/4 469/1/4
f 469/1/4 467/1/4 470/1/4
f 467/3/4 468/3/4 471/3/4
f 470/1/4 467/1/4 471/1/4
f 471/3/4 468/3/4 472/3/4
f 473/1/4 474/1/4 476/1/4
f 474/2/4 475/2/4 477/2/4
f 476/1/4 474/1/4 477/1/4
f 477/2/4 475/2/4 478/2/4
f 479/1/4 480/1/4 482/1/4
f 480/3/4 481/3/4 483/3/4
f 482/1/4 480/1/4 483/1/4
f 483/3/4 481/3/4 484/3/4
f 485/1/4 486/1/4 488/1/4
f 486/3/4 487/3/4 489/3/4
f 488/1/4 486/1/4 489/1/4
f 489/3/4 487/3/4 490/3/4
f 491/1/4 492/1/4 494/1/4
f 492/3/4 493/3/4 495/3/4
f 494/1/4 492/1/4 495/1/4
f 495/3/4 493/3/4 496/3/4
f 497/1/4 498/1/4 500/1/4
f 498/3/4 499/3/4 501/3/4
f 500/1/4 498/1/4 501/1/4
f 501/3/4 499/3/4 502/3/4
f 503/1/4 504/1/4 506/1/4
f 504/3/4 505/3/4 507/3/4
f 506/1/4 504/1/4 507/1/4
f 507/3/4 505/3/4 508/3/4
f 509/1/4 510/1/4 512/1/4
f 510/2/4 511/2/4 513/2/4
f 512/1/4 510/1/4 513/1/4
f 513/2/4 511/2/4 514/2/4
f 515/1/4 516/1/4 518/1/4
f 516/2/4 517/2/4 519/2/4
f 518/1/4 516/1/4 519/1/4
f 519/2/4 517/2/4 520/2/4
f 526/1/5 522/1/5 521/1/5
f 527/1/5 522/1/5 526/1/5
f 528/1/5 524/1/5 523/1/5
f 529/1/5 524/1/5 528/1/5
f 532/1/5 526/1/5 525/1/5
f 533/1/5 526/1/5 532/1/5
f 534/1/5 528/1/5 527/1/5
f 535/1/5 528/1/5 534/1/5
f 536/1/5 530/1/5 529/1/5
f 537/1/5 530/1/5 536/1/5
f 539/1/5 532/1/5 531/1/5
f 540/1/5 532/1/5 539/1/5
f 541/1/5 534/1/5 533/1/5
f 542/1/5 534/1/5 541/1/5
f 543/1/5 536/1/5 535/1/5
f 544/1/5 536/1/5 543/1/5
f 545/1/5 538/1/5 537/1/5
f 546/1/5 538/1/5 545/1/5
f 547/1/5 541/1/5 540/1/5
f 548/1/5 541/1/5 547/1/5
f 549/1/5 543/1/5 542/1/5
f 550/1/5 543/1/5 549/1/5
f 551/1/5 545/1/5 544/1/5
f 552/1/5 545/1/5 551/1/5
f 555/1/5 549/1/5 548/1/5
f 556/1/5 549/1/5 555/1/5
f 557/1/5 551/1/5 550/1/5
f 558/1/5 551/1/5 557/1/5
f 559/1/5 553/1/5 552/1/5
f 560/1/5 553/1/5 559/1/5
f 562/1/5 555/1/5 554/1/5
f 563/1/5 555/1/5 562/1/5
f 564/1/5 557/1/5 556/1/5
f 565/1/5 557/1/5 564/1/5
f 566/1/5 559/1/5 558/1/5
f 567/1/5 559/1/5 566/1/5
f 568/1/5 561/1/5 560/1/5
f 569/1/5 561/1/5 568/1/5
f 570/1/5 566/1/5 565/1/5
f 571/1/5 566/1/5 570/1/5
f 572/2/6 573/2/6 577/2/6
f 577/2/6 573/2/6 578/2/6
f 574/3/6 575/3/6 579/3/6
f 579/3/6 575/3/6 580/3/6
f 576/3/6 577/3/6 581/3/6
f 581/3/6 577/3/6 582/3/6
f 580/3/6 581/3/6 587/3/6
f 587/3/6 581/3/6 588/3/6
f 582/2/6 583/2/6 589/2/6
f 589/2/6 583/2/6 590/2/6
f 584/3/6 585/3/6 591/3/6
f 591/3/6 585/3/6 592/3/6
f 586/3/6 587/3/6 593/3/6
f 593/3/6 587/3/6 594/3/6
f 594/2/6 595/2/6 600/2/6
f 600/2/6 595/2/6 601/2/6
f 596/3/6 597/3/6 602/3/6
f 602/3/6 597/3/6 603/3/6
f 598/3/6 599/3/6 604/3/6
f 604/3/6 599/3/6 605/3/6
f 601/3/6 602/3/6 606/3/6
f 606/3/6 602/3/6 607/3/6
f 608/3/6 609/3/6 610/3/6
f 610/3/6 609/3/6 611/3/6
f 612/2/6 613/2/6 616/2/6
f 616/2/6 613/2/6 617/2/6
f 614/2/6 615/2/6 618/2/6
f 618/2/6 615/2/6 619/2/6
f 620/2/6 621/2/6 624/2/6
f 624/2/6 621/2/6 625/2/6
f 622/3/6 623/3/6 626/3/6
f 626/3/6 623/3/6 627/3/6
f 628/3/6 629/3/6 634/3/6
f 634/3/6 629/3/6 635/3/6
f 630/3/6 631/3/6 637/3/6
f 637/3/6 631/3/6 638/3/6
f 632/2/6 633/2/6 639/2/6
f 639/2/6 633/2/6 640/2/6
f 636/2/6 637/2/6 641/2/6
f 641/2/6 637/2/6 642/2/6
