# MagicaVoxel @ Ephtracy

# group
o 

# material
mtllib WEST_3D_TILEMAP.vox-41.mtl
usemtl palette

# normals
vn -1 0 0
vn 1 0 0
vn 0 0 1
vn 0 0 -1
vn 0 -1 0
vn 0 1 0

# texcoords
vt 0.173828 0.5
vt 0.314453 0.5
vt 0.326172 0.5
vt 0.767578 0.5
vt 0.912109 0.5
vt 0.986328 0.5
vt 0.994141 0.5

# verts
v -7.7 0.3 -6.8
v -7.7 0.3 -7
v -7.7 0.4 -6.8
v -7.7 0.4 -7
v -7.7 0.9 -6.8
v -7.7 0.9 -7
v -7.5 0.1 -6.5
v -7.5 0.1 -7.3
v -7.5 0.3 -6.8
v -7.5 0.3 -7
v -7.5 0.4 -6.8
v -7.5 0.4 -7
v -7.5 0.8 -7.1
v -7.5 0.8 -7.3
v -7.5 0.9 -6.5
v -7.5 0.9 -6.8
v -7.5 0.9 -7
v -7.5 0.9 -7.1
v -7.5 0.9 -7.3
v -7.5 1 -6.5
v -7.5 1 -6.7
v -7.5 1.1 -6.7
v -7.5 1.1 -6.8
v -7.5 1.3 -6.8
v -7.5 1.3 -7
v -7.5 1.5 -7
v -7.5 1.5 -7.2
v -7.5 1.6 -7.2
v -7.5 1.6 -7.3
v -7.5 1.7 -6.5
v -7.5 1.7 -7.3
v -7.4 0 -6.7
v -7.4 0 -7.1
v -7.4 0.1 -6.7
v -7.4 0.1 -7.1
v -7.4 1.7 -6.8
v -7.4 1.7 -7.2
v -7.4 1.8 -6.8
v -7.4 1.8 -7.2
v -7.1 1.7 -7.2
v -7.1 1.7 -7.3
v -7.1 1.8 -7.2
v -7.1 1.8 -7.3
v -7 0 -6.7
v -7 0 -7.1
v -7 0.1 -6.7
v -7 0.1 -7.1
v -7.3 1.7 -6.8
v -7.3 1.7 -7.1
v -7.3 1.8 -6.8
v -7.3 1.8 -7.1
v -7.2 0 -6.7
v -7.2 0 -7.1
v -7.2 0.1 -6.7
v -7.2 0.1 -7.1
v -7 1.7 -7.1
v -7 1.7 -7.2
v -7 1.8 -7.1
v -7 1.8 -7.2
v -6.8 0 -6.7
v -6.8 0 -7.1
v -6.8 0.1 -6.7
v -6.8 0.1 -7.1
v -6.8 1.7 -7.2
v -6.8 1.7 -7.3
v -6.8 1.8 -7.2
v -6.8 1.8 -7.3
v -6.7 0.1 -6.5
v -6.7 0.1 -7.3
v -6.7 0.3 -6.8
v -6.7 0.3 -7
v -6.7 0.4 -6.8
v -6.7 0.4 -7
v -6.7 0.8 -7.1
v -6.7 0.8 -7.3
v -6.7 0.9 -6.5
v -6.7 0.9 -6.8
v -6.7 0.9 -7
v -6.7 0.9 -7.1
v -6.7 0.9 -7.3
v -6.7 1 -6.5
v -6.7 1 -6.7
v -6.7 1.1 -6.7
v -6.7 1.1 -6.8
v -6.7 1.3 -6.8
v -6.7 1.3 -7
v -6.7 1.5 -7
v -6.7 1.5 -7.2
v -6.7 1.6 -7.2
v -6.7 1.6 -7.3
v -6.7 1.7 -6.5
v -6.7 1.7 -7.3
v -6.5 0.3 -6.8
v -6.5 0.3 -7
v -6.5 0.4 -6.8
v -6.5 0.4 -7
v -6.5 0.9 -6.8
v -6.5 0.9 -7
v -7.5 0.1 -6.5
v -7.5 0.9 -6.5
v -7.5 1 -6.5
v -7.5 1.7 -6.5
v -6.7 0.1 -6.5
v -6.7 0.9 -6.5
v -6.7 1 -6.5
v -6.7 1.7 -6.5
v -7.4 0 -6.7
v -7.4 0.1 -6.7
v -7.2 0 -6.7
v -7.2 0.1 -6.7
v -7 0 -6.7
v -7 0.1 -6.7
v -6.8 0 -6.7
v -6.8 0.1 -6.7
v -7.7 0.3 -6.8
v -7.7 0.4 -6.8
v -7.7 0.9 -6.8
v -7.5 0.3 -6.8
v -7.5 0.4 -6.8
v -7.5 0.9 -6.8
v -7.4 1.7 -6.8
v -7.4 1.8 -6.8
v -7.3 1.7 -6.8
v -7.3 1.8 -6.8
v -6.7 0.3 -6.8
v -6.7 0.4 -6.8
v -6.7 0.9 -6.8
v -6.5 0.3 -6.8
v -6.5 0.4 -6.8
v -6.5 0.9 -6.8
v -7.3 1.7 -7.1
v -7.3 1.8 -7.1
v -7 1.7 -7.1
v -7 1.8 -7.1
v -7 1.7 -7.2
v -7 1.8 -7.2
v -6.8 1.7 -7.2
v -6.8 1.8 -7.2
v -7.7 0.3 -7
v -7.7 0.4 -7
v -7.7 0.9 -7
v -7.5 0.3 -7
v -7.5 0.4 -7
v -7.5 0.9 -7
v -6.7 0.3 -7
v -6.7 0.4 -7
v -6.7 0.9 -7
v -6.5 0.3 -7
v -6.5 0.4 -7
v -6.5 0.9 -7
v -7.4 0 -7.1
v -7.4 0.1 -7.1
v -7.2 0 -7.1
v -7.2 0.1 -7.1
v -7 0 -7.1
v -7 0.1 -7.1
v -6.8 0 -7.1
v -6.8 0.1 -7.1
v -7.4 1.7 -7.2
v -7.4 1.8 -7.2
v -7.1 1.7 -7.2
v -7.1 1.8 -7.2
v -7.5 0.1 -7.3
v -7.5 0.8 -7.3
v -7.5 0.9 -7.3
v -7.5 1.6 -7.3
v -7.5 1.7 -7.3
v -7.3 0.6 -7.3
v -7.3 0.8 -7.3
v -7.3 1.1 -7.3
v -7.3 1.2 -7.3
v -7.3 1.3 -7.3
v -7.3 1.5 -7.3
v -7.2 0.1 -7.3
v -7.2 0.3 -7.3
v -7.2 0.6 -7.3
v -7.2 0.9 -7.3
v -7.2 1 -7.3
v -7.2 1.1 -7.3
v -7.2 1.2 -7.3
v -7.2 1.3 -7.3
v -7.2 1.5 -7.3
v -7.1 0.3 -7.3
v -7.1 0.7 -7.3
v -7.1 1.7 -7.3
v -7.1 1.8 -7.3
v -7 0.1 -7.3
v -7 0.6 -7.3
v -7 0.7 -7.3
v -7 0.9 -7.3
v -7 1 -7.3
v -7 1.1 -7.3
v -7 1.2 -7.3
v -7 1.3 -7.3
v -7 1.5 -7.3
v -6.9 0.6 -7.3
v -6.9 0.8 -7.3
v -6.9 1.1 -7.3
v -6.9 1.2 -7.3
v -6.9 1.3 -7.3
v -6.9 1.5 -7.3
v -6.8 1.7 -7.3
v -6.8 1.8 -7.3
v -6.7 0.1 -7.3
v -6.7 0.8 -7.3
v -6.7 0.9 -7.3
v -6.7 1.6 -7.3
v -6.7 1.7 -7.3
v -7.4 0 -6.7
v -7.2 0 -6.7
v -7 0 -6.7
v -6.8 0 -6.7
v -7.4 0 -7.1
v -7.2 0 -7.1
v -7 0 -7.1
v -6.8 0 -7.1
v -7.5 0.1 -6.5
v -6.7 0.1 -6.5
v -7.4 0.1 -6.6
v -6.8 0.1 -6.6
v -7.4 0.1 -6.7
v -7.2 0.1 -6.7
v -7 0.1 -6.7
v -6.8 0.1 -6.7
v -7.4 0.1 -7.1
v -7.2 0.1 -7.1
v -7 0.1 -7.1
v -6.8 0.1 -7.1
v -7.4 0.1 -7.2
v -7.2 0.1 -7.2
v -7 0.1 -7.2
v -6.8 0.1 -7.2
v -7.5 0.1 -7.3
v -7.2 0.1 -7.3
v -7 0.1 -7.3
v -6.7 0.1 -7.3
v -7.7 0.3 -6.8
v -7.5 0.3 -6.8
v -6.7 0.3 -6.8
v -6.5 0.3 -6.8
v -7.7 0.3 -7
v -7.5 0.3 -7
v -6.7 0.3 -7
v -6.5 0.3 -7
v -7.7 0.9 -6.8
v -7.5 0.9 -6.8
v -6.7 0.9 -6.8
v -6.5 0.9 -6.8
v -7.7 0.9 -7
v -7.5 0.9 -7
v -6.7 0.9 -7
v -6.5 0.9 -7
v -7.5 1.7 -6.5
v -6.7 1.7 -6.5
v -7.4 1.7 -6.8
v -7.3 1.7 -6.8
v -7.3 1.7 -7.1
v -7 1.7 -7.1
v -7.4 1.7 -7.2
v -7.1 1.7 -7.2
v -7 1.7 -7.2
v -6.8 1.7 -7.2
v -7.5 1.7 -7.3
v -7.1 1.7 -7.3
v -6.8 1.7 -7.3
v -6.7 1.7 -7.3
v -7.4 1.8 -6.8
v -7.3 1.8 -6.8
v -7.3 1.8 -7.1
v -7 1.8 -7.1
v -7.4 1.8 -7.2
v -7.1 1.8 -7.2
v -7 1.8 -7.2
v -6.8 1.8 -7.2
v -7.1 1.8 -7.3
v -6.8 1.8 -7.3

# faces
f 3/2/1 2/2/1 1/2/1
f 4/2/1 2/2/1 3/2/1
f 5/4/1 4/4/1 3/4/1
f 6/4/1 4/4/1 5/4/1
f 9/4/1 8/4/1 7/4/1
f 10/4/1 8/4/1 9/4/1
f 11/4/1 9/4/1 7/4/1
f 12/4/1 8/4/1 10/4/1
f 13/4/1 8/4/1 12/4/1
f 14/4/1 8/4/1 13/4/1
f 15/4/1 11/4/1 7/4/1
f 16/4/1 11/4/1 15/4/1
f 17/4/1 13/4/1 12/4/1
f 18/5/1 14/5/1 13/5/1
f 18/4/1 13/4/1 17/4/1
f 19/5/1 14/5/1 18/5/1
f 20/2/1 16/2/1 15/2/1
f 20/2/1 17/2/1 16/2/1
f 20/2/1 19/2/1 18/2/1
f 20/2/1 18/2/1 17/2/1
f 21/2/1 19/2/1 20/2/1
f 22/3/1 21/3/1 20/3/1
f 22/2/1 19/2/1 21/2/1
f 23/2/1 19/2/1 22/2/1
f 24/3/1 23/3/1 22/3/1
f 24/2/1 19/2/1 23/2/1
f 25/2/1 19/2/1 24/2/1
f 26/3/1 25/3/1 24/3/1
f 26/2/1 19/2/1 25/2/1
f 27/2/1 19/2/1 26/2/1
f 28/3/1 27/3/1 26/3/1
f 28/2/1 19/2/1 27/2/1
f 29/2/1 19/2/1 28/2/1
f 30/3/1 22/3/1 20/3/1
f 30/3/1 24/3/1 22/3/1
f 30/3/1 29/3/1 28/3/1
f 30/3/1 28/3/1 26/3/1
f 30/3/1 26/3/1 24/3/1
f 31/3/1 29/3/1 30/3/1
f 34/7/1 33/7/1 32/7/1
f 35/7/1 33/7/1 34/7/1
f 38/3/1 37/3/1 36/3/1
f 39/3/1 37/3/1 38/3/1
f 42/3/1 41/3/1 40/3/1
f 43/3/1 41/3/1 42/3/1
f 46/7/1 45/7/1 44/7/1
f 47/7/1 45/7/1 46/7/1
f 48/3/2 49/3/2 50/3/2
f 50/3/2 49/3/2 51/3/2
f 52/7/2 53/7/2 54/7/2
f 54/7/2 53/7/2 55/7/2
f 56/3/2 57/3/2 58/3/2
f 58/3/2 57/3/2 59/3/2
f 60/7/2 61/7/2 62/7/2
f 62/7/2 61/7/2 63/7/2
f 64/3/2 65/3/2 66/3/2
f 66/3/2 65/3/2 67/3/2
f 68/4/2 69/4/2 70/4/2
f 70/4/2 69/4/2 71/4/2
f 68/4/2 70/4/2 72/4/2
f 71/4/2 69/4/2 73/4/2
f 73/4/2 69/4/2 74/4/2
f 74/4/2 69/4/2 75/4/2
f 68/4/2 72/4/2 76/4/2
f 76/4/2 72/4/2 77/4/2
f 73/4/2 74/4/2 78/4/2
f 74/5/2 75/5/2 79/5/2
f 78/4/2 74/4/2 79/4/2
f 79/5/2 75/5/2 80/5/2
f 76/2/2 77/2/2 81/2/2
f 77/2/2 78/2/2 81/2/2
f 79/2/2 80/2/2 81/2/2
f 78/2/2 79/2/2 81/2/2
f 81/2/2 80/2/2 82/2/2
f 81/3/2 82/3/2 83/3/2
f 82/2/2 80/2/2 83/2/2
f 83/2/2 80/2/2 84/2/2
f 83/3/2 84/3/2 85/3/2
f 84/2/2 80/2/2 85/2/2
f 85/2/2 80/2/2 86/2/2
f 85/3/2 86/3/2 87/3/2
f 86/2/2 80/2/2 87/2/2
f 87/2/2 80/2/2 88/2/2
f 87/3/2 88/3/2 89/3/2
f 88/2/2 80/2/2 89/2/2
f 89/2/2 80/2/2 90/2/2
f 81/3/2 83/3/2 91/3/2
f 83/3/2 85/3/2 91/3/2
f 89/3/2 90/3/2 91/3/2
f 87/3/2 89/3/2 91/3/2
f 85/3/2 87/3/2 91/3/2
f 91/3/2 90/3/2 92/3/2
f 93/2/2 94/2/2 95/2/2
f 95/2/2 94/2/2 96/2/2
f 95/4/2 96/4/2 97/4/2
f 97/4/2 96/4/2 98/4/2
f 103/4/3 100/4/3 99/4/3
f 104/2/3 101/2/3 100/2/3
f 104/4/3 100/4/3 103/4/3
f 105/3/3 102/3/3 101/3/3
f 105/2/3 101/2/3 104/2/3
f 106/3/3 102/3/3 105/3/3
f 109/7/3 108/7/3 107/7/3
f 110/7/3 108/7/3 109/7/3
f 113/7/3 112/7/3 111/7/3
f 114/7/3 112/7/3 113/7/3
f 118/2/3 116/2/3 115/2/3
f 119/4/3 117/4/3 116/4/3
f 119/2/3 116/2/3 118/2/3
f 120/4/3 117/4/3 119/4/3
f 123/3/3 122/3/3 121/3/3
f 124/3/3 122/3/3 123/3/3
f 128/2/3 126/2/3 125/2/3
f 129/4/3 127/4/3 126/4/3
f 129/2/3 126/2/3 128/2/3
f 130/4/3 127/4/3 129/4/3
f 133/3/3 132/3/3 131/3/3
f 134/3/3 132/3/3 133/3/3
f 137/3/3 136/3/3 135/3/3
f 138/3/3 136/3/3 137/3/3
f 139/2/4 140/2/4 142/2/4
f 140/4/4 141/4/4 143/4/4
f 142/2/4 140/2/4 143/2/4
f 143/4/4 141/4/4 144/4/4
f 145/2/4 146/2/4 148/2/4
f 146/4/4 147/4/4 149/4/4
f 148/2/4 146/2/4 149/2/4
f 149/4/4 147/4/4 150/4/4
f 151/7/4 152/7/4 153/7/4
f 153/7/4 152/7/4 154/7/4
f 155/7/4 156/7/4 157/7/4
f 157/7/4 156/7/4 158/7/4
f 159/3/4 160/3/4 161/3/4
f 161/3/4 160/3/4 162/3/4
f 163/4/4 164/4/4 168/4/4
f 164/5/4 165/5/4 169/5/4
f 168/4/4 164/4/4 169/4/4
f 165/2/4 166/2/4 170/2/4
f 170/2/4 166/2/4 171/2/4
f 171/2/4 166/2/4 172/2/4
f 172/2/4 166/2/4 173/2/4
f 163/4/4 168/4/4 174/4/4
f 174/4/4 168/4/4 175/4/4
f 168/5/4 169/5/4 176/5/4
f 175/4/4 168/4/4 176/4/4
f 169/5/4 165/5/4 177/5/4
f 176/5/4 169/5/4 177/5/4
f 165/2/4 170/2/4 177/2/4
f 177/2/4 170/2/4 178/2/4
f 170/7/4 171/7/4 179/7/4
f 178/2/4 170/2/4 179/2/4
f 171/2/4 172/2/4 180/2/4
f 179/7/4 171/7/4 180/7/4
f 172/7/4 173/7/4 181/7/4
f 180/2/4 172/2/4 181/2/4
f 173/2/4 166/2/4 182/2/4
f 181/7/4 173/7/4 182/7/4
f 175/1/4 176/1/4 183/1/4
f 174/5/4 175/5/4 183/5/4
f 176/1/4 177/1/4 183/1/4
f 183/1/4 177/1/4 184/1/4
f 166/3/4 167/3/4 185/3/4
f 174/5/4 183/5/4 187/5/4
f 183/5/4 184/5/4 187/5/4
f 187/5/4 184/5/4 188/5/4
f 184/1/4 177/1/4 189/1/4
f 188/5/4 184/5/4 189/5/4
f 177/2/4 178/2/4 190/2/4
f 189/1/4 177/1/4 190/1/4
f 178/7/4 179/7/4 191/7/4
f 190/2/4 178/2/4 191/2/4
f 180/2/4 181/2/4 192/2/4
f 191/7/4 179/7/4 192/7/4
f 181/2/4 182/2/4 192/2/4
f 179/2/4 180/2/4 192/2/4
f 192/2/4 182/2/4 193/2/4
f 193/2/4 182/2/4 194/2/4
f 182/2/4 166/2/4 195/2/4
f 194/2/4 182/2/4 195/2/4
f 187/4/4 188/4/4 196/4/4
f 188/5/4 189/5/4 196/5/4
f 189/5/4 190/5/4 196/5/4
f 196/5/4 190/5/4 197/5/4
f 190/2/4 191/2/4 198/2/4
f 192/7/4 193/7/4 198/7/4
f 191/2/4 192/2/4 198/2/4
f 193/2/4 194/2/4 199/2/4
f 198/7/4 193/7/4 199/7/4
f 194/7/4 195/7/4 200/7/4
f 199/2/4 194/2/4 200/2/4
f 195/2/4 166/2/4 201/2/4
f 200/7/4 195/7/4 201/7/4
f 166/3/4 185/3/4 202/3/4
f 185/3/4 186/3/4 202/3/4
f 202/3/4 186/3/4 203/3/4
f 196/4/4 197/4/4 204/4/4
f 187/4/4 196/4/4 204/4/4
f 197/5/4 190/5/4 205/5/4
f 204/4/4 197/4/4 205/4/4
f 199/2/4 200/2/4 206/2/4
f 205/5/4 190/5/4 206/5/4
f 190/2/4 198/2/4 206/2/4
f 198/2/4 199/2/4 206/2/4
f 200/2/4 201/2/4 206/2/4
f 166/3/4 202/3/4 207/3/4
f 206/2/4 201/2/4 207/2/4
f 201/2/4 166/2/4 207/2/4
f 207/3/4 202/3/4 208/3/4
f 213/7/5 210/7/5 209/7/5
f 214/7/5 210/7/5 213/7/5
f 215/7/5 212/7/5 211/7/5
f 216/7/5 212/7/5 215/7/5
f 219/4/5 218/4/5 217/4/5
f 220/4/5 218/4/5 219/4/5
f 221/4/5 219/4/5 217/4/5
f 221/6/5 220/6/5 219/6/5
f 222/6/5 220/6/5 221/6/5
f 223/6/5 220/6/5 222/6/5
f 224/4/5 218/4/5 220/4/5
f 224/6/5 220/6/5 223/6/5
f 225/4/5 221/4/5 217/4/5
f 226/6/5 223/6/5 222/6/5
f 227/6/5 223/6/5 226/6/5
f 228/4/5 218/4/5 224/4/5
f 229/4/5 225/4/5 217/4/5
f 229/6/5 228/6/5 227/6/5
f 229/6/5 227/6/5 226/6/5
f 229/6/5 226/6/5 225/6/5
f 230/6/5 228/6/5 229/6/5
f 231/6/5 228/6/5 230/6/5
f 232/4/5 218/4/5 228/4/5
f 232/6/5 228/6/5 231/6/5
f 233/4/5 229/4/5 217/4/5
f 233/4/5 230/4/5 229/4/5
f 234/5/5 231/5/5 230/5/5
f 234/4/5 230/4/5 233/4/5
f 235/4/5 232/4/5 231/4/5
f 235/5/5 231/5/5 234/5/5
f 236/4/5 218/4/5 232/4/5
f 236/4/5 232/4/5 235/4/5
f 241/2/5 238/2/5 237/2/5
f 242/2/5 238/2/5 241/2/5
f 243/2/5 240/2/5 239/2/5
f 244/2/5 240/2/5 243/2/5
f 245/4/6 246/4/6 249/4/6
f 249/4/6 246/4/6 250/4/6
f 247/4/6 248/4/6 251/4/6
f 251/4/6 248/4/6 252/4/6
f 253/3/6 254/3/6 255/3/6
f 255/3/6 254/3/6 256/3/6
f 256/3/6 254/3/6 257/3/6
f 257/3/6 254/3/6 258/3/6
f 253/3/6 255/3/6 259/3/6
f 258/3/6 254/3/6 261/3/6
f 261/3/6 254/3/6 262/3/6
f 259/3/6 260/3/6 263/3/6
f 253/3/6 259/3/6 263/3/6
f 263/3/6 260/3/6 264/3/6
f 262/3/6 254/3/6 265/3/6
f 265/3/6 254/3/6 266/3/6
f 267/3/6 268/3/6 269/3/6
f 267/3/6 269/3/6 271/3/6
f 269/3/6 270/3/6 271/3/6
f 271/3/6 270/3/6 272/3/6
f 272/3/6 270/3/6 273/3/6
f 273/3/6 274/3/6 275/3/6
f 272/3/6 273/3/6 275/3/6
f 275/3/6 274/3/6 276/3/6
