# MagicaVoxel @ Ephtracy

# group
o 

# material
mtllib wse_environment.vox-1639.mtl
usemtl palette

# normals
vn -1 0 0
vn 1 0 0
vn 0 0 1
vn 0 0 -1
vn 0 -1 0
vn 0 1 0

# texcoords
vt 0.568359 0.5
vt 0.591797 0.5

# verts
v 21.3 0.9 7.5
v 21.3 0.9 7.4
v 21.3 0.9 7.3
v 21.3 0.9 7.2
v 21.3 1 7.3
v 21.3 1 7.2
v 21.3 1.1 7.3
v 21.3 1.1 7.2
v 21.3 1.4 7.5
v 21.3 1.4 7.4
v 21.3 1.5 7.5
v 21.3 1.5 7.4
v 21.4 0.9 7.4
v 21.4 0.9 7.3
v 21.4 1 7.3
v 21.4 1.1 7.3
v 21.4 1.2 7.4
v 21.4 1.2 7.3
v 21.4 1.3 7.4
v 21.4 1.3 7.3
v 21.5 0.9 7.5
v 21.5 0.9 7.4
v 21.5 1.1 7.5
v 21.5 1.1 7.4
v 21.5 1.2 7.5
v 21.5 1.2 7.4
v 21.4 0.9 7.5
v 21.4 0.9 7.4
v 21.4 0.9 7.3
v 21.4 0.9 7.2
v 21.4 1 7.3
v 21.4 1 7.2
v 21.4 1.1 7.3
v 21.4 1.1 7.2
v 21.4 1.2 7.4
v 21.4 1.3 7.4
v 21.4 1.4 7.5
v 21.4 1.4 7.4
v 21.4 1.5 7.5
v 21.4 1.5 7.4
v 21.5 0.9 7.4
v 21.5 0.9 7.3
v 21.5 1.1 7.4
v 21.5 1.2 7.4
v 21.5 1.2 7.3
v 21.5 1.3 7.4
v 21.5 1.3 7.3
v 21.6 0.9 7.5
v 21.6 0.9 7.4
v 21.6 1.1 7.5
v 21.6 1.1 7.4
v 21.6 1.2 7.5
v 21.6 1.2 7.4
v 21.3 0.9 7.5
v 21.3 1.4 7.5
v 21.3 1.5 7.5
v 21.4 0.9 7.5
v 21.4 1.4 7.5
v 21.4 1.5 7.5
v 21.5 0.9 7.5
v 21.5 1.1 7.5
v 21.5 1.2 7.5
v 21.6 0.9 7.5
v 21.6 1.1 7.5
v 21.6 1.2 7.5
v 21.4 0.9 7.4
v 21.4 1.2 7.4
v 21.4 1.3 7.4
v 21.5 0.9 7.4
v 21.5 1.1 7.4
v 21.5 1.2 7.4
v 21.5 1.3 7.4
v 21.3 0.9 7.3
v 21.3 1 7.3
v 21.3 1.1 7.3
v 21.4 0.9 7.3
v 21.4 1 7.3
v 21.4 1.1 7.3
v 21.3 0.9 7.4
v 21.3 1.4 7.4
v 21.3 1.5 7.4
v 21.4 0.9 7.4
v 21.4 1.2 7.4
v 21.4 1.3 7.4
v 21.4 1.4 7.4
v 21.4 1.5 7.4
v 21.5 0.9 7.4
v 21.5 1.1 7.4
v 21.5 1.2 7.4
v 21.6 0.9 7.4
v 21.6 1.1 7.4
v 21.6 1.2 7.4
v 21.4 0.9 7.3
v 21.4 1 7.3
v 21.4 1.1 7.3
v 21.4 1.2 7.3
v 21.4 1.3 7.3
v 21.5 0.9 7.3
v 21.5 1.2 7.3
v 21.5 1.3 7.3
v 21.3 0.9 7.2
v 21.3 1 7.2
v 21.3 1.1 7.2
v 21.4 0.9 7.2
v 21.4 1 7.2
v 21.4 1.1 7.2
v 21.3 0.9 7.5
v 21.4 0.9 7.5
v 21.5 0.9 7.5
v 21.6 0.9 7.5
v 21.3 0.9 7.4
v 21.4 0.9 7.4
v 21.5 0.9 7.4
v 21.6 0.9 7.4
v 21.3 0.9 7.3
v 21.4 0.9 7.3
v 21.5 0.9 7.3
v 21.3 0.9 7.2
v 21.4 0.9 7.2
v 21.3 1.1 7.3
v 21.4 1.1 7.3
v 21.3 1.1 7.2
v 21.4 1.1 7.2
v 21.5 1.2 7.5
v 21.6 1.2 7.5
v 21.5 1.2 7.4
v 21.6 1.2 7.4
v 21.4 1.3 7.4
v 21.5 1.3 7.4
v 21.4 1.3 7.3
v 21.5 1.3 7.3
v 21.3 1.5 7.5
v 21.4 1.5 7.5
v 21.3 1.5 7.4
v 21.4 1.5 7.4

# faces
f 5/2/1 4/2/1 3/2/1
f 6/2/1 4/2/1 5/2/1
f 7/1/1 6/1/1 5/1/1
f 8/1/1 6/1/1 7/1/1
f 9/2/1 2/2/1 1/2/1
f 10/2/1 2/2/1 9/2/1
f 11/1/1 10/1/1 9/1/1
f 12/1/1 10/1/1 11/1/1
f 15/2/1 14/2/1 13/2/1
f 16/2/1 15/2/1 13/2/1
f 17/2/1 16/2/1 13/2/1
f 18/2/1 16/2/1 17/2/1
f 19/1/1 18/1/1 17/1/1
f 20/1/1 18/1/1 19/1/1
f 23/2/1 22/2/1 21/2/1
f 24/2/1 22/2/1 23/2/1
f 25/1/1 24/1/1 23/1/1
f 26/1/1 24/1/1 25/1/1
f 29/2/2 30/2/2 31/2/2
f 31/2/2 30/2/2 32/2/2
f 31/1/2 32/1/2 33/1/2
f 33/1/2 32/1/2 34/1/2
f 27/2/2 28/2/2 35/2/2
f 27/2/2 35/2/2 36/2/2
f 27/2/2 36/2/2 37/2/2
f 37/2/2 36/2/2 38/2/2
f 37/1/2 38/1/2 39/1/2
f 39/1/2 38/1/2 40/1/2
f 41/2/2 42/2/2 43/2/2
f 43/2/2 42/2/2 44/2/2
f 44/2/2 42/2/2 45/2/2
f 44/1/2 45/1/2 46/1/2
f 46/1/2 45/1/2 47/1/2
f 48/2/2 49/2/2 50/2/2
f 50/2/2 49/2/2 51/2/2
f 50/1/2 51/1/2 52/1/2
f 52/1/2 51/1/2 53/1/2
f 57/2/3 55/2/3 54/2/3
f 58/1/3 56/1/3 55/1/3
f 58/2/3 55/2/3 57/2/3
f 59/1/3 56/1/3 58/1/3
f 63/2/3 61/2/3 60/2/3
f 64/1/3 62/1/3 61/1/3
f 64/2/3 61/2/3 63/2/3
f 65/1/3 62/1/3 64/1/3
f 69/2/3 67/2/3 66/2/3
f 70/2/3 67/2/3 69/2/3
f 71/1/3 68/1/3 67/1/3
f 71/2/3 67/2/3 70/2/3
f 72/1/3 68/1/3 71/1/3
f 76/2/3 74/2/3 73/2/3
f 77/1/3 75/1/3 74/1/3
f 77/2/3 74/2/3 76/2/3
f 78/1/3 75/1/3 77/1/3
f 79/2/4 80/2/4 82/2/4
f 82/2/4 80/2/4 83/2/4
f 83/2/4 80/2/4 84/2/4
f 80/1/4 81/1/4 85/1/4
f 84/2/4 80/2/4 85/2/4
f 85/1/4 81/1/4 86/1/4
f 87/2/4 88/2/4 90/2/4
f 88/1/4 89/1/4 91/1/4
f 90/2/4 88/2/4 91/2/4
f 91/1/4 89/1/4 92/1/4
f 93/2/4 94/2/4 98/2/4
f 94/2/4 95/2/4 98/2/4
f 95/2/4 96/2/4 98/2/4
f 96/1/4 97/1/4 99/1/4
f 98/2/4 96/2/4 99/2/4
f 99/1/4 97/1/4 100/1/4
f 101/2/4 102/2/4 104/2/4
f 102/1/4 103/1/4 105/1/4
f 104/2/4 102/2/4 105/2/4
f 105/1/4 103/1/4 106/1/4
f 111/2/5 108/2/5 107/2/5
f 112/2/5 108/2/5 111/2/5
f 113/2/5 110/2/5 109/2/5
f 114/2/5 110/2/5 113/2/5
f 116/2/5 113/2/5 112/2/5
f 117/2/5 113/2/5 116/2/5
f 118/2/5 116/2/5 115/2/5
f 119/2/5 116/2/5 118/2/5
f 120/1/6 121/1/6 122/1/6
f 122/1/6 121/1/6 123/1/6
f 124/1/6 125/1/6 126/1/6
f 126/1/6 125/1/6 127/1/6
f 128/1/6 129/1/6 130/1/6
f 130/1/6 129/1/6 131/1/6
f 132/1/6 133/1/6 134/1/6
f 134/1/6 133/1/6 135/1/6
