# MagicaVoxel @ Ephtracy

# group
o 

# material
mtllib wse_environment.vox-4018.mtl
usemtl palette

# normals
vn 1 0 0
vn -1 0 0
vn 0 0 -1
vn 0 0 1
vn 0 -1 0
vn 0 1 0

# texcoords
vt 0.353516 0.5
vt 0.583984 0.5

# verts
v 36.7 0 -24.2
v 36.7 0 -23.7
v 36.7 0.3 -24.2
v 36.7 0.3 -23.7
v 36.6 0 -24.5
v 36.6 0 -24.2
v 36.6 0.3 -24.5
v 36.6 0.3 -24.2
v 36.6 0.3 -23.7
v 36.6 0.5 -24.2
v 36.6 0.5 -23.7
v 36.5 0 -24.7
v 36.5 0 -24.5
v 36.5 0.3 -24.7
v 36.5 0.3 -24.5
v 36.5 0.3 -24.2
v 36.5 0.5 -24.5
v 36.5 0.5 -24.2
v 36.4 0 -24.9
v 36.4 0 -24.7
v 36.4 0.3 -24.9
v 36.4 0.3 -24.7
v 36.4 0.3 -24.5
v 36.4 0.5 -24.7
v 36.4 0.5 -24.5
v 36.4 0.5 -24.2
v 36.4 0.5 -23.7
v 36.4 0.6 -24.2
v 36.4 0.6 -23.7
v 36.3 0 -25
v 36.3 0 -24.9
v 36.3 0.3 -25
v 36.3 0.3 -24.9
v 36.3 0.3 -24.8
v 36.3 0.3 -24.7
v 36.3 0.5 -24.8
v 36.3 0.5 -24.7
v 36.3 0.5 -24.4
v 36.3 0.5 -24.2
v 36.3 0.6 -24.4
v 36.3 0.6 -24.2
v 36.2 0 -25.1
v 36.2 0 -25
v 36.2 0.3 -25.1
v 36.2 0.3 -25
v 36.2 0.3 -24.8
v 36.2 0.5 -25
v 36.2 0.5 -24.8
v 36.2 0.5 -24.6
v 36.2 0.5 -24.4
v 36.2 0.6 -24.6
v 36.2 0.6 -24.4
v 36.2 0.6 -24.1
v 36.2 0.6 -23.7
v 36.2 0.7 -24.1
v 36.2 0.7 -23.7
v 36.1 0 -25.2
v 36.1 0 -25.1
v 36.1 0.3 -25.2
v 36.1 0.3 -25.1
v 36.1 0.3 -25
v 36.1 0.5 -25.1
v 36.1 0.5 -25
v 36.1 0.5 -24.8
v 36.1 0.5 -24.6
v 36.1 0.6 -24.8
v 36.1 0.6 -24.6
v 36.1 0.6 -24.4
v 36.1 0.6 -24.1
v 36.1 0.7 -24.4
v 36.1 0.7 -24.1
v 36 0 -25.3
v 36 0 -25.2
v 36 0.3 -25.3
v 36 0.3 -25.2
v 36 0.3 -25.1
v 36 0.5 -25.2
v 36 0.5 -25.1
v 36 0.5 -24.9
v 36 0.5 -24.8
v 36 0.6 -24.9
v 36 0.6 -24.8
v 36 0.6 -24.6
v 36 0.6 -24.4
v 36 0.7 -24.6
v 36 0.7 -24.4
v 35.9 0 -25.4
v 35.9 0 -25.3
v 35.9 0.3 -25.4
v 35.9 0.3 -25.3
v 35.9 0.5 -25
v 35.9 0.5 -24.9
v 35.9 0.6 -25
v 35.9 0.6 -24.9
v 35.9 0.6 -24.7
v 35.9 0.6 -24.6
v 35.9 0.7 -24.7
v 35.9 0.7 -24.6
v 35.9 0.7 -24.1
v 35.9 0.7 -23.7
v 35.9 0.8 -24.1
v 35.9 0.8 -23.7
v 35.8 0.3 -25.3
v 35.8 0.3 -25.2
v 35.8 0.5 -25.3
v 35.8 0.5 -25.2
v 35.8 0.5 -25.1
v 35.8 0.5 -25
v 35.8 0.6 -25.1
v 35.8 0.6 -25
v 35.8 0.6 -24.8
v 35.8 0.6 -24.7
v 35.8 0.7 -24.8
v 35.8 0.7 -24.7
v 35.8 0.7 -24.3
v 35.8 0.7 -24.1
v 35.8 0.8 -24.3
v 35.8 0.8 -24.1
v 35.7 0 -25.5
v 35.7 0 -25.4
v 35.7 0.3 -25.5
v 35.7 0.3 -25.4
v 35.7 0.3 -25.3
v 35.7 0.5 -25.4
v 35.7 0.5 -25.3
v 35.7 0.6 -24.9
v 35.7 0.6 -24.8
v 35.7 0.7 -24.9
v 35.7 0.7 -24.8
v 35.7 0.7 -24.5
v 35.7 0.7 -24.3
v 35.7 0.8 -24.5
v 35.7 0.8 -24.3
v 35.6 0.5 -25.2
v 35.6 0.5 -25.1
v 35.6 0.6 -25.2
v 35.6 0.6 -25.1
v 35.6 0.6 -25
v 35.6 0.6 -24.9
v 35.6 0.7 -25
v 35.6 0.7 -24.9
v 35.6 0.7 -24.6
v 35.6 0.7 -24.5
v 35.6 0.8 -24.6
v 35.6 0.8 -24.5
v 35.6 0.8 -24
v 35.6 0.8 -23.7
v 35.6 0.9 -24
v 35.6 0.9 -23.7
v 35.5 0 -25.6
v 35.5 0 -25.5
v 35.5 0.3 -25.6
v 35.5 0.3 -25.5
v 35.5 0.3 -25.4
v 35.5 0.5 -25.5
v 35.5 0.5 -25.4
v 35.5 0.7 -24.7
v 35.5 0.7 -24.6
v 35.5 0.8 -24.7
v 35.5 0.8 -24.6
v 35.5 0.8 -24.2
v 35.5 0.8 -24
v 35.5 0.9 -24.2
v 35.5 0.9 -24
v 35.4 0.5 -25.3
v 35.4 0.5 -25.2
v 35.4 0.6 -25.3
v 35.4 0.6 -25.2
v 35.4 0.6 -25.1
v 35.4 0.6 -25
v 35.4 0.7 -25.1
v 35.4 0.7 -25
v 35.4 0.8 -24.4
v 35.4 0.8 -24.2
v 35.4 0.9 -24.4
v 35.4 0.9 -24.2
v 35.3 0.7 -24.8
v 35.3 0.7 -24.7
v 35.3 0.8 -24.8
v 35.3 0.8 -24.7
v 35.2 0 -25.7
v 35.2 0 -25.6
v 35.2 0.3 -25.7
v 35.2 0.3 -25.6
v 35.2 0.3 -25.5
v 35.2 0.5 -25.6
v 35.2 0.5 -25.5
v 35.2 0.5 -25.4
v 35.2 0.5 -25.3
v 35.2 0.6 -25.4
v 35.2 0.6 -25.3
v 35.2 0.8 -24.5
v 35.2 0.8 -24.4
v 35.2 0.9 -24.5
v 35.2 0.9 -24.4
v 35.1 0.6 -25.2
v 35.1 0.6 -25.1
v 35.1 0.7 -25.2
v 35.1 0.7 -25.1
v 35.1 0.7 -24.9
v 35.1 0.7 -24.8
v 35.1 0.8 -24.9
v 35.1 0.8 -24.8
v 35 0.8 -24.6
v 35 0.8 -24.5
v 35 0.9 -24.6
v 35 0.9 -24.5
v 34.7 0 -25.7
v 34.7 0 -23.7
v 34.7 0.3 -25.7
v 34.7 0.3 -25.6
v 34.7 0.5 -25.6
v 34.7 0.5 -25.4
v 34.7 0.6 -25.4
v 34.7 0.6 -25.2
v 34.7 0.7 -25.2
v 34.7 0.7 -24.9
v 34.7 0.8 -24.9
v 34.7 0.8 -24.6
v 34.7 0.8 -24.4
v 34.7 0.8 -23.7
v 34.7 0.9 -24.6
v 34.7 0.9 -24.4
v 34.7 0.9 -23.7
v 35.2 0 -25.7
v 35.2 0.3 -25.7
v 34.7 0 -25.7
v 34.7 0.3 -25.7
v 35.5 0 -25.6
v 35.5 0.3 -25.6
v 35.2 0 -25.6
v 35.2 0.3 -25.6
v 35.2 0.5 -25.6
v 34.7 0.3 -25.6
v 34.7 0.5 -25.6
v 35.7 0 -25.5
v 35.7 0.3 -25.5
v 35.5 0 -25.5
v 35.5 0.3 -25.5
v 35.5 0.5 -25.5
v 35.2 0.3 -25.5
v 35.2 0.5 -25.5
v 35.9 0 -25.4
v 35.9 0.3 -25.4
v 35.7 0 -25.4
v 35.7 0.3 -25.4
v 35.7 0.5 -25.4
v 35.5 0.3 -25.4
v 35.5 0.5 -25.4
v 35.2 0.5 -25.4
v 35.2 0.6 -25.4
v 34.7 0.5 -25.4
v 34.7 0.6 -25.4
v 36 0 -25.3
v 36 0.3 -25.3
v 35.9 0 -25.3
v 35.9 0.3 -25.3
v 35.8 0.3 -25.3
v 35.8 0.5 -25.3
v 35.7 0.3 -25.3
v 35.7 0.5 -25.3
v 35.4 0.5 -25.3
v 35.4 0.6 -25.3
v 35.2 0.5 -25.3
v 35.2 0.6 -25.3
v 36.1 0 -25.2
v 36.1 0.3 -25.2
v 36 0 -25.2
v 36 0.3 -25.2
v 36 0.5 -25.2
v 35.8 0.3 -25.2
v 35.8 0.5 -25.2
v 35.6 0.5 -25.2
v 35.6 0.6 -25.2
v 35.4 0.5 -25.2
v 35.4 0.6 -25.2
v 35.1 0.6 -25.2
v 35.1 0.7 -25.2
v 34.7 0.6 -25.2
v 34.7 0.7 -25.2
v 36.2 0 -25.1
v 36.2 0.3 -25.1
v 36.1 0 -25.1
v 36.1 0.3 -25.1
v 36.1 0.5 -25.1
v 36 0.3 -25.1
v 36 0.5 -25.1
v 35.8 0.5 -25.1
v 35.8 0.6 -25.1
v 35.6 0.5 -25.1
v 35.6 0.6 -25.1
v 35.4 0.6 -25.1
v 35.4 0.7 -25.1
v 35.1 0.6 -25.1
v 35.1 0.7 -25.1
v 36.3 0 -25
v 36.3 0.3 -25
v 36.2 0 -25
v 36.2 0.3 -25
v 36.2 0.5 -25
v 36.1 0.3 -25
v 36.1 0.5 -25
v 35.9 0.5 -25
v 35.9 0.6 -25
v 35.8 0.5 -25
v 35.8 0.6 -25
v 35.6 0.6 -25
v 35.6 0.7 -25
v 35.4 0.6 -25
v 35.4 0.7 -25
v 36.4 0 -24.9
v 36.4 0.3 -24.9
v 36.3 0 -24.9
v 36.3 0.3 -24.9
v 36 0.5 -24.9
v 36 0.6 -24.9
v 35.9 0.5 -24.9
v 35.9 0.6 -24.9
v 35.7 0.6 -24.9
v 35.7 0.7 -24.9
v 35.6 0.6 -24.9
v 35.6 0.7 -24.9
v 35.1 0.7 -24.9
v 35.1 0.8 -24.9
v 34.7 0.7 -24.9
v 34.7 0.8 -24.9
v 36.3 0.3 -24.8
v 36.3 0.5 -24.8
v 36.2 0.3 -24.8
v 36.2 0.5 -24.8
v 36.1 0.5 -24.8
v 36.1 0.6 -24.8
v 36 0.5 -24.8
v 36 0.6 -24.8
v 35.8 0.6 -24.8
v 35.8 0.7 -24.8
v 35.7 0.6 -24.8
v 35.7 0.7 -24.8
v 35.3 0.7 -24.8
v 35.3 0.8 -24.8
v 35.1 0.7 -24.8
v 35.1 0.8 -24.8
v 36.5 0 -24.7
v 36.5 0.3 -24.7
v 36.4 0 -24.7
v 36.4 0.3 -24.7
v 36.4 0.5 -24.7
v 36.3 0.3 -24.7
v 36.3 0.5 -24.7
v 35.9 0.6 -24.7
v 35.9 0.7 -24.7
v 35.8 0.6 -24.7
v 35.8 0.7 -24.7
v 35.5 0.7 -24.7
v 35.5 0.8 -24.7
v 35.3 0.7 -24.7
v 35.3 0.8 -24.7
v 36.2 0.5 -24.6
v 36.2 0.6 -24.6
v 36.1 0.5 -24.6
v 36.1 0.6 -24.6
v 36 0.6 -24.6
v 36 0.7 -24.6
v 35.9 0.6 -24.6
v 35.9 0.7 -24.6
v 35.6 0.7 -24.6
v 35.6 0.8 -24.6
v 35.5 0.7 -24.6
v 35.5 0.8 -24.6
v 35 0.8 -24.6
v 35 0.9 -24.6
v 34.7 0.8 -24.6
v 34.7 0.9 -24.6
v 36.6 0 -24.5
v 36.6 0.3 -24.5
v 36.5 0 -24.5
v 36.5 0.3 -24.5
v 36.5 0.5 -24.5
v 36.4 0.3 -24.5
v 36.4 0.5 -24.5
v 35.7 0.7 -24.5
v 35.7 0.8 -24.5
v 35.6 0.7 -24.5
v 35.6 0.8 -24.5
v 35.2 0.8 -24.5
v 35.2 0.9 -24.5
v 35 0.8 -24.5
v 35 0.9 -24.5
v 36.3 0.5 -24.4
v 36.3 0.6 -24.4
v 36.2 0.5 -24.4
v 36.2 0.6 -24.4
v 36.1 0.6 -24.4
v 36.1 0.7 -24.4
v 36 0.6 -24.4
v 36 0.7 -24.4
v 35.4 0.8 -24.4
v 35.4 0.9 -24.4
v 35.2 0.8 -24.4
v 35.2 0.9 -24.4
v 35.8 0.7 -24.3
v 35.8 0.8 -24.3
v 35.7 0.7 -24.3
v 35.7 0.8 -24.3
v 36.7 0 -24.2
v 36.7 0.3 -24.2
v 36.6 0 -24.2
v 36.6 0.3 -24.2
v 36.6 0.5 -24.2
v 36.5 0.3 -24.2
v 36.5 0.5 -24.2
v 36.4 0.5 -24.2
v 36.4 0.6 -24.2
v 36.3 0.5 -24.2
v 36.3 0.6 -24.2
v 35.5 0.8 -24.2
v 35.5 0.9 -24.2
v 35.4 0.8 -24.2
v 35.4 0.9 -24.2
v 36.2 0.6 -24.1
v 36.2 0.7 -24.1
v 36.1 0.6 -24.1
v 36.1 0.7 -24.1
v 35.9 0.7 -24.1
v 35.9 0.8 -24.1
v 35.8 0.7 -24.1
v 35.8 0.8 -24.1
v 35.6 0.8 -24
v 35.6 0.9 -24
v 35.5 0.8 -24
v 35.5 0.9 -24
v 36.7 0 -23.7
v 36.7 0.3 -23.7
v 36.6 0.3 -23.7
v 36.6 0.5 -23.7
v 36.4 0.5 -23.7
v 36.4 0.6 -23.7
v 36.2 0.6 -23.7
v 36.2 0.7 -23.7
v 35.9 0.7 -23.7
v 35.9 0.8 -23.7
v 35.6 0.8 -23.7
v 35.6 0.9 -23.7
v 35.4 0.8 -23.7
v 35.4 0.9 -23.7
v 34.7 0 -23.7
v 34.7 0.8 -23.7
v 34.7 0.9 -23.7
v 35.2 0 -25.7
v 34.7 0 -25.7
v 35.5 0 -25.6
v 35.2 0 -25.6
v 35.7 0 -25.5
v 35.5 0 -25.5
v 35.9 0 -25.4
v 35.7 0 -25.4
v 36 0 -25.3
v 35.9 0 -25.3
v 36.1 0 -25.2
v 36 0 -25.2
v 36.2 0 -25.1
v 36.1 0 -25.1
v 36.3 0 -25
v 36.2 0 -25
v 36.4 0 -24.9
v 36.3 0 -24.9
v 36.5 0 -24.7
v 36.4 0 -24.7
v 36.6 0 -24.5
v 36.5 0 -24.5
v 36.7 0 -24.2
v 36.6 0 -24.2
v 36.7 0 -23.7
v 34.7 0 -23.7
v 35.2 0.3 -25.7
v 34.7 0.3 -25.7
v 35.5 0.3 -25.6
v 35.2 0.3 -25.6
v 34.7 0.3 -25.6
v 35.7 0.3 -25.5
v 35.5 0.3 -25.5
v 35.2 0.3 -25.5
v 35.9 0.3 -25.4
v 35.7 0.3 -25.4
v 35.5 0.3 -25.4
v 36 0.3 -25.3
v 35.9 0.3 -25.3
v 35.8 0.3 -25.3
v 35.7 0.3 -25.3
v 36.1 0.3 -25.2
v 36 0.3 -25.2
v 35.8 0.3 -25.2
v 36.2 0.3 -25.1
v 36.1 0.3 -25.1
v 36 0.3 -25.1
v 36.3 0.3 -25
v 36.2 0.3 -25
v 36.1 0.3 -25
v 36.4 0.3 -24.9
v 36.3 0.3 -24.9
v 36.3 0.3 -24.8
v 36.2 0.3 -24.8
v 36.5 0.3 -24.7
v 36.4 0.3 -24.7
v 36.3 0.3 -24.7
v 36.6 0.3 -24.5
v 36.5 0.3 -24.5
v 36.4 0.3 -24.5
v 36.7 0.3 -24.2
v 36.6 0.3 -24.2
v 36.5 0.3 -24.2
v 36.7 0.3 -23.7
v 36.6 0.3 -23.7
v 35.2 0.5 -25.6
v 34.7 0.5 -25.6
v 35.5 0.5 -25.5
v 35.2 0.5 -25.5
v 35.7 0.5 -25.4
v 35.5 0.5 -25.4
v 35.2 0.5 -25.4
v 34.7 0.5 -25.4
v 35.8 0.5 -25.3
v 35.7 0.5 -25.3
v 35.4 0.5 -25.3
v 35.2 0.5 -25.3
v 36 0.5 -25.2
v 35.8 0.5 -25.2
v 35.6 0.5 -25.2
v 35.4 0.5 -25.2
v 36.1 0.5 -25.1
v 36 0.5 -25.1
v 35.8 0.5 -25.1
v 35.6 0.5 -25.1
v 36.2 0.5 -25
v 36.1 0.5 -25
v 35.9 0.5 -25
v 35.8 0.5 -25
v 36 0.5 -24.9
v 35.9 0.5 -24.9
v 36.3 0.5 -24.8
v 36.2 0.5 -24.8
v 36.1 0.5 -24.8
v 36 0.5 -24.8
v 36.4 0.5 -24.7
v 36.3 0.5 -24.7
v 36.2 0.5 -24.6
v 36.1 0.5 -24.6
v 36.5 0.5 -24.5
v 36.4 0.5 -24.5
v 36.3 0.5 -24.4
v 36.2 0.5 -24.4
v 36.6 0.5 -24.2
v 36.5 0.5 -24.2
v 36.4 0.5 -24.2
v 36.3 0.5 -24.2
v 36.6 0.5 -23.7
v 36.4 0.5 -23.7
v 35.2 0.6 -25.4
v 34.7 0.6 -25.4
v 35.4 0.6 -25.3
v 35.2 0.6 -25.3
v 35.6 0.6 -25.2
v 35.4 0.6 -25.2
v 35.1 0.6 -25.2
v 34.7 0.6 -25.2
v 35.8 0.6 -25.1
v 35.6 0.6 -25.1
v 35.4 0.6 -25.1
v 35.1 0.6 -25.1
v 35.9 0.6 -25
v 35.8 0.6 -25
v 35.6 0.6 -25
v 35.4 0.6 -25
v 36 0.6 -24.9
v 35.9 0.6 -24.9
v 35.7 0.6 -24.9
v 35.6 0.6 -24.9
v 36.1 0.6 -24.8
v 36 0.6 -24.8
v 35.8 0.6 -24.8
v 35.7 0.6 -24.8
v 35.9 0.6 -24.7
v 35.8 0.6 -24.7
v 36.2 0.6 -24.6
v 36.1 0.6 -24.6
v 36 0.6 -24.6
v 35.9 0.6 -24.6
v 36.3 0.6 -24.4
v 36.2 0.6 -24.4
v 36.1 0.6 -24.4
v 36 0.6 -24.4
v 36.4 0.6 -24.2
v 36.3 0.6 -24.2
v 36.2 0.6 -24.1
v 36.1 0.6 -24.1
v 36.4 0.6 -23.7
v 36.2 0.6 -23.7
v 35.1 0.7 -25.2
v 34.7 0.7 -25.2
v 35.4 0.7 -25.1
v 35.1 0.7 -25.1
v 35.6 0.7 -25
v 35.4 0.7 -25
v 35.7 0.7 -24.9
v 35.6 0.7 -24.9
v 35.1 0.7 -24.9
v 34.7 0.7 -24.9
v 35.8 0.7 -24.8
v 35.7 0.7 -24.8
v 35.3 0.7 -24.8
v 35.1 0.7 -24.8
v 35.9 0.7 -24.7
v 35.8 0.7 -24.7
v 35.5 0.7 -24.7
v 35.3 0.7 -24.7
v 36 0.7 -24.6
v 35.9 0.7 -24.6
v 35.6 0.7 -24.6
v 35.5 0.7 -24.6
v 35.7 0.7 -24.5
v 35.6 0.7 -24.5
v 36.1 0.7 -24.4
v 36 0.7 -24.4
v 35.8 0.7 -24.3
v 35.7 0.7 -24.3
v 36.2 0.7 -24.1
v 36.1 0.7 -24.1
v 35.9 0.7 -24.1
v 35.8 0.7 -24.1
v 36.2 0.7 -23.7
v 35.9 0.7 -23.7
v 35.1 0.8 -24.9
v 34.7 0.8 -24.9
v 35.3 0.8 -24.8
v 35.1 0.8 -24.8
v 35.5 0.8 -24.7
v 35.3 0.8 -24.7
v 35.6 0.8 -24.6
v 35.5 0.8 -24.6
v 35 0.8 -24.6
v 34.7 0.8 -24.6
v 35.7 0.8 -24.5
v 35.6 0.8 -24.5
v 35.2 0.8 -24.5
v 35 0.8 -24.5
v 35.4 0.8 -24.4
v 35.2 0.8 -24.4
v 35.8 0.8 -24.3
v 35.7 0.8 -24.3
v 35.5 0.8 -24.2
v 35.4 0.8 -24.2
v 35.9 0.8 -24.1
v 35.8 0.8 -24.1
v 35.6 0.8 -24
v 35.5 0.8 -24
v 35.9 0.8 -23.7
v 35.6 0.8 -23.7
v 35 0.9 -24.6
v 34.7 0.9 -24.6
v 35.2 0.9 -24.5
v 35 0.9 -24.5
v 35.4 0.9 -24.4
v 35.2 0.9 -24.4
v 35 0.9 -24.4
v 34.7 0.9 -24.4
v 35.2 0.9 -24.3
v 35 0.9 -24.3
v 35.5 0.9 -24.2
v 35.4 0.9 -24.2
v 35.3 0.9 -24.2
v 35.2 0.9 -24.2
v 35.6 0.9 -24
v 35.5 0.9 -24
v 35.4 0.9 -24
v 35.3 0.9 -24
v 35.6 0.9 -23.7
v 35.4 0.9 -23.7
v 34.7 0.9 -23.7

# faces
f 3/1/1 2/1/1 1/1/1
f 4/1/1 2/1/1 3/1/1
f 7/1/1 6/1/1 5/1/1
f 8/1/1 6/1/1 7/1/1
f 10/1/1 9/1/1 8/1/1
f 11/1/1 9/1/1 10/1/1
f 14/1/1 13/1/1 12/1/1
f 15/1/1 13/1/1 14/1/1
f 17/1/1 16/1/1 15/1/1
f 18/1/1 16/1/1 17/1/1
f 21/1/1 20/1/1 19/1/1
f 22/1/1 20/1/1 21/1/1
f 24/1/1 23/1/1 22/1/1
f 25/1/1 23/1/1 24/1/1
f 28/1/1 27/1/1 26/1/1
f 29/1/1 27/1/1 28/1/1
f 32/1/1 31/1/1 30/1/1
f 33/1/1 31/1/1 32/1/1
f 36/1/1 35/1/1 34/1/1
f 37/1/1 35/1/1 36/1/1
f 40/1/1 39/1/1 38/1/1
f 41/1/1 39/1/1 40/1/1
f 44/1/1 43/1/1 42/1/1
f 45/1/1 43/1/1 44/1/1
f 47/1/1 46/1/1 45/1/1
f 48/1/1 46/1/1 47/1/1
f 51/1/1 50/1/1 49/1/1
f 52/1/1 50/1/1 51/1/1
f 55/1/1 54/1/1 53/1/1
f 56/1/1 54/1/1 55/1/1
f 59/1/1 58/1/1 57/1/1
f 60/1/1 58/1/1 59/1/1
f 62/1/1 61/1/1 60/1/1
f 63/1/1 61/1/1 62/1/1
f 66/1/1 65/1/1 64/1/1
f 67/1/1 65/1/1 66/1/1
f 70/1/1 69/1/1 68/1/1
f 71/1/1 69/1/1 70/1/1
f 74/1/1 73/1/1 72/1/1
f 75/1/1 73/1/1 74/1/1
f 77/1/1 76/1/1 75/1/1
f 78/1/1 76/1/1 77/1/1
f 81/1/1 80/1/1 79/1/1
f 82/1/1 80/1/1 81/1/1
f 85/1/1 84/1/1 83/1/1
f 86/1/1 84/1/1 85/1/1
f 89/1/1 88/1/1 87/1/1
f 90/1/1 88/1/1 89/1/1
f 93/1/1 92/1/1 91/1/1
f 94/1/1 92/1/1 93/1/1
f 97/1/1 96/1/1 95/1/1
f 98/1/1 96/1/1 97/1/1
f 101/1/1 100/1/1 99/1/1
f 102/1/1 100/1/1 101/1/1
f 105/1/1 104/1/1 103/1/1
f 106/1/1 104/1/1 105/1/1
f 109/1/1 108/1/1 107/1/1
f 110/1/1 108/1/1 109/1/1
f 113/1/1 112/1/1 111/1/1
f 114/1/1 112/1/1 113/1/1
f 117/1/1 116/1/1 115/1/1
f 118/1/1 116/1/1 117/1/1
f 121/1/1 120/1/1 119/1/1
f 122/1/1 120/1/1 121/1/1
f 124/1/1 123/1/1 122/1/1
f 125/1/1 123/1/1 124/1/1
f 128/1/1 127/1/1 126/1/1
f 129/1/1 127/1/1 128/1/1
f 132/1/1 131/1/1 130/1/1
f 133/1/1 131/1/1 132/1/1
f 136/1/1 135/1/1 134/1/1
f 137/1/1 135/1/1 136/1/1
f 140/1/1 139/1/1 138/1/1
f 141/1/1 139/1/1 140/1/1
f 144/1/1 143/1/1 142/1/1
f 145/1/1 143/1/1 144/1/1
f 148/1/1 147/1/1 146/1/1
f 149/1/1 147/1/1 148/1/1
f 152/1/1 151/1/1 150/1/1
f 153/1/1 151/1/1 152/1/1
f 155/1/1 154/1/1 153/1/1
f 156/1/1 154/1/1 155/1/1
f 159/1/1 158/1/1 157/1/1
f 160/1/1 158/1/1 159/1/1
f 163/1/1 162/1/1 161/1/1
f 164/1/1 162/1/1 163/1/1
f 167/1/1 166/1/1 165/1/1
f 168/1/1 166/1/1 167/1/1
f 171/1/1 170/1/1 169/1/1
f 172/1/1 170/1/1 171/1/1
f 175/1/1 174/1/1 173/1/1
f 176/1/1 174/1/1 175/1/1
f 179/1/1 178/1/1 177/1/1
f 180/1/1 178/1/1 179/1/1
f 183/1/1 182/1/1 181/1/1
f 184/1/1 182/1/1 183/1/1
f 186/1/1 185/1/1 184/1/1
f 187/1/1 185/1/1 186/1/1
f 190/1/1 189/1/1 188/1/1
f 191/1/1 189/1/1 190/1/1
f 194/1/1 193/1/1 192/1/1
f 195/1/1 193/1/1 194/1/1
f 198/1/1 197/1/1 196/1/1
f 199/1/1 197/1/1 198/1/1
f 202/1/1 201/1/1 200/1/1
f 203/1/1 201/1/1 202/1/1
f 206/1/1 205/1/1 204/1/1
f 207/1/1 205/1/1 206/1/1
f 208/1/2 209/1/2 210/1/2
f 210/1/2 209/1/2 211/1/2
f 211/1/2 209/1/2 212/1/2
f 212/1/2 209/1/2 213/1/2
f 213/1/2 209/1/2 214/1/2
f 214/1/2 209/1/2 215/1/2
f 215/1/2 209/1/2 216/1/2
f 216/1/2 209/1/2 217/1/2
f 217/1/2 209/1/2 218/1/2
f 218/1/2 209/1/2 219/1/2
f 219/1/2 209/1/2 220/1/2
f 220/1/2 209/1/2 221/1/2
f 219/1/2 220/1/2 222/1/2
f 220/2/2 221/2/2 223/2/2
f 222/1/2 220/1/2 223/1/2
f 223/2/2 221/2/2 224/2/2
f 227/1/3 226/1/3 225/1/3
f 228/1/3 226/1/3 227/1/3
f 231/1/3 230/1/3 229/1/3
f 232/1/3 230/1/3 231/1/3
f 234/1/3 233/1/3 232/1/3
f 235/1/3 233/1/3 234/1/3
f 238/1/3 237/1/3 236/1/3
f 239/1/3 237/1/3 238/1/3
f 241/1/3 240/1/3 239/1/3
f 242/1/3 240/1/3 241/1/3
f 245/1/3 244/1/3 243/1/3
f 246/1/3 244/1/3 245/1/3
f 248/1/3 247/1/3 246/1/3
f 249/1/3 247/1/3 248/1/3
f 252/1/3 251/1/3 250/1/3
f 253/1/3 251/1/3 252/1/3
f 256/1/3 255/1/3 254/1/3
f 257/1/3 255/1/3 256/1/3
f 260/1/3 259/1/3 258/1/3
f 261/1/3 259/1/3 260/1/3
f 264/1/3 263/1/3 262/1/3
f 265/1/3 263/1/3 264/1/3
f 268/1/3 267/1/3 266/1/3
f 269/1/3 267/1/3 268/1/3
f 271/1/3 270/1/3 269/1/3
f 272/1/3 270/1/3 271/1/3
f 275/1/3 274/1/3 273/1/3
f 276/1/3 274/1/3 275/1/3
f 279/1/3 278/1/3 277/1/3
f 280/1/3 278/1/3 279/1/3
f 283/1/3 282/1/3 281/1/3
f 284/1/3 282/1/3 283/1/3
f 286/1/3 285/1/3 284/1/3
f 287/1/3 285/1/3 286/1/3
f 290/1/3 289/1/3 288/1/3
f 291/1/3 289/1/3 290/1/3
f 294/1/3 293/1/3 292/1/3
f 295/1/3 293/1/3 294/1/3
f 298/1/3 297/1/3 296/1/3
f 299/1/3 297/1/3 298/1/3
f 301/1/3 300/1/3 299/1/3
f 302/1/3 300/1/3 301/1/3
f 305/1/3 304/1/3 303/1/3
f 306/1/3 304/1/3 305/1/3
f 309/1/3 308/1/3 307/1/3
f 310/1/3 308/1/3 309/1/3
f 313/1/3 312/1/3 311/1/3
f 314/1/3 312/1/3 313/1/3
f 317/1/3 316/1/3 315/1/3
f 318/1/3 316/1/3 317/1/3
f 321/1/3 320/1/3 319/1/3
f 322/1/3 320/1/3 321/1/3
f 325/1/3 324/1/3 323/1/3
f 326/1/3 324/1/3 325/1/3
f 329/1/3 328/1/3 327/1/3
f 330/1/3 328/1/3 329/1/3
f 333/1/3 332/1/3 331/1/3
f 334/1/3 332/1/3 333/1/3
f 337/1/3 336/1/3 335/1/3
f 338/1/3 336/1/3 337/1/3
f 341/1/3 340/1/3 339/1/3
f 342/1/3 340/1/3 341/1/3
f 345/1/3 344/1/3 343/1/3
f 346/1/3 344/1/3 345/1/3
f 348/1/3 347/1/3 346/1/3
f 349/1/3 347/1/3 348/1/3
f 352/1/3 351/1/3 350/1/3
f 353/1/3 351/1/3 352/1/3
f 356/1/3 355/1/3 354/1/3
f 357/1/3 355/1/3 356/1/3
f 360/1/3 359/1/3 358/1/3
f 361/1/3 359/1/3 360/1/3
f 364/1/3 363/1/3 362/1/3
f 365/1/3 363/1/3 364/1/3
f 368/1/3 367/1/3 366/1/3
f 369/1/3 367/1/3 368/1/3
f 372/1/3 371/1/3 370/1/3
f 373/1/3 371/1/3 372/1/3
f 376/1/3 375/1/3 374/1/3
f 377/1/3 375/1/3 376/1/3
f 379/1/3 378/1/3 377/1/3
f 380/1/3 378/1/3 379/1/3
f 383/1/3 382/1/3 381/1/3
f 384/1/3 382/1/3 383/1/3
f 387/1/3 386/1/3 385/1/3
f 388/1/3 386/1/3 387/1/3
f 391/1/3 390/1/3 389/1/3
f 392/1/3 390/1/3 391/1/3
f 395/1/3 394/1/3 393/1/3
f 396/1/3 394/1/3 395/1/3
f 399/1/3 398/1/3 397/1/3
f 400/1/3 398/1/3 399/1/3
f 403/1/3 402/1/3 401/1/3
f 404/1/3 402/1/3 403/1/3
f 407/1/3 406/1/3 405/1/3
f 408/1/3 406/1/3 407/1/3
f 410/1/3 409/1/3 408/1/3
f 411/1/3 409/1/3 410/1/3
f 414/1/3 413/1/3 412/1/3
f 415/1/3 413/1/3 414/1/3
f 418/1/3 417/1/3 416/1/3
f 419/1/3 417/1/3 418/1/3
f 422/1/3 421/1/3 420/1/3
f 423/1/3 421/1/3 422/1/3
f 426/1/3 425/1/3 424/1/3
f 427/1/3 425/1/3 426/1/3
f 430/1/3 429/1/3 428/1/3
f 431/1/3 429/1/3 430/1/3
f 432/1/4 433/1/4 434/1/4
f 434/1/4 435/1/4 436/1/4
f 436/1/4 437/1/4 438/1/4
f 438/1/4 439/1/4 440/1/4
f 440/1/4 441/1/4 442/1/4
f 440/1/4 442/1/4 444/1/4
f 442/1/4 443/1/4 444/1/4
f 444/1/4 443/1/4 445/1/4
f 432/1/4 434/1/4 446/1/4
f 434/1/4 436/1/4 446/1/4
f 436/1/4 438/1/4 446/1/4
f 440/1/4 444/1/4 446/1/4
f 438/1/4 440/1/4 446/1/4
f 444/2/4 445/2/4 447/2/4
f 446/1/4 444/1/4 447/1/4
f 447/2/4 445/2/4 448/2/4
f 452/1/5 450/1/5 449/1/5
f 454/1/5 452/1/5 451/1/5
f 456/1/5 454/1/5 453/1/5
f 458/1/5 456/1/5 455/1/5
f 460/1/5 458/1/5 457/1/5
f 462/1/5 460/1/5 459/1/5
f 464/1/5 462/1/5 461/1/5
f 466/1/5 464/1/5 463/1/5
f 468/1/5 466/1/5 465/1/5
f 470/1/5 468/1/5 467/1/5
f 472/1/5 470/1/5 469/1/5
f 473/1/5 472/1/5 471/1/5
f 474/1/5 450/1/5 452/1/5
f 474/1/5 472/1/5 473/1/5
f 474/1/5 452/1/5 454/1/5
f 474/1/5 470/1/5 472/1/5
f 474/1/5 454/1/5 456/1/5
f 474/1/5 468/1/5 470/1/5
f 474/1/5 456/1/5 458/1/5
f 474/1/5 466/1/5 468/1/5
f 474/1/5 458/1/5 460/1/5
f 474/1/5 464/1/5 466/1/5
f 474/1/5 460/1/5 462/1/5
f 474/1/5 462/1/5 464/1/5
f 475/1/6 476/1/6 478/1/6
f 478/1/6 476/1/6 479/1/6
f 477/1/6 478/1/6 481/1/6
f 481/1/6 478/1/6 482/1/6
f 480/1/6 481/1/6 484/1/6
f 484/1/6 481/1/6 485/1/6
f 483/1/6 484/1/6 487/1/6
f 487/1/6 484/1/6 488/1/6
f 488/1/6 484/1/6 489/1/6
f 486/1/6 487/1/6 491/1/6
f 487/1/6 488/1/6 491/1/6
f 491/1/6 488/1/6 492/1/6
f 490/1/6 491/1/6 494/1/6
f 494/1/6 491/1/6 495/1/6
f 493/1/6 494/1/6 497/1/6
f 497/1/6 494/1/6 498/1/6
f 496/1/6 497/1/6 500/1/6
f 500/1/6 497/1/6 501/1/6
f 499/1/6 500/1/6 501/1/6
f 501/1/6 497/1/6 502/1/6
f 499/1/6 501/1/6 504/1/6
f 504/1/6 501/1/6 505/1/6
f 503/1/6 504/1/6 507/1/6
f 507/1/6 504/1/6 508/1/6
f 506/1/6 507/1/6 510/1/6
f 510/1/6 507/1/6 511/1/6
f 509/1/6 510/1/6 512/1/6
f 512/1/6 510/1/6 513/1/6
f 514/1/6 515/1/6 517/1/6
f 516/1/6 517/1/6 519/1/6
f 517/1/6 515/1/6 520/1/6
f 519/1/6 517/1/6 520/1/6
f 520/1/6 515/1/6 521/1/6
f 518/1/6 519/1/6 523/1/6
f 519/1/6 520/1/6 523/1/6
f 523/1/6 520/1/6 524/1/6
f 524/1/6 520/1/6 525/1/6
f 522/1/6 523/1/6 527/1/6
f 523/1/6 524/1/6 527/1/6
f 527/1/6 524/1/6 528/1/6
f 528/1/6 524/1/6 529/1/6
f 526/1/6 527/1/6 531/1/6
f 527/1/6 528/1/6 531/1/6
f 531/1/6 528/1/6 532/1/6
f 532/1/6 528/1/6 533/1/6
f 530/1/6 531/1/6 535/1/6
f 531/1/6 532/1/6 535/1/6
f 535/1/6 532/1/6 536/1/6
f 536/1/6 532/1/6 537/1/6
f 534/1/6 535/1/6 538/1/6
f 535/1/6 536/1/6 538/1/6
f 538/1/6 536/1/6 539/1/6
f 534/1/6 538/1/6 541/1/6
f 541/1/6 538/1/6 542/1/6
f 542/1/6 538/1/6 543/1/6
f 540/1/6 541/1/6 545/1/6
f 541/1/6 542/1/6 545/1/6
f 545/1/6 542/1/6 546/1/6
f 544/1/6 545/1/6 546/1/6
f 546/1/6 542/1/6 547/1/6
f 544/1/6 546/1/6 549/1/6
f 549/1/6 546/1/6 550/1/6
f 548/1/6 549/1/6 550/1/6
f 550/1/6 546/1/6 551/1/6
f 548/1/6 550/1/6 553/1/6
f 553/1/6 550/1/6 554/1/6
f 554/1/6 550/1/6 555/1/6
f 552/1/6 553/1/6 556/1/6
f 553/1/6 554/1/6 556/1/6
f 556/1/6 554/1/6 557/1/6
f 558/1/6 559/1/6 561/1/6
f 560/1/6 561/1/6 563/1/6
f 561/1/6 559/1/6 564/1/6
f 563/1/6 561/1/6 564/1/6
f 564/1/6 559/1/6 565/1/6
f 562/1/6 563/1/6 567/1/6
f 563/1/6 564/1/6 567/1/6
f 567/1/6 564/1/6 568/1/6
f 568/1/6 564/1/6 569/1/6
f 566/1/6 567/1/6 571/1/6
f 567/1/6 568/1/6 571/1/6
f 571/1/6 568/1/6 572/1/6
f 572/1/6 568/1/6 573/1/6
f 570/1/6 571/1/6 575/1/6
f 571/1/6 572/1/6 575/1/6
f 575/1/6 572/1/6 576/1/6
f 576/1/6 572/1/6 577/1/6
f 574/1/6 575/1/6 579/1/6
f 575/1/6 576/1/6 579/1/6
f 579/1/6 576/1/6 580/1/6
f 580/1/6 576/1/6 581/1/6
f 578/1/6 579/1/6 582/1/6
f 579/1/6 580/1/6 582/1/6
f 582/1/6 580/1/6 583/1/6
f 578/1/6 582/1/6 585/1/6
f 585/1/6 582/1/6 586/1/6
f 586/1/6 582/1/6 587/1/6
f 584/1/6 585/1/6 589/1/6
f 585/1/6 586/1/6 589/1/6
f 589/1/6 586/1/6 590/1/6
f 590/1/6 586/1/6 591/1/6
f 588/1/6 589/1/6 593/1/6
f 589/1/6 590/1/6 593/1/6
f 593/1/6 590/1/6 594/1/6
f 592/1/6 593/1/6 594/1/6
f 594/1/6 590/1/6 595/1/6
f 592/1/6 594/1/6 596/1/6
f 596/1/6 594/1/6 597/1/6
f 598/1/6 599/1/6 601/1/6
f 600/1/6 601/1/6 603/1/6
f 602/1/6 603/1/6 605/1/6
f 601/1/6 599/1/6 606/1/6
f 603/1/6 601/1/6 606/1/6
f 605/1/6 603/1/6 606/1/6
f 606/1/6 599/1/6 607/1/6
f 604/1/6 605/1/6 609/1/6
f 605/1/6 606/1/6 609/1/6
f 609/1/6 606/1/6 610/1/6
f 610/1/6 606/1/6 611/1/6
f 608/1/6 609/1/6 613/1/6
f 609/1/6 610/1/6 613/1/6
f 613/1/6 610/1/6 614/1/6
f 614/1/6 610/1/6 615/1/6
f 612/1/6 613/1/6 617/1/6
f 613/1/6 614/1/6 617/1/6
f 617/1/6 614/1/6 618/1/6
f 618/1/6 614/1/6 619/1/6
f 616/1/6 617/1/6 620/1/6
f 617/1/6 618/1/6 620/1/6
f 620/1/6 618/1/6 621/1/6
f 616/1/6 620/1/6 623/1/6
f 623/1/6 620/1/6 624/1/6
f 622/1/6 623/1/6 624/1/6
f 624/1/6 620/1/6 625/1/6
f 622/1/6 624/1/6 627/1/6
f 627/1/6 624/1/6 628/1/6
f 628/1/6 624/1/6 629/1/6
f 626/1/6 627/1/6 630/1/6
f 627/1/6 628/1/6 630/1/6
f 630/1/6 628/1/6 631/1/6
f 632/1/6 633/1/6 635/1/6
f 634/1/6 635/1/6 637/1/6
f 636/1/6 637/1/6 639/1/6
f 635/1/6 633/1/6 640/1/6
f 637/1/6 635/1/6 640/1/6
f 639/1/6 637/1/6 640/1/6
f 640/1/6 633/1/6 641/1/6
f 638/1/6 639/1/6 643/1/6
f 639/1/6 640/1/6 643/1/6
f 643/1/6 640/1/6 644/1/6
f 644/1/6 640/1/6 645/1/6
f 642/1/6 643/1/6 646/1/6
f 643/1/6 644/1/6 646/1/6
f 646/1/6 644/1/6 647/1/6
f 642/1/6 646/1/6 649/1/6
f 649/1/6 646/1/6 650/1/6
f 648/1/6 649/1/6 650/1/6
f 650/1/6 646/1/6 651/1/6
f 648/1/6 650/1/6 653/1/6
f 653/1/6 650/1/6 654/1/6
f 652/1/6 653/1/6 654/1/6
f 654/1/6 650/1/6 655/1/6
f 652/1/6 654/1/6 656/1/6
f 656/1/6 654/1/6 657/1/6
f 658/1/6 659/1/6 661/1/6
f 660/1/6 661/1/6 663/1/6
f 661/1/6 659/1/6 664/1/6
f 663/1/6 661/1/6 664/1/6
f 664/1/6 659/1/6 665/1/6
f 662/1/6 663/1/6 666/1/6
f 663/1/6 664/1/6 666/1/6
f 664/2/6 665/2/6 667/2/6
f 666/1/6 664/1/6 667/1/6
f 662/1/6 666/1/6 669/1/6
f 669/1/6 666/1/6 670/1/6
f 666/2/6 667/2/6 671/2/6
f 670/1/6 666/1/6 671/1/6
f 669/1/6 670/1/6 673/1/6
f 668/1/6 669/1/6 673/1/6
f 673/1/6 670/1/6 674/1/6
f 670/2/6 671/2/6 675/2/6
f 674/1/6 670/1/6 675/1/6
f 673/1/6 674/1/6 676/1/6
f 672/1/6 673/1/6 676/1/6
f 674/2/6 675/2/6 677/2/6
f 676/1/6 674/1/6 677/1/6
f 667/2/6 665/2/6 678/2/6
f 677/2/6 675/2/6 678/2/6
f 671/2/6 667/2/6 678/2/6
f 675/2/6 671/2/6 678/2/6
