# MagicaVoxel @ Ephtracy

# group
o 

# material
mtllib wse_environment.vox-4256.mtl
usemtl palette

# normals
vn -1 0 0
vn 1 0 0
vn 0 0 1
vn 0 0 -1
vn 0 -1 0
vn 0 1 0

# texcoords
vt 0.416016 0.5
vt 0.435547 0.5

# verts
v 31.5 0 14.7
v 31.5 0 11.5
v 31.5 0.8 14.7
v 31.5 0.8 14.1
v 31.5 0.8 12.1
v 31.5 0.8 11.5
v 31.5 0.9 14.7
v 31.5 0.9 14.1
v 31.5 0.9 12.1
v 31.5 0.9 11.5
v 32.1 0.8 14.1
v 32.1 0.8 14
v 32.1 0.9 14.1
v 32.1 0.9 14
v 32.4 0.8 14
v 32.4 0.8 13.9
v 32.4 0.9 14
v 32.4 0.9 13.9
v 32.7 0.8 13.9
v 32.7 0.8 13.8
v 32.7 0.9 13.9
v 32.7 0.9 13.8
v 32.8 0.8 13.8
v 32.8 0.8 13.7
v 32.8 0.9 13.8
v 32.8 0.9 13.7
v 33 0.8 13.7
v 33 0.8 13.6
v 33 0.9 13.7
v 33 0.9 13.6
v 33.1 0.8 13.6
v 33.1 0.8 13.5
v 33.1 0.9 13.6
v 33.1 0.9 13.5
v 33.3 0.8 13.5
v 33.3 0.8 13.4
v 33.3 0.9 13.5
v 33.3 0.9 13.4
v 33.4 0.8 13.4
v 33.4 0.8 13.3
v 33.4 0.9 13.4
v 33.4 0.9 13.3
v 33.5 0.8 13.3
v 33.5 0.8 13.1
v 33.5 0.9 13.3
v 33.5 0.9 13.1
v 33.6 0.8 13.1
v 33.6 0.8 13
v 33.6 0.9 13.1
v 33.6 0.9 13
v 33.7 0.8 13
v 33.7 0.8 12.8
v 33.7 0.9 13
v 33.7 0.9 12.8
v 33.8 0.8 12.8
v 33.8 0.8 12.7
v 33.8 0.9 12.8
v 33.8 0.9 12.7
v 33.9 0.8 12.7
v 33.9 0.8 12.4
v 33.9 0.9 12.7
v 33.9 0.9 12.4
v 34 0.8 12.4
v 34 0.8 12.1
v 34 0.9 12.4
v 34 0.9 12.1
v 34.1 0.8 12.1
v 34.1 0.8 11.5
v 34.1 0.9 12.1
v 34.1 0.9 11.5
v 31.8 0.8 12.1
v 31.8 0.8 12
v 31.8 0.9 12.1
v 31.8 0.9 12
v 31.9 0.8 12
v 31.9 0.8 11.9
v 31.9 0.9 12
v 31.9 0.9 11.9
v 32 0.8 11.9
v 32 0.8 11.8
v 32 0.9 11.9
v 32 0.9 11.8
v 32.1 0.8 11.8
v 32.1 0.8 11.5
v 32.1 0.9 11.8
v 32.1 0.9 11.5
v 34.7 0 14.7
v 34.7 0 11.5
v 34.7 0.8 14.7
v 34.7 0.8 11.5
v 34.7 0.9 14.7
v 34.7 0.9 11.5
v 31.5 0 14.7
v 31.5 0.8 14.7
v 31.5 0.9 14.7
v 34.7 0 14.7
v 34.7 0.8 14.7
v 34.7 0.9 14.7
v 31.5 0.8 12.1
v 31.5 0.9 12.1
v 31.8 0.8 12.1
v 31.8 0.9 12.1
v 31.8 0.8 12
v 31.8 0.9 12
v 31.9 0.8 12
v 31.9 0.9 12
v 31.9 0.8 11.9
v 31.9 0.9 11.9
v 32 0.8 11.9
v 32 0.9 11.9
v 32 0.8 11.8
v 32 0.9 11.8
v 32.1 0.8 11.8
v 32.1 0.9 11.8
v 31.5 0.8 14.1
v 31.5 0.9 14.1
v 32.1 0.8 14.1
v 32.1 0.9 14.1
v 32.1 0.8 14
v 32.1 0.9 14
v 32.4 0.8 14
v 32.4 0.9 14
v 32.4 0.8 13.9
v 32.4 0.9 13.9
v 32.7 0.8 13.9
v 32.7 0.9 13.9
v 32.7 0.8 13.8
v 32.7 0.9 13.8
v 32.8 0.8 13.8
v 32.8 0.9 13.8
v 32.8 0.8 13.7
v 32.8 0.9 13.7
v 33 0.8 13.7
v 33 0.9 13.7
v 33 0.8 13.6
v 33 0.9 13.6
v 33.1 0.8 13.6
v 33.1 0.9 13.6
v 33.1 0.8 13.5
v 33.1 0.9 13.5
v 33.3 0.8 13.5
v 33.3 0.9 13.5
v 33.3 0.8 13.4
v 33.3 0.9 13.4
v 33.4 0.8 13.4
v 33.4 0.9 13.4
v 33.4 0.8 13.3
v 33.4 0.9 13.3
v 33.5 0.8 13.3
v 33.5 0.9 13.3
v 33.5 0.8 13.1
v 33.5 0.9 13.1
v 33.6 0.8 13.1
v 33.6 0.9 13.1
v 33.6 0.8 13
v 33.6 0.9 13
v 33.7 0.8 13
v 33.7 0.9 13
v 33.7 0.8 12.8
v 33.7 0.9 12.8
v 33.8 0.8 12.8
v 33.8 0.9 12.8
v 33.8 0.8 12.7
v 33.8 0.9 12.7
v 33.9 0.8 12.7
v 33.9 0.9 12.7
v 33.9 0.8 12.4
v 33.9 0.9 12.4
v 34 0.8 12.4
v 34 0.9 12.4
v 34 0.8 12.1
v 34 0.9 12.1
v 34.1 0.8 12.1
v 34.1 0.9 12.1
v 31.5 0 11.5
v 31.5 0.8 11.5
v 31.5 0.9 11.5
v 32.1 0.8 11.5
v 32.1 0.9 11.5
v 34.1 0.8 11.5
v 34.1 0.9 11.5
v 34.7 0 11.5
v 34.7 0.8 11.5
v 34.7 0.9 11.5
v 31.5 0 14.7
v 34.7 0 14.7
v 31.5 0 11.5
v 34.7 0 11.5
v 31.5 0.8 14.1
v 32.1 0.8 14.1
v 32.1 0.8 14
v 32.4 0.8 14
v 32.4 0.8 13.9
v 32.7 0.8 13.9
v 32.7 0.8 13.8
v 32.8 0.8 13.8
v 32.8 0.8 13.7
v 33 0.8 13.7
v 33 0.8 13.6
v 33.1 0.8 13.6
v 33.1 0.8 13.5
v 33.3 0.8 13.5
v 33.3 0.8 13.4
v 33.4 0.8 13.4
v 33.4 0.8 13.3
v 33.5 0.8 13.3
v 33.5 0.8 13.1
v 33.6 0.8 13.1
v 33.6 0.8 13
v 33.7 0.8 13
v 33.7 0.8 12.8
v 33.8 0.8 12.8
v 33.8 0.8 12.7
v 33.9 0.8 12.7
v 33.9 0.8 12.4
v 34 0.8 12.4
v 31.5 0.8 12.1
v 31.8 0.8 12.1
v 34 0.8 12.1
v 34.1 0.8 12.1
v 31.8 0.8 12
v 31.9 0.8 12
v 31.9 0.8 11.9
v 32 0.8 11.9
v 32 0.8 11.8
v 32.1 0.8 11.8
v 32.1 0.8 11.5
v 34.1 0.8 11.5
v 31.5 0.9 14.7
v 34.7 0.9 14.7
v 31.5 0.9 14.1
v 32.1 0.9 14.1
v 32.1 0.9 14
v 32.4 0.9 14
v 32.4 0.9 13.9
v 32.7 0.9 13.9
v 32.7 0.9 13.8
v 32.8 0.9 13.8
v 32.8 0.9 13.7
v 33 0.9 13.7
v 33 0.9 13.6
v 33.1 0.9 13.6
v 33.1 0.9 13.5
v 33.3 0.9 13.5
v 33.3 0.9 13.4
v 33.4 0.9 13.4
v 33.4 0.9 13.3
v 33.5 0.9 13.3
v 33.5 0.9 13.1
v 33.6 0.9 13.1
v 33.6 0.9 13
v 33.7 0.9 13
v 33.7 0.9 12.8
v 33.8 0.9 12.8
v 33.8 0.9 12.7
v 33.9 0.9 12.7
v 33.9 0.9 12.4
v 34 0.9 12.4
v 31.5 0.9 12.1
v 31.8 0.9 12.1
v 34 0.9 12.1
v 34.1 0.9 12.1
v 31.8 0.9 12
v 31.9 0.9 12
v 31.9 0.9 11.9
v 32 0.9 11.9
v 32 0.9 11.8
v 32.1 0.9 11.8
v 31.5 0.9 11.5
v 32.1 0.9 11.5
v 34.1 0.9 11.5
v 34.7 0.9 11.5

# faces
f 3/2/1 2/2/1 1/2/1
f 4/2/1 2/2/1 3/2/1
f 5/2/1 2/2/1 4/2/1
f 6/2/1 2/2/1 5/2/1
f 7/1/1 4/1/1 3/1/1
f 8/1/1 4/1/1 7/1/1
f 9/1/1 6/1/1 5/1/1
f 10/1/1 6/1/1 9/1/1
f 13/1/1 12/1/1 11/1/1
f 14/1/1 12/1/1 13/1/1
f 17/1/1 16/1/1 15/1/1
f 18/1/1 16/1/1 17/1/1
f 21/1/1 20/1/1 19/1/1
f 22/1/1 20/1/1 21/1/1
f 25/1/1 24/1/1 23/1/1
f 26/1/1 24/1/1 25/1/1
f 29/1/1 28/1/1 27/1/1
f 30/1/1 28/1/1 29/1/1
f 33/1/1 32/1/1 31/1/1
f 34/1/1 32/1/1 33/1/1
f 37/1/1 36/1/1 35/1/1
f 38/1/1 36/1/1 37/1/1
f 41/1/1 40/1/1 39/1/1
f 42/1/1 40/1/1 41/1/1
f 45/1/1 44/1/1 43/1/1
f 46/1/1 44/1/1 45/1/1
f 49/1/1 48/1/1 47/1/1
f 50/1/1 48/1/1 49/1/1
f 53/1/1 52/1/1 51/1/1
f 54/1/1 52/1/1 53/1/1
f 57/1/1 56/1/1 55/1/1
f 58/1/1 56/1/1 57/1/1
f 61/1/1 60/1/1 59/1/1
f 62/1/1 60/1/1 61/1/1
f 65/1/1 64/1/1 63/1/1
f 66/1/1 64/1/1 65/1/1
f 69/1/1 68/1/1 67/1/1
f 70/1/1 68/1/1 69/1/1
f 71/1/2 72/1/2 73/1/2
f 73/1/2 72/1/2 74/1/2
f 75/1/2 76/1/2 77/1/2
f 77/1/2 76/1/2 78/1/2
f 79/1/2 80/1/2 81/1/2
f 81/1/2 80/1/2 82/1/2
f 83/1/2 84/1/2 85/1/2
f 85/1/2 84/1/2 86/1/2
f 87/2/2 88/2/2 89/2/2
f 89/2/2 88/2/2 90/2/2
f 89/1/2 90/1/2 91/1/2
f 91/1/2 90/1/2 92/1/2
f 96/2/3 94/2/3 93/2/3
f 97/1/3 95/1/3 94/1/3
f 97/2/3 94/2/3 96/2/3
f 98/1/3 95/1/3 97/1/3
f 101/1/3 100/1/3 99/1/3
f 102/1/3 100/1/3 101/1/3
f 105/1/3 104/1/3 103/1/3
f 106/1/3 104/1/3 105/1/3
f 109/1/3 108/1/3 107/1/3
f 110/1/3 108/1/3 109/1/3
f 113/1/3 112/1/3 111/1/3
f 114/1/3 112/1/3 113/1/3
f 115/1/4 116/1/4 117/1/4
f 117/1/4 116/1/4 118/1/4
f 119/1/4 120/1/4 121/1/4
f 121/1/4 120/1/4 122/1/4
f 123/1/4 124/1/4 125/1/4
f 125/1/4 124/1/4 126/1/4
f 127/1/4 128/1/4 129/1/4
f 129/1/4 128/1/4 130/1/4
f 131/1/4 132/1/4 133/1/4
f 133/1/4 132/1/4 134/1/4
f 135/1/4 136/1/4 137/1/4
f 137/1/4 136/1/4 138/1/4
f 139/1/4 140/1/4 141/1/4
f 141/1/4 140/1/4 142/1/4
f 143/1/4 144/1/4 145/1/4
f 145/1/4 144/1/4 146/1/4
f 147/1/4 148/1/4 149/1/4
f 149/1/4 148/1/4 150/1/4
f 151/1/4 152/1/4 153/1/4
f 153/1/4 152/1/4 154/1/4
f 155/1/4 156/1/4 157/1/4
f 157/1/4 156/1/4 158/1/4
f 159/1/4 160/1/4 161/1/4
f 161/1/4 160/1/4 162/1/4
f 163/1/4 164/1/4 165/1/4
f 165/1/4 164/1/4 166/1/4
f 167/1/4 168/1/4 169/1/4
f 169/1/4 168/1/4 170/1/4
f 171/1/4 172/1/4 173/1/4
f 173/1/4 172/1/4 174/1/4
f 175/2/4 176/2/4 178/2/4
f 176/1/4 177/1/4 178/1/4
f 178/1/4 177/1/4 179/1/4
f 175/2/4 178/2/4 180/2/4
f 175/2/4 180/2/4 182/2/4
f 180/1/4 181/1/4 183/1/4
f 182/2/4 180/2/4 183/2/4
f 183/1/4 181/1/4 184/1/4
f 187/2/5 186/2/5 185/2/5
f 188/2/5 186/2/5 187/2/5
f 189/2/6 190/2/6 191/2/6
f 191/2/6 192/2/6 193/2/6
f 193/2/6 194/2/6 195/2/6
f 195/2/6 196/2/6 197/2/6
f 197/2/6 198/2/6 199/2/6
f 199/2/6 200/2/6 201/2/6
f 201/2/6 202/2/6 203/2/6
f 203/2/6 204/2/6 205/2/6
f 205/2/6 206/2/6 207/2/6
f 207/2/6 208/2/6 209/2/6
f 209/2/6 210/2/6 211/2/6
f 211/2/6 212/2/6 213/2/6
f 213/2/6 214/2/6 215/2/6
f 189/2/6 191/2/6 217/2/6
f 215/2/6 216/2/6 217/2/6
f 213/2/6 215/2/6 217/2/6
f 211/2/6 213/2/6 217/2/6
f 209/2/6 211/2/6 217/2/6
f 207/2/6 209/2/6 217/2/6
f 205/2/6 207/2/6 217/2/6
f 203/2/6 205/2/6 217/2/6
f 201/2/6 203/2/6 217/2/6
f 199/2/6 201/2/6 217/2/6
f 197/2/6 199/2/6 217/2/6
f 195/2/6 197/2/6 217/2/6
f 193/2/6 195/2/6 217/2/6
f 191/2/6 193/2/6 217/2/6
f 217/2/6 216/2/6 218/2/6
f 218/2/6 216/2/6 219/2/6
f 219/2/6 220/2/6 221/2/6
f 218/2/6 219/2/6 221/2/6
f 221/2/6 220/2/6 222/2/6
f 222/2/6 220/2/6 223/2/6
f 223/2/6 220/2/6 224/2/6
f 224/2/6 220/2/6 225/2/6
f 225/2/6 220/2/6 226/2/6
f 226/2/6 220/2/6 227/2/6
f 227/2/6 220/2/6 228/2/6
f 229/1/6 230/1/6 231/1/6
f 231/1/6 230/1/6 232/1/6
f 232/1/6 230/1/6 233/1/6
f 233/1/6 230/1/6 234/1/6
f 234/1/6 230/1/6 235/1/6
f 235/1/6 230/1/6 236/1/6
f 236/1/6 230/1/6 237/1/6
f 237/1/6 230/1/6 238/1/6
f 238/1/6 230/1/6 239/1/6
f 239/1/6 230/1/6 240/1/6
f 240/1/6 230/1/6 241/1/6
f 241/1/6 230/1/6 242/1/6
f 242/1/6 230/1/6 243/1/6
f 243/1/6 230/1/6 244/1/6
f 244/1/6 230/1/6 245/1/6
f 245/1/6 230/1/6 246/1/6
f 246/1/6 230/1/6 247/1/6
f 247/1/6 230/1/6 248/1/6
f 248/1/6 230/1/6 249/1/6
f 249/1/6 230/1/6 250/1/6
f 250/1/6 230/1/6 251/1/6
f 251/1/6 230/1/6 252/1/6
f 252/1/6 230/1/6 253/1/6
f 253/1/6 230/1/6 254/1/6
f 254/1/6 230/1/6 255/1/6
f 255/1/6 230/1/6 256/1/6
f 256/1/6 230/1/6 257/1/6
f 257/1/6 230/1/6 258/1/6
f 258/1/6 230/1/6 261/1/6
f 261/1/6 230/1/6 262/1/6
f 259/1/6 260/1/6 263/1/6
f 263/1/6 264/1/6 265/1/6
f 265/1/6 266/1/6 267/1/6
f 259/1/6 263/1/6 269/1/6
f 267/1/6 268/1/6 269/1/6
f 265/1/6 267/1/6 269/1/6
f 263/1/6 265/1/6 269/1/6
f 269/1/6 268/1/6 270/1/6
f 262/1/6 230/1/6 271/1/6
f 271/1/6 230/1/6 272/1/6
