# MagicaVoxel @ Ephtracy

# group
o 

# material
mtllib wse_environment.vox-4329.mtl
usemtl palette

# normals
vn -1 0 0
vn 1 0 0
vn 0 0 1
vn 0 0 -1
vn 0 -1 0
vn 0 1 0

# texcoords
vt 0.306641 0.5
vt 0.416016 0.5

# verts
v -3.7 0 45.5
v -3.7 0 43.5
v -3.7 0.3 45.5
v -3.7 0.3 45.4
v -3.7 0.5 45.4
v -3.7 0.5 45.2
v -3.7 0.6 45.2
v -3.7 0.6 45
v -3.7 0.7 45
v -3.7 0.7 44.7
v -3.7 0.8 44.7
v -3.7 0.8 44.4
v -3.7 0.9 44.4
v -3.7 0.9 43.5
v -0.5 0 45.5
v -0.5 0 43.5
v -0.5 0.3 45.5
v -0.5 0.3 45.4
v -0.5 0.5 45.4
v -0.5 0.5 45.2
v -0.5 0.6 45.2
v -0.5 0.6 45
v -0.5 0.7 45
v -0.5 0.7 44.7
v -0.5 0.8 44.7
v -0.5 0.8 44.4
v -0.5 0.9 44.4
v -0.5 0.9 43.5
v -3.7 0 45.5
v -3.7 0.3 45.5
v -0.5 0 45.5
v -0.5 0.3 45.5
v -3.7 0.3 45.4
v -3.7 0.5 45.4
v -0.5 0.3 45.4
v -0.5 0.5 45.4
v -3.7 0.5 45.2
v -3.7 0.6 45.2
v -0.5 0.5 45.2
v -0.5 0.6 45.2
v -3.7 0.6 45
v -3.7 0.7 45
v -0.5 0.6 45
v -0.5 0.7 45
v -3.7 0.7 44.7
v -3.7 0.8 44.7
v -0.5 0.7 44.7
v -0.5 0.8 44.7
v -3.7 0.8 44.4
v -3.7 0.9 44.4
v -0.5 0.8 44.4
v -0.5 0.9 44.4
v -3.7 0 43.5
v -3.7 0.9 43.5
v -0.5 0 43.5
v -0.5 0.9 43.5
v -3.7 0 45.5
v -0.5 0 45.5
v -3.7 0 43.5
v -0.5 0 43.5
v -3.7 0.3 45.5
v -0.5 0.3 45.5
v -3.7 0.3 45.4
v -0.5 0.3 45.4
v -3.7 0.5 45.4
v -0.5 0.5 45.4
v -3.7 0.5 45.2
v -0.5 0.5 45.2
v -3.7 0.6 45.2
v -0.5 0.6 45.2
v -3.7 0.6 45
v -0.5 0.6 45
v -3.7 0.7 45
v -0.5 0.7 45
v -3.7 0.7 44.7
v -0.5 0.7 44.7
v -3.7 0.8 44.7
v -0.5 0.8 44.7
v -3.7 0.8 44.4
v -0.5 0.8 44.4
v -3.7 0.9 44.4
v -0.5 0.9 44.4
v -3.7 0.9 43.5
v -0.5 0.9 43.5

# faces
f 3/2/1 2/2/1 1/2/1
f 4/2/1 2/2/1 3/2/1
f 5/2/1 2/2/1 4/2/1
f 6/2/1 2/2/1 5/2/1
f 7/2/1 2/2/1 6/2/1
f 8/2/1 2/2/1 7/2/1
f 9/2/1 2/2/1 8/2/1
f 10/2/1 2/2/1 9/2/1
f 11/2/1 2/2/1 10/2/1
f 12/2/1 2/2/1 11/2/1
f 13/2/1 2/2/1 12/2/1
f 14/2/1 2/2/1 13/2/1
f 15/2/2 16/2/2 17/2/2
f 17/2/2 16/2/2 18/2/2
f 18/2/2 16/2/2 19/2/2
f 19/2/2 16/2/2 20/2/2
f 20/2/2 16/2/2 21/2/2
f 21/2/2 16/2/2 22/2/2
f 22/2/2 16/2/2 23/2/2
f 23/2/2 16/2/2 24/2/2
f 24/2/2 16/2/2 25/2/2
f 25/2/2 16/2/2 26/2/2
f 26/2/2 16/2/2 27/2/2
f 27/2/2 16/2/2 28/2/2
f 31/2/3 30/2/3 29/2/3
f 32/2/3 30/2/3 31/2/3
f 35/2/3 34/2/3 33/2/3
f 36/2/3 34/2/3 35/2/3
f 39/2/3 38/2/3 37/2/3
f 40/2/3 38/2/3 39/2/3
f 43/2/3 42/2/3 41/2/3
f 44/2/3 42/2/3 43/2/3
f 47/2/3 46/2/3 45/2/3
f 48/2/3 46/2/3 47/2/3
f 51/2/3 50/2/3 49/2/3
f 52/2/3 50/2/3 51/2/3
f 53/2/4 54/2/4 55/2/4
f 55/2/4 54/2/4 56/2/4
f 59/2/5 58/2/5 57/2/5
f 60/2/5 58/2/5 59/2/5
f 61/2/6 62/2/6 63/2/6
f 63/2/6 62/2/6 64/2/6
f 65/2/6 66/2/6 67/2/6
f 67/2/6 66/2/6 68/2/6
f 69/2/6 70/2/6 71/2/6
f 71/2/6 70/2/6 72/2/6
f 73/2/6 74/2/6 75/2/6
f 75/2/6 74/2/6 76/2/6
f 77/2/6 78/2/6 79/2/6
f 79/2/6 78/2/6 80/2/6
f 81/2/6 82/2/6 83/2/6
f 83/2/6 82/2/6 84/2/6
