# MagicaVoxel @ Ephtracy

# group
o 

# material
mtllib wse_environment.vox-3826.mtl
usemtl palette

# normals
vn -1 0 0
vn 1 0 0
vn 0 0 1
vn 0 0 -1
vn 0 -1 0
vn 0 1 0

# texcoords
vt 0.353516 0.5
vt 0.583984 0.5

# verts
v -35.7 0 -4.5
v -35.7 0 -7.7
v -35.7 0.8 -4.5
v -35.7 0.8 -7.7
v -35.7 0.9 -4.5
v -35.7 0.9 -7.7
v -33.1 0.8 -4.5
v -33.1 0.8 -4.8
v -33.1 0.8 -7.4
v -33.1 0.8 -7.7
v -33.1 0.9 -4.5
v -33.1 0.9 -4.8
v -33.1 0.9 -7.4
v -33.1 0.9 -7.7
v -33 0.8 -4.8
v -33 0.8 -4.9
v -33 0.8 -7.3
v -33 0.8 -7.4
v -33 0.9 -4.8
v -33 0.9 -4.9
v -33 0.9 -7.3
v -33 0.9 -7.4
v -32.9 0.8 -4.9
v -32.9 0.8 -5
v -32.9 0.8 -7.2
v -32.9 0.8 -7.3
v -32.9 0.9 -4.9
v -32.9 0.9 -5
v -32.9 0.9 -7.2
v -32.9 0.9 -7.3
v -32.8 0.8 -5
v -32.8 0.8 -5.1
v -32.8 0.8 -7.1
v -32.8 0.8 -7.2
v -32.8 0.9 -5
v -32.8 0.9 -5.1
v -32.8 0.9 -7.1
v -32.8 0.9 -7.2
v -35.1 0.8 -4.5
v -35.1 0.8 -7.7
v -35.1 0.9 -4.5
v -35.1 0.9 -7.7
v -32.5 0 -4.5
v -32.5 0 -7.7
v -32.5 0.8 -4.5
v -32.5 0.8 -5.1
v -32.5 0.8 -7.1
v -32.5 0.8 -7.7
v -32.5 0.9 -4.5
v -32.5 0.9 -5.1
v -32.5 0.9 -7.1
v -32.5 0.9 -7.7
v -35.7 0 -4.5
v -35.7 0.8 -4.5
v -35.7 0.9 -4.5
v -35.1 0.8 -4.5
v -35.1 0.9 -4.5
v -33.1 0.8 -4.5
v -33.1 0.9 -4.5
v -32.5 0 -4.5
v -32.5 0.8 -4.5
v -32.5 0.9 -4.5
v -32.8 0.8 -7.1
v -32.8 0.9 -7.1
v -32.5 0.8 -7.1
v -32.5 0.9 -7.1
v -32.9 0.8 -7.2
v -32.9 0.9 -7.2
v -32.8 0.8 -7.2
v -32.8 0.9 -7.2
v -33 0.8 -7.3
v -33 0.9 -7.3
v -32.9 0.8 -7.3
v -32.9 0.9 -7.3
v -33.1 0.8 -7.4
v -33.1 0.9 -7.4
v -33 0.8 -7.4
v -33 0.9 -7.4
v -33.1 0.8 -4.8
v -33.1 0.9 -4.8
v -33 0.8 -4.8
v -33 0.9 -4.8
v -33 0.8 -4.9
v -33 0.9 -4.9
v -32.9 0.8 -4.9
v -32.9 0.9 -4.9
v -32.9 0.8 -5
v -32.9 0.9 -5
v -32.8 0.8 -5
v -32.8 0.9 -5
v -32.8 0.8 -5.1
v -32.8 0.9 -5.1
v -32.5 0.8 -5.1
v -32.5 0.9 -5.1
v -35.7 0 -7.7
v -35.7 0.8 -7.7
v -35.7 0.9 -7.7
v -35.1 0.8 -7.7
v -35.1 0.9 -7.7
v -33.1 0.8 -7.7
v -33.1 0.9 -7.7
v -32.5 0 -7.7
v -32.5 0.8 -7.7
v -32.5 0.9 -7.7
v -35.7 0 -4.5
v -32.5 0 -4.5
v -35.7 0 -7.7
v -32.5 0 -7.7
v -35.1 0.8 -4.5
v -33.1 0.8 -4.5
v -33.1 0.8 -4.8
v -33 0.8 -4.8
v -33 0.8 -4.9
v -32.9 0.8 -4.9
v -32.9 0.8 -5
v -32.8 0.8 -5
v -32.8 0.8 -5.1
v -32.5 0.8 -5.1
v -32.8 0.8 -7.1
v -32.5 0.8 -7.1
v -32.9 0.8 -7.2
v -32.8 0.8 -7.2
v -33 0.8 -7.3
v -32.9 0.8 -7.3
v -33.1 0.8 -7.4
v -33 0.8 -7.4
v -35.1 0.8 -7.7
v -33.1 0.8 -7.7
v -35.7 0.9 -4.5
v -35.1 0.9 -4.5
v -33.1 0.9 -4.5
v -32.5 0.9 -4.5
v -33.1 0.9 -4.8
v -33 0.9 -4.8
v -33 0.9 -4.9
v -32.9 0.9 -4.9
v -32.9 0.9 -5
v -32.8 0.9 -5
v -32.8 0.9 -5.1
v -32.5 0.9 -5.1
v -32.8 0.9 -7.1
v -32.5 0.9 -7.1
v -32.9 0.9 -7.2
v -32.8 0.9 -7.2
v -33 0.9 -7.3
v -32.9 0.9 -7.3
v -33.1 0.9 -7.4
v -33 0.9 -7.4
v -35.7 0.9 -7.7
v -35.1 0.9 -7.7
v -33.1 0.9 -7.7
v -32.5 0.9 -7.7

# faces
f 3/1/1 2/1/1 1/1/1
f 4/1/1 2/1/1 3/1/1
f 5/2/1 4/2/1 3/2/1
f 6/2/1 4/2/1 5/2/1
f 11/2/1 8/2/1 7/2/1
f 12/2/1 8/2/1 11/2/1
f 13/2/1 10/2/1 9/2/1
f 14/2/1 10/2/1 13/2/1
f 19/2/1 16/2/1 15/2/1
f 20/2/1 16/2/1 19/2/1
f 21/2/1 18/2/1 17/2/1
f 22/2/1 18/2/1 21/2/1
f 27/2/1 24/2/1 23/2/1
f 28/2/1 24/2/1 27/2/1
f 29/2/1 26/2/1 25/2/1
f 30/2/1 26/2/1 29/2/1
f 35/2/1 32/2/1 31/2/1
f 36/2/1 32/2/1 35/2/1
f 37/2/1 34/2/1 33/2/1
f 38/2/1 34/2/1 37/2/1
f 39/2/2 40/2/2 41/2/2
f 41/2/2 40/2/2 42/2/2
f 43/1/2 44/1/2 45/1/2
f 45/1/2 44/1/2 46/1/2
f 46/1/2 44/1/2 47/1/2
f 47/1/2 44/1/2 48/1/2
f 45/2/2 46/2/2 49/2/2
f 49/2/2 46/2/2 50/2/2
f 47/2/2 48/2/2 51/2/2
f 51/2/2 48/2/2 52/2/2
f 56/1/3 54/1/3 53/1/3
f 56/2/3 55/2/3 54/2/3
f 57/2/3 55/2/3 56/2/3
f 58/1/3 56/1/3 53/1/3
f 60/1/3 58/1/3 53/1/3
f 61/2/3 59/2/3 58/2/3
f 61/1/3 58/1/3 60/1/3
f 62/2/3 59/2/3 61/2/3
f 65/2/3 64/2/3 63/2/3
f 66/2/3 64/2/3 65/2/3
f 69/2/3 68/2/3 67/2/3
f 70/2/3 68/2/3 69/2/3
f 73/2/3 72/2/3 71/2/3
f 74/2/3 72/2/3 73/2/3
f 77/2/3 76/2/3 75/2/3
f 78/2/3 76/2/3 77/2/3
f 79/2/4 80/2/4 81/2/4
f 81/2/4 80/2/4 82/2/4
f 83/2/4 84/2/4 85/2/4
f 85/2/4 84/2/4 86/2/4
f 87/2/4 88/2/4 89/2/4
f 89/2/4 88/2/4 90/2/4
f 91/2/4 92/2/4 93/2/4
f 93/2/4 92/2/4 94/2/4
f 95/1/4 96/1/4 98/1/4
f 96/2/4 97/2/4 98/2/4
f 98/2/4 97/2/4 99/2/4
f 95/1/4 98/1/4 100/1/4
f 95/1/4 100/1/4 102/1/4
f 100/2/4 101/2/4 103/2/4
f 102/1/4 100/1/4 103/1/4
f 103/2/4 101/2/4 104/2/4
f 107/1/5 106/1/5 105/1/5
f 108/1/5 106/1/5 107/1/5
f 109/1/6 110/1/6 111/1/6
f 111/1/6 112/1/6 113/1/6
f 113/1/6 114/1/6 115/1/6
f 115/1/6 116/1/6 117/1/6
f 115/1/6 117/1/6 119/1/6
f 117/1/6 118/1/6 119/1/6
f 119/1/6 118/1/6 120/1/6
f 113/1/6 115/1/6 121/1/6
f 115/1/6 119/1/6 121/1/6
f 121/1/6 119/1/6 122/1/6
f 111/1/6 113/1/6 123/1/6
f 113/1/6 121/1/6 123/1/6
f 123/1/6 121/1/6 124/1/6
f 109/1/6 111/1/6 125/1/6
f 111/1/6 123/1/6 125/1/6
f 125/1/6 123/1/6 126/1/6
f 109/1/6 125/1/6 127/1/6
f 127/1/6 125/1/6 128/1/6
f 131/2/6 132/2/6 133/2/6
f 133/2/6 132/2/6 134/2/6
f 134/2/6 132/2/6 135/2/6
f 135/2/6 132/2/6 136/2/6
f 136/2/6 132/2/6 137/2/6
f 137/2/6 132/2/6 138/2/6
f 138/2/6 132/2/6 139/2/6
f 139/2/6 132/2/6 140/2/6
f 141/2/6 142/2/6 144/2/6
f 143/2/6 144/2/6 146/2/6
f 145/2/6 146/2/6 148/2/6
f 129/2/6 130/2/6 149/2/6
f 149/2/6 130/2/6 150/2/6
f 147/2/6 148/2/6 151/2/6
f 144/2/6 142/2/6 152/2/6
f 151/2/6 148/2/6 152/2/6
f 146/2/6 144/2/6 152/2/6
f 148/2/6 146/2/6 152/2/6
