# MagicaVoxel @ Ephtracy

# group
o 

# material
mtllib wse_environment.vox-1732.mtl
usemtl palette

# normals
vn 0 0 -1
vn 0 0 1
vn -1 0 0
vn 1 0 0
vn 0 -1 0
vn 0 1 0

# texcoords
vt 0.568359 0.5
vt 0.591797 0.5

# verts
v 29 0.9 3
v 29.1 0.9 3
v 29.2 0.9 3
v 29.3 0.9 3
v 29 1 3
v 29.1 1 3
v 29.2 1 3
v 29.3 1 3
v 29 1.1 3
v 29.1 1.1 3
v 29.2 1.1 3
v 29.3 1.1 3
v 29.1 0.9 3.1
v 29.2 0.9 3.1
v 29.1 1 3.1
v 29.2 1 3.1
v 29.1 1.1 3.1
v 29.2 1.1 3.1
v 29.1 1.4 3.1
v 29.2 1.4 3.1
v 29.1 1.5 3.1
v 29.2 1.5 3.1
v 29 0.9 3.2
v 29.1 0.9 3.2
v 29.2 0.9 3.2
v 29.3 0.9 3.2
v 29.2 1.1 3.2
v 29.3 1.1 3.2
v 29 1.2 3.2
v 29.1 1.2 3.2
v 29.2 1.2 3.2
v 29.3 1.2 3.2
v 29 1.3 3.2
v 29.1 1.3 3.2
v 29 0.9 3.1
v 29.1 0.9 3.1
v 29.2 0.9 3.1
v 29.3 0.9 3.1
v 29 1 3.1
v 29.1 1 3.1
v 29.2 1 3.1
v 29.3 1 3.1
v 29 1.1 3.1
v 29.1 1.1 3.1
v 29.2 1.1 3.1
v 29.3 1.1 3.1
v 29.1 0.9 3.2
v 29.2 0.9 3.2
v 29.2 1.1 3.2
v 29.1 1.2 3.2
v 29.2 1.2 3.2
v 29.1 1.3 3.2
v 29.1 1.4 3.2
v 29.2 1.4 3.2
v 29.1 1.5 3.2
v 29.2 1.5 3.2
v 29 0.9 3.3
v 29.1 0.9 3.3
v 29.2 0.9 3.3
v 29.3 0.9 3.3
v 29.2 1.1 3.3
v 29.3 1.1 3.3
v 29 1.2 3.3
v 29.1 1.2 3.3
v 29.2 1.2 3.3
v 29.3 1.2 3.3
v 29 1.3 3.3
v 29.1 1.3 3.3
v 29 0.9 3
v 29 1 3
v 29 1.1 3
v 29 0.9 3.1
v 29 1 3.1
v 29 1.1 3.1
v 29 0.9 3.2
v 29 1.2 3.2
v 29 1.3 3.2
v 29 0.9 3.3
v 29 1.2 3.3
v 29 1.3 3.3
v 29.1 0.9 3.1
v 29.1 1 3.1
v 29.1 1.1 3.1
v 29.1 1.4 3.1
v 29.1 1.5 3.1
v 29.1 0.9 3.2
v 29.1 1.2 3.2
v 29.1 1.3 3.2
v 29.1 1.4 3.2
v 29.1 1.5 3.2
v 29.2 0.9 3
v 29.2 1 3
v 29.2 1.1 3
v 29.2 0.9 3.1
v 29.2 1 3.1
v 29.2 1.1 3.1
v 29.2 0.9 3.2
v 29.2 1.1 3.2
v 29.2 1.2 3.2
v 29.2 0.9 3.3
v 29.2 1.1 3.3
v 29.2 1.2 3.3
v 29.1 0.9 3
v 29.1 1 3
v 29.1 1.1 3
v 29.1 0.9 3.1
v 29.1 1 3.1
v 29.1 1.1 3.1
v 29.1 0.9 3.2
v 29.1 1.2 3.2
v 29.1 1.3 3.2
v 29.1 0.9 3.3
v 29.1 1.2 3.3
v 29.1 1.3 3.3
v 29.2 0.9 3.1
v 29.2 1 3.1
v 29.2 1.1 3.1
v 29.2 1.4 3.1
v 29.2 1.5 3.1
v 29.2 0.9 3.2
v 29.2 1.1 3.2
v 29.2 1.2 3.2
v 29.2 1.4 3.2
v 29.2 1.5 3.2
v 29.3 0.9 3
v 29.3 1 3
v 29.3 1.1 3
v 29.3 0.9 3.1
v 29.3 1 3.1
v 29.3 1.1 3.1
v 29.3 0.9 3.2
v 29.3 1.1 3.2
v 29.3 1.2 3.2
v 29.3 0.9 3.3
v 29.3 1.1 3.3
v 29.3 1.2 3.3
v 29 0.9 3
v 29 0.9 3.1
v 29 0.9 3.2
v 29 0.9 3.3
v 29.1 0.9 3
v 29.1 0.9 3.1
v 29.1 0.9 3.2
v 29.1 0.9 3.3
v 29.2 0.9 3
v 29.2 0.9 3.1
v 29.2 0.9 3.2
v 29.2 0.9 3.3
v 29.3 0.9 3
v 29.3 0.9 3.1
v 29.3 0.9 3.2
v 29.3 0.9 3.3
v 29 1.1 3
v 29 1.1 3.1
v 29.1 1.1 3
v 29.1 1.1 3.1
v 29.2 1.1 3
v 29.2 1.1 3.1
v 29.3 1.1 3
v 29.3 1.1 3.1
v 29.2 1.2 3.2
v 29.2 1.2 3.3
v 29.3 1.2 3.2
v 29.3 1.2 3.3
v 29 1.3 3.2
v 29 1.3 3.3
v 29.1 1.3 3.2
v 29.1 1.3 3.3
v 29.1 1.5 3.1
v 29.1 1.5 3.2
v 29.2 1.5 3.1
v 29.2 1.5 3.2

# faces
f 5/2/1 2/2/1 1/2/1
f 6/2/1 2/2/1 5/2/1
f 7/2/1 4/2/1 3/2/1
f 8/2/1 4/2/1 7/2/1
f 9/1/1 6/1/1 5/1/1
f 10/1/1 6/1/1 9/1/1
f 11/1/1 8/1/1 7/1/1
f 12/1/1 8/1/1 11/1/1
f 15/2/1 14/2/1 13/2/1
f 16/2/1 14/2/1 15/2/1
f 17/2/1 16/2/1 15/2/1
f 18/2/1 16/2/1 17/2/1
f 19/2/1 18/2/1 17/2/1
f 20/2/1 18/2/1 19/2/1
f 21/1/1 20/1/1 19/1/1
f 22/1/1 20/1/1 21/1/1
f 27/2/1 26/2/1 25/2/1
f 28/2/1 26/2/1 27/2/1
f 29/2/1 24/2/1 23/2/1
f 30/2/1 24/2/1 29/2/1
f 31/1/1 28/1/1 27/1/1
f 32/1/1 28/1/1 31/1/1
f 33/1/1 30/1/1 29/1/1
f 34/1/1 30/1/1 33/1/1
f 35/2/2 36/2/2 39/2/2
f 39/2/2 36/2/2 40/2/2
f 37/2/2 38/2/2 41/2/2
f 41/2/2 38/2/2 42/2/2
f 39/1/2 40/1/2 43/1/2
f 43/1/2 40/1/2 44/1/2
f 41/1/2 42/1/2 45/1/2
f 45/1/2 42/1/2 46/1/2
f 47/2/2 48/2/2 49/2/2
f 47/2/2 49/2/2 50/2/2
f 50/2/2 49/2/2 51/2/2
f 50/2/2 51/2/2 52/2/2
f 52/2/2 51/2/2 53/2/2
f 53/2/2 51/2/2 54/2/2
f 53/1/2 54/1/2 55/1/2
f 55/1/2 54/1/2 56/1/2
f 59/2/2 60/2/2 61/2/2
f 61/2/2 60/2/2 62/2/2
f 57/2/2 58/2/2 63/2/2
f 63/2/2 58/2/2 64/2/2
f 61/1/2 62/1/2 65/1/2
f 65/1/2 62/1/2 66/1/2
f 63/1/2 64/1/2 67/1/2
f 67/1/2 64/1/2 68/1/2
f 72/2/3 70/2/3 69/2/3
f 73/1/3 71/1/3 70/1/3
f 73/2/3 70/2/3 72/2/3
f 74/1/3 71/1/3 73/1/3
f 78/2/3 76/2/3 75/2/3
f 79/1/3 77/1/3 76/1/3
f 79/2/3 76/2/3 78/2/3
f 80/1/3 77/1/3 79/1/3
f 86/2/3 82/2/3 81/2/3
f 86/2/3 83/2/3 82/2/3
f 86/2/3 84/2/3 83/2/3
f 87/2/3 84/2/3 86/2/3
f 88/2/3 84/2/3 87/2/3
f 89/1/3 85/1/3 84/1/3
f 89/2/3 84/2/3 88/2/3
f 90/1/3 85/1/3 89/1/3
f 94/2/3 92/2/3 91/2/3
f 95/1/3 93/1/3 92/1/3
f 95/2/3 92/2/3 94/2/3
f 96/1/3 93/1/3 95/1/3
f 100/2/3 98/2/3 97/2/3
f 101/1/3 99/1/3 98/1/3
f 101/2/3 98/2/3 100/2/3
f 102/1/3 99/1/3 101/1/3
f 103/2/4 104/2/4 106/2/4
f 104/1/4 105/1/4 107/1/4
f 106/2/4 104/2/4 107/2/4
f 107/1/4 105/1/4 108/1/4
f 109/2/4 110/2/4 112/2/4
f 110/1/4 111/1/4 113/1/4
f 112/2/4 110/2/4 113/2/4
f 113/1/4 111/1/4 114/1/4
f 115/2/4 116/2/4 120/2/4
f 116/2/4 117/2/4 120/2/4
f 117/2/4 118/2/4 120/2/4
f 120/2/4 118/2/4 121/2/4
f 121/2/4 118/2/4 122/2/4
f 118/1/4 119/1/4 123/1/4
f 122/2/4 118/2/4 123/2/4
f 123/1/4 119/1/4 124/1/4
f 125/2/4 126/2/4 128/2/4
f 126/1/4 127/1/4 129/1/4
f 128/2/4 126/2/4 129/2/4
f 129/1/4 127/1/4 130/1/4
f 131/2/4 132/2/4 134/2/4
f 132/1/4 133/1/4 135/1/4
f 134/2/4 132/2/4 135/2/4
f 135/1/4 133/1/4 136/1/4
f 141/2/5 138/2/5 137/2/5
f 142/2/5 138/2/5 141/2/5
f 143/2/5 140/2/5 139/2/5
f 144/2/5 140/2/5 143/2/5
f 146/2/5 143/2/5 142/2/5
f 147/2/5 143/2/5 146/2/5
f 149/2/5 146/2/5 145/2/5
f 150/2/5 146/2/5 149/2/5
f 151/2/5 148/2/5 147/2/5
f 152/2/5 148/2/5 151/2/5
f 153/1/6 154/1/6 155/1/6
f 155/1/6 154/1/6 156/1/6
f 157/1/6 158/1/6 159/1/6
f 159/1/6 158/1/6 160/1/6
f 161/1/6 162/1/6 163/1/6
f 163/1/6 162/1/6 164/1/6
f 165/1/6 166/1/6 167/1/6
f 167/1/6 166/1/6 168/1/6
f 169/1/6 170/1/6 171/1/6
f 171/1/6 170/1/6 172/1/6
