# MagicaVoxel @ Ephtracy

# group
o 

# material
mtllib wse_environment.vox-1705.mtl
usemtl palette

# normals
vn 0 0 -1
vn 0 0 1
vn -1 0 0
vn 1 0 0
vn 0 -1 0
vn 0 1 0

# texcoords
vt 0.568359 0.5
vt 0.591797 0.5

# verts
v 29.4 0.9 5.2
v 29.5 0.9 5.2
v 29.6 0.9 5.2
v 29.7 0.9 5.2
v 29.4 1.1 5.2
v 29.5 1.1 5.2
v 29.4 1.2 5.2
v 29.5 1.2 5.2
v 29.6 1.2 5.2
v 29.7 1.2 5.2
v 29.6 1.3 5.2
v 29.7 1.3 5.2
v 29.5 0.9 5.3
v 29.6 0.9 5.3
v 29.5 1 5.3
v 29.6 1 5.3
v 29.6 0.9 5.4
v 29.7 0.9 5.4
v 29.6 1 5.4
v 29.6 1.1 5.4
v 29.7 1.1 5.4
v 29.6 1.2 5.4
v 29.7 1.2 5.4
v 29.4 0.9 5.3
v 29.5 0.9 5.3
v 29.6 0.9 5.3
v 29.7 0.9 5.3
v 29.5 1 5.3
v 29.6 1 5.3
v 29.4 1.1 5.3
v 29.5 1.1 5.3
v 29.4 1.2 5.3
v 29.5 1.2 5.3
v 29.6 1.2 5.3
v 29.7 1.2 5.3
v 29.6 1.3 5.3
v 29.7 1.3 5.3
v 29.5 0.9 5.4
v 29.6 0.9 5.4
v 29.5 1 5.4
v 29.6 1 5.4
v 29.6 0.9 5.5
v 29.7 0.9 5.5
v 29.6 1.1 5.5
v 29.7 1.1 5.5
v 29.6 1.2 5.5
v 29.7 1.2 5.5
v 29.4 0.9 5.2
v 29.4 1.1 5.2
v 29.4 1.2 5.2
v 29.4 0.9 5.3
v 29.4 1.1 5.3
v 29.4 1.2 5.3
v 29.5 0.9 5.3
v 29.5 1 5.3
v 29.5 0.9 5.4
v 29.5 1 5.4
v 29.6 0.9 5.2
v 29.6 1.2 5.2
v 29.6 1.3 5.2
v 29.6 0.9 5.3
v 29.6 1 5.3
v 29.6 1.2 5.3
v 29.6 1.3 5.3
v 29.6 0.9 5.4
v 29.6 1 5.4
v 29.6 1.1 5.4
v 29.6 1.2 5.4
v 29.6 0.9 5.5
v 29.6 1.1 5.5
v 29.6 1.2 5.5
v 29.5 0.9 5.2
v 29.5 1.1 5.2
v 29.5 1.2 5.2
v 29.5 0.9 5.3
v 29.5 1 5.3
v 29.5 1.1 5.3
v 29.5 1.2 5.3
v 29.6 0.9 5.3
v 29.6 1 5.3
v 29.6 0.9 5.4
v 29.6 1 5.4
v 29.7 0.9 5.2
v 29.7 1.2 5.2
v 29.7 1.3 5.2
v 29.7 0.9 5.3
v 29.7 1.2 5.3
v 29.7 1.3 5.3
v 29.7 0.9 5.4
v 29.7 1.1 5.4
v 29.7 1.2 5.4
v 29.7 0.9 5.5
v 29.7 1.1 5.5
v 29.7 1.2 5.5
v 29.4 0.9 5.2
v 29.4 0.9 5.3
v 29.5 0.9 5.2
v 29.5 0.9 5.3
v 29.5 0.9 5.4
v 29.6 0.9 5.2
v 29.6 0.9 5.3
v 29.6 0.9 5.4
v 29.6 0.9 5.5
v 29.7 0.9 5.2
v 29.7 0.9 5.3
v 29.7 0.9 5.4
v 29.7 0.9 5.5
v 29.5 1 5.3
v 29.5 1 5.4
v 29.6 1 5.3
v 29.6 1 5.4
v 29.4 1.2 5.2
v 29.4 1.2 5.3
v 29.5 1.2 5.2
v 29.5 1.2 5.3
v 29.6 1.2 5.4
v 29.6 1.2 5.5
v 29.7 1.2 5.4
v 29.7 1.2 5.5
v 29.6 1.3 5.2
v 29.6 1.3 5.3
v 29.7 1.3 5.2
v 29.7 1.3 5.3

# faces
f 5/2/1 2/2/1 1/2/1
f 6/2/1 2/2/1 5/2/1
f 7/1/1 6/1/1 5/1/1
f 8/1/1 6/1/1 7/1/1
f 9/2/1 4/2/1 3/2/1
f 10/2/1 4/2/1 9/2/1
f 11/1/1 10/1/1 9/1/1
f 12/1/1 10/1/1 11/1/1
f 15/2/1 14/2/1 13/2/1
f 16/2/1 14/2/1 15/2/1
f 19/2/1 18/2/1 17/2/1
f 20/2/1 18/2/1 19/2/1
f 21/2/1 18/2/1 20/2/1
f 22/1/1 21/1/1 20/1/1
f 23/1/1 21/1/1 22/1/1
f 24/2/2 25/2/2 28/2/2
f 26/2/2 27/2/2 29/2/2
f 24/2/2 28/2/2 30/2/2
f 30/2/2 28/2/2 31/2/2
f 30/1/2 31/1/2 32/1/2
f 32/1/2 31/1/2 33/1/2
f 29/2/2 27/2/2 34/2/2
f 34/2/2 27/2/2 35/2/2
f 34/1/2 35/1/2 36/1/2
f 36/1/2 35/1/2 37/1/2
f 38/2/2 39/2/2 40/2/2
f 40/2/2 39/2/2 41/2/2
f 42/2/2 43/2/2 44/2/2
f 44/2/2 43/2/2 45/2/2
f 44/1/2 45/1/2 46/1/2
f 46/1/2 45/1/2 47/1/2
f 51/2/3 49/2/3 48/2/3
f 52/1/3 50/1/3 49/1/3
f 52/2/3 49/2/3 51/2/3
f 53/1/3 50/1/3 52/1/3
f 56/2/3 55/2/3 54/2/3
f 57/2/3 55/2/3 56/2/3
f 61/2/3 59/2/3 58/2/3
f 62/2/3 59/2/3 61/2/3
f 63/1/3 60/1/3 59/1/3
f 63/2/3 59/2/3 62/2/3
f 64/1/3 60/1/3 63/1/3
f 69/2/3 66/2/3 65/2/3
f 69/2/3 67/2/3 66/2/3
f 70/1/3 68/1/3 67/1/3
f 70/2/3 67/2/3 69/2/3
f 71/1/3 68/1/3 70/1/3
f 72/2/4 73/2/4 75/2/4
f 75/2/4 73/2/4 76/2/4
f 73/1/4 74/1/4 77/1/4
f 76/2/4 73/2/4 77/2/4
f 77/1/4 74/1/4 78/1/4
f 79/2/4 80/2/4 81/2/4
f 81/2/4 80/2/4 82/2/4
f 83/2/4 84/2/4 86/2/4
f 84/1/4 85/1/4 87/1/4
f 86/2/4 84/2/4 87/2/4
f 87/1/4 85/1/4 88/1/4
f 89/2/4 90/2/4 92/2/4
f 90/1/4 91/1/4 93/1/4
f 92/2/4 90/2/4 93/2/4
f 93/1/4 91/1/4 94/1/4
f 97/2/5 96/2/5 95/2/5
f 98/2/5 96/2/5 97/2/5
f 101/2/5 99/2/5 98/2/5
f 102/2/5 99/2/5 101/2/5
f 104/2/5 101/2/5 100/2/5
f 105/2/5 101/2/5 104/2/5
f 106/2/5 103/2/5 102/2/5
f 107/2/5 103/2/5 106/2/5
f 108/2/6 109/2/6 110/2/6
f 110/2/6 109/2/6 111/2/6
f 112/1/6 113/1/6 114/1/6
f 114/1/6 113/1/6 115/1/6
f 116/1/6 117/1/6 118/1/6
f 118/1/6 117/1/6 119/1/6
f 120/1/6 121/1/6 122/1/6
f 122/1/6 121/1/6 123/1/6
