# MagicaVoxel @ Ephtracy

# group
o 

# material
mtllib wse_environment.vox-4240.mtl
usemtl palette

# normals
vn 1 0 0
vn -1 0 0
vn 0 0 -1
vn 0 0 1
vn 0 -1 0
vn 0 1 0

# texcoords
vt 0.416016 0.5
vt 0.435547 0.5

# verts
v -6.9 0 24.3
v -6.9 0 27.5
v -6.9 0.8 24.3
v -6.9 0.8 24.9
v -6.9 0.8 26.9
v -6.9 0.8 27.5
v -6.9 0.9 24.3
v -6.9 0.9 24.9
v -6.9 0.9 26.9
v -6.9 0.9 27.5
v -10.1 0 24.3
v -10.1 0 27.5
v -10.1 0.8 24.3
v -10.1 0.8 24.9
v -10.1 0.8 26.9
v -10.1 0.8 27.5
v -10.1 0.9 24.3
v -10.1 0.9 24.9
v -10.1 0.9 26.9
v -10.1 0.9 27.5
v -6.9 0 24.3
v -6.9 0.8 24.3
v -6.9 0.9 24.3
v -10.1 0 24.3
v -10.1 0.8 24.3
v -10.1 0.9 24.3
v -6.9 0 27.5
v -6.9 0.8 27.5
v -6.9 0.9 27.5
v -10.1 0 27.5
v -10.1 0.8 27.5
v -10.1 0.9 27.5
v -6.9 0 24.3
v -10.1 0 24.3
v -6.9 0 27.5
v -10.1 0 27.5
v -6.9 0.9 24.3
v -10.1 0.9 24.3
v -6.9 0.9 24.9
v -10.1 0.9 24.9
v -6.9 0.9 26.9
v -10.1 0.9 26.9
v -6.9 0.9 27.5
v -10.1 0.9 27.5

# faces
f 3/2/1 2/2/1 1/2/1
f 4/2/1 2/2/1 3/2/1
f 5/2/1 2/2/1 4/2/1
f 6/2/1 2/2/1 5/2/1
f 7/1/1 4/1/1 3/1/1
f 8/2/1 5/2/1 4/2/1
f 8/1/1 4/1/1 7/1/1
f 9/1/1 6/1/1 5/1/1
f 9/2/1 5/2/1 8/2/1
f 10/1/1 6/1/1 9/1/1
f 11/2/2 12/2/2 13/2/2
f 13/2/2 12/2/2 14/2/2
f 14/2/2 12/2/2 15/2/2
f 15/2/2 12/2/2 16/2/2
f 13/1/2 14/1/2 17/1/2
f 14/2/2 15/2/2 18/2/2
f 17/1/2 14/1/2 18/1/2
f 15/1/2 16/1/2 19/1/2
f 18/2/2 15/2/2 19/2/2
f 19/1/2 16/1/2 20/1/2
f 24/2/3 22/2/3 21/2/3
f 25/1/3 23/1/3 22/1/3
f 25/2/3 22/2/3 24/2/3
f 26/1/3 23/1/3 25/1/3
f 27/2/4 28/2/4 30/2/4
f 28/1/4 29/1/4 31/1/4
f 30/2/4 28/2/4 31/2/4
f 31/1/4 29/1/4 32/1/4
f 35/2/5 34/2/5 33/2/5
f 36/2/5 34/2/5 35/2/5
f 37/1/6 38/1/6 39/1/6
f 39/1/6 38/1/6 40/1/6
f 39/2/6 40/2/6 41/2/6
f 41/2/6 40/2/6 42/2/6
f 41/1/6 42/1/6 43/1/6
f 43/1/6 42/1/6 44/1/6
