# MagicaVoxel @ Ephtracy

# group
o 

# material
mtllib wse_environment.vox-2619.mtl
usemtl palette

# normals
vn 0 0 -1
vn 0 0 1
vn -1 0 0
vn 1 0 0
vn 0 -1 0
vn 0 1 0

# texcoords
vt 0.498047 0.5
vt 0.568359 0.5
vt 0.591797 0.5

# verts
v 12.8 0.9 32.3
v 12.9 0.9 32.3
v 12.8 1 32.3
v 12.9 1 32.3
v 12.7 0.9 32.4
v 12.8 0.9 32.4
v 12.9 0.9 32.4
v 13 0.9 32.4
v 12.8 1 32.4
v 12.9 1 32.4
v 12.7 1.1 32.4
v 12.8 1.1 32.4
v 12.9 1.1 32.4
v 13 1.1 32.4
v 12.8 0.9 32.5
v 12.9 0.9 32.5
v 13 0.9 32.5
v 13.1 0.9 32.5
v 13 1 32.5
v 13.1 1 32.5
v 12.8 1.1 32.5
v 12.9 1.1 32.5
v 12.8 1.3 32.5
v 12.9 1.3 32.5
v 12.8 1.6 32.5
v 12.9 1.6 32.5
v 12.7 0.9 32.6
v 12.8 0.9 32.6
v 12.9 0.9 32.6
v 13 0.9 32.6
v 13 1 32.6
v 12.7 1.1 32.6
v 12.8 1.1 32.6
v 12.9 1.2 32.6
v 13 1.2 32.6
v 12.8 0.9 32.4
v 12.9 0.9 32.4
v 12.8 1 32.4
v 12.9 1 32.4
v 12.7 0.9 32.5
v 12.8 0.9 32.5
v 12.9 0.9 32.5
v 13 0.9 32.5
v 13 1 32.5
v 12.7 1.1 32.5
v 12.8 1.1 32.5
v 12.9 1.1 32.5
v 13 1.1 32.5
v 12.8 0.9 32.6
v 12.9 0.9 32.6
v 13 0.9 32.6
v 13.1 0.9 32.6
v 13 1 32.6
v 13.1 1 32.6
v 12.8 1.1 32.6
v 12.9 1.2 32.6
v 12.8 1.3 32.6
v 12.9 1.3 32.6
v 12.8 1.6 32.6
v 12.9 1.6 32.6
v 12.7 0.9 32.7
v 12.8 0.9 32.7
v 12.9 0.9 32.7
v 13 0.9 32.7
v 12.7 1.1 32.7
v 12.8 1.1 32.7
v 12.9 1.2 32.7
v 13 1.2 32.7
v 12.7 0.9 32.4
v 12.7 1.1 32.4
v 12.7 0.9 32.5
v 12.7 1.1 32.5
v 12.7 0.9 32.6
v 12.7 1.1 32.6
v 12.7 0.9 32.7
v 12.7 1.1 32.7
v 12.8 0.9 32.3
v 12.8 1 32.3
v 12.8 0.9 32.4
v 12.8 1 32.4
v 12.8 0.9 32.5
v 12.8 1.1 32.5
v 12.8 1.3 32.5
v 12.8 1.6 32.5
v 12.8 0.9 32.6
v 12.8 1.1 32.6
v 12.8 1.3 32.6
v 12.8 1.6 32.6
v 12.9 0.9 32.4
v 12.9 1 32.4
v 12.9 1.1 32.4
v 12.9 0.9 32.5
v 12.9 1.1 32.5
v 12.9 0.9 32.6
v 12.9 1.2 32.6
v 12.9 0.9 32.7
v 12.9 1.2 32.7
v 13 0.9 32.5
v 13 1 32.5
v 13 0.9 32.6
v 13 1 32.6
v 12.8 0.9 32.4
v 12.8 1 32.4
v 12.8 1.1 32.4
v 12.8 0.9 32.5
v 12.8 1.1 32.5
v 12.8 0.9 32.6
v 12.8 1.1 32.6
v 12.8 0.9 32.7
v 12.8 1.1 32.7
v 12.9 0.9 32.3
v 12.9 1 32.3
v 12.9 0.9 32.4
v 12.9 1 32.4
v 12.9 0.9 32.5
v 12.9 1.1 32.5
v 12.9 1.3 32.5
v 12.9 1.6 32.5
v 12.9 0.9 32.6
v 12.9 1.2 32.6
v 12.9 1.3 32.6
v 12.9 1.6 32.6
v 13 0.9 32.4
v 13 1.1 32.4
v 13 0.9 32.5
v 13 1 32.5
v 13 1.1 32.5
v 13 0.9 32.6
v 13 1 32.6
v 13 1.2 32.6
v 13 0.9 32.7
v 13 1.2 32.7
v 13.1 0.9 32.5
v 13.1 1 32.5
v 13.1 0.9 32.6
v 13.1 1 32.6
v 12.7 0.9 32.4
v 12.7 0.9 32.5
v 12.7 0.9 32.6
v 12.7 0.9 32.7
v 12.8 0.9 32.3
v 12.8 0.9 32.4
v 12.8 0.9 32.5
v 12.8 0.9 32.6
v 12.8 0.9 32.7
v 12.9 0.9 32.3
v 12.9 0.9 32.4
v 12.9 0.9 32.5
v 12.9 0.9 32.6
v 12.9 0.9 32.7
v 13 0.9 32.4
v 13 0.9 32.5
v 13 0.9 32.6
v 13 0.9 32.7
v 13.1 0.9 32.5
v 13.1 0.9 32.6
v 12.8 1 32.3
v 12.8 1 32.4
v 12.9 1 32.3
v 12.9 1 32.4
v 13 1 32.5
v 13 1 32.6
v 13.1 1 32.5
v 13.1 1 32.6
v 12.7 1.1 32.4
v 12.7 1.1 32.5
v 12.7 1.1 32.6
v 12.7 1.1 32.7
v 12.8 1.1 32.4
v 12.8 1.1 32.5
v 12.8 1.1 32.6
v 12.8 1.1 32.7
v 12.9 1.1 32.4
v 12.9 1.1 32.5
v 13 1.1 32.4
v 13 1.1 32.5
v 12.9 1.2 32.6
v 12.9 1.2 32.7
v 13 1.2 32.6
v 13 1.2 32.7
v 12.8 1.6 32.5
v 12.8 1.6 32.6
v 12.9 1.6 32.5
v 12.9 1.6 32.6

# faces
f 3/2/1 2/2/1 1/2/1
f 4/2/1 2/2/1 3/2/1
f 9/2/1 6/2/1 5/2/1
f 10/2/1 8/2/1 7/2/1
f 11/2/1 9/2/1 5/2/1
f 12/2/1 9/2/1 11/2/1
f 13/2/1 8/2/1 10/2/1
f 14/2/1 8/2/1 13/2/1
f 19/2/1 18/2/1 17/2/1
f 20/2/1 18/2/1 19/2/1
f 21/3/1 16/3/1 15/3/1
f 22/3/1 16/3/1 21/3/1
f 23/3/1 22/3/1 21/3/1
f 24/3/1 22/3/1 23/3/1
f 25/1/1 24/1/1 23/1/1
f 26/1/1 24/1/1 25/1/1
f 31/2/1 30/2/1 29/2/1
f 32/2/1 28/2/1 27/2/1
f 33/2/1 28/2/1 32/2/1
f 34/2/1 31/2/1 29/2/1
f 35/2/1 31/2/1 34/2/1
f 36/2/2 37/2/2 38/2/2
f 38/2/2 37/2/2 39/2/2
f 42/2/2 43/2/2 44/2/2
f 40/2/2 41/2/2 45/2/2
f 45/2/2 41/2/2 46/2/2
f 42/2/2 44/2/2 47/2/2
f 47/2/2 44/2/2 48/2/2
f 51/2/2 52/2/2 53/2/2
f 53/2/2 52/2/2 54/2/2
f 49/3/2 50/3/2 55/3/2
f 55/3/2 50/3/2 56/3/2
f 55/3/2 56/3/2 57/3/2
f 57/3/2 56/3/2 58/3/2
f 57/1/2 58/1/2 59/1/2
f 59/1/2 58/1/2 60/1/2
f 61/2/2 62/2/2 65/2/2
f 65/2/2 62/2/2 66/2/2
f 63/2/2 64/2/2 67/2/2
f 67/2/2 64/2/2 68/2/2
f 71/2/3 70/2/3 69/2/3
f 72/2/3 70/2/3 71/2/3
f 75/2/3 74/2/3 73/2/3
f 76/2/3 74/2/3 75/2/3
f 79/2/3 78/2/3 77/2/3
f 80/2/3 78/2/3 79/2/3
f 85/3/3 82/3/3 81/3/3
f 85/3/3 83/3/3 82/3/3
f 86/3/3 83/3/3 85/3/3
f 87/1/3 84/1/3 83/1/3
f 87/3/3 83/3/3 86/3/3
f 88/1/3 84/1/3 87/1/3
f 92/2/3 90/2/3 89/2/3
f 92/2/3 91/2/3 90/2/3
f 93/2/3 91/2/3 92/2/3
f 96/2/3 95/2/3 94/2/3
f 97/2/3 95/2/3 96/2/3
f 100/2/3 99/2/3 98/2/3
f 101/2/3 99/2/3 100/2/3
f 102/2/4 103/2/4 105/2/4
f 103/2/4 104/2/4 105/2/4
f 105/2/4 104/2/4 106/2/4
f 107/2/4 108/2/4 109/2/4
f 109/2/4 108/2/4 110/2/4
f 111/2/4 112/2/4 113/2/4
f 113/2/4 112/2/4 114/2/4
f 115/3/4 116/3/4 119/3/4
f 116/3/4 117/3/4 119/3/4
f 119/3/4 117/3/4 120/3/4
f 117/1/4 118/1/4 121/1/4
f 120/3/4 117/3/4 121/3/4
f 121/1/4 118/1/4 122/1/4
f 123/2/4 124/2/4 125/2/4
f 125/2/4 124/2/4 126/2/4
f 126/2/4 124/2/4 127/2/4
f 128/2/4 129/2/4 131/2/4
f 129/2/4 130/2/4 131/2/4
f 131/2/4 130/2/4 132/2/4
f 133/2/4 134/2/4 135/2/4
f 135/2/4 134/2/4 136/2/4
f 142/2/5 138/2/5 137/2/5
f 143/2/5 138/2/5 142/2/5
f 144/2/5 140/2/5 139/2/5
f 145/2/5 140/2/5 144/2/5
f 146/2/5 142/2/5 141/2/5
f 147/2/5 142/2/5 146/2/5
f 148/3/5 144/3/5 143/3/5
f 149/3/5 144/3/5 148/3/5
f 151/2/5 148/2/5 147/2/5
f 152/2/5 148/2/5 151/2/5
f 153/2/5 150/2/5 149/2/5
f 154/2/5 150/2/5 153/2/5
f 155/2/5 153/2/5 152/2/5
f 156/2/5 153/2/5 155/2/5
f 157/2/6 158/2/6 159/2/6
f 159/2/6 158/2/6 160/2/6
f 161/2/6 162/2/6 163/2/6
f 163/2/6 162/2/6 164/2/6
f 165/2/6 166/2/6 169/2/6
f 169/2/6 166/2/6 170/2/6
f 167/2/6 168/2/6 171/2/6
f 171/2/6 168/2/6 172/2/6
f 173/2/6 174/2/6 175/2/6
f 175/2/6 174/2/6 176/2/6
f 177/2/6 178/2/6 179/2/6
f 179/2/6 178/2/6 180/2/6
f 181/1/6 182/1/6 183/1/6
f 183/1/6 182/1/6 184/1/6
