# MagicaVoxel @ Ephtracy

# group
o 

# material
mtllib wse_environment.vox-3779.mtl
usemtl palette

# normals
vn 1 0 0
vn -1 0 0
vn 0 0 -1
vn 0 0 1
vn 0 -1 0
vn 0 1 0

# texcoords
vt 0.353516 0.5
vt 0.583984 0.5

# verts
v -26.1 0 -26.9
v -26.1 0 -23.7
v -26.1 0.8 -26.9
v -26.1 0.8 -26.3
v -26.1 0.8 -24.3
v -26.1 0.8 -23.7
v -26.1 0.9 -26.9
v -26.1 0.9 -26.3
v -26.1 0.9 -24.3
v -26.1 0.9 -23.7
v -26.7 0.8 -26.3
v -26.7 0.8 -26.2
v -26.7 0.9 -26.3
v -26.7 0.9 -26.2
v -27 0.8 -26.2
v -27 0.8 -26.1
v -27 0.9 -26.2
v -27 0.9 -26.1
v -27.3 0.8 -26.1
v -27.3 0.8 -26
v -27.3 0.9 -26.1
v -27.3 0.9 -26
v -27.4 0.8 -26
v -27.4 0.8 -25.9
v -27.4 0.9 -26
v -27.4 0.9 -25.9
v -27.6 0.8 -25.9
v -27.6 0.8 -25.8
v -27.6 0.9 -25.9
v -27.6 0.9 -25.8
v -27.7 0.8 -25.8
v -27.7 0.8 -25.7
v -27.7 0.9 -25.8
v -27.7 0.9 -25.7
v -27.9 0.8 -25.7
v -27.9 0.8 -25.6
v -27.9 0.9 -25.7
v -27.9 0.9 -25.6
v -28 0.8 -25.6
v -28 0.8 -25.5
v -28 0.9 -25.6
v -28 0.9 -25.5
v -28.1 0.8 -25.5
v -28.1 0.8 -25.3
v -28.1 0.9 -25.5
v -28.1 0.9 -25.3
v -28.2 0.8 -25.3
v -28.2 0.8 -25.2
v -28.2 0.9 -25.3
v -28.2 0.9 -25.2
v -28.3 0.8 -25.2
v -28.3 0.8 -25
v -28.3 0.9 -25.2
v -28.3 0.9 -25
v -28.4 0.8 -25
v -28.4 0.8 -24.9
v -28.4 0.9 -25
v -28.4 0.9 -24.9
v -28.5 0.8 -24.9
v -28.5 0.8 -24.6
v -28.5 0.9 -24.9
v -28.5 0.9 -24.6
v -28.6 0.8 -24.6
v -28.6 0.8 -24.3
v -28.6 0.9 -24.6
v -28.6 0.9 -24.3
v -28.7 0.8 -24.3
v -28.7 0.8 -23.7
v -28.7 0.9 -24.3
v -28.7 0.9 -23.7
v -26.4 0.8 -24.3
v -26.4 0.8 -24.2
v -26.4 0.9 -24.3
v -26.4 0.9 -24.2
v -26.5 0.8 -24.2
v -26.5 0.8 -24.1
v -26.5 0.9 -24.2
v -26.5 0.9 -24.1
v -26.6 0.8 -24.1
v -26.6 0.8 -24
v -26.6 0.9 -24.1
v -26.6 0.9 -24
v -26.7 0.8 -24
v -26.7 0.8 -23.7
v -26.7 0.9 -24
v -26.7 0.9 -23.7
v -29.3 0 -26.9
v -29.3 0 -23.7
v -29.3 0.8 -26.9
v -29.3 0.8 -23.7
v -29.3 0.9 -26.9
v -29.3 0.9 -23.7
v -26.1 0 -26.9
v -26.1 0.8 -26.9
v -26.1 0.9 -26.9
v -29.3 0 -26.9
v -29.3 0.8 -26.9
v -29.3 0.9 -26.9
v -26.1 0.8 -24.3
v -26.1 0.9 -24.3
v -26.4 0.8 -24.3
v -26.4 0.9 -24.3
v -26.4 0.8 -24.2
v -26.4 0.9 -24.2
v -26.5 0.8 -24.2
v -26.5 0.9 -24.2
v -26.5 0.8 -24.1
v -26.5 0.9 -24.1
v -26.6 0.8 -24.1
v -26.6 0.9 -24.1
v -26.6 0.8 -24
v -26.6 0.9 -24
v -26.7 0.8 -24
v -26.7 0.9 -24
v -26.1 0.8 -26.3
v -26.1 0.9 -26.3
v -26.7 0.8 -26.3
v -26.7 0.9 -26.3
v -26.7 0.8 -26.2
v -26.7 0.9 -26.2
v -27 0.8 -26.2
v -27 0.9 -26.2
v -27 0.8 -26.1
v -27 0.9 -26.1
v -27.3 0.8 -26.1
v -27.3 0.9 -26.1
v -27.3 0.8 -26
v -27.3 0.9 -26
v -27.4 0.8 -26
v -27.4 0.9 -26
v -27.4 0.8 -25.9
v -27.4 0.9 -25.9
v -27.6 0.8 -25.9
v -27.6 0.9 -25.9
v -27.6 0.8 -25.8
v -27.6 0.9 -25.8
v -27.7 0.8 -25.8
v -27.7 0.9 -25.8
v -27.7 0.8 -25.7
v -27.7 0.9 -25.7
v -27.9 0.8 -25.7
v -27.9 0.9 -25.7
v -27.9 0.8 -25.6
v -27.9 0.9 -25.6
v -28 0.8 -25.6
v -28 0.9 -25.6
v -28 0.8 -25.5
v -28 0.9 -25.5
v -28.1 0.8 -25.5
v -28.1 0.9 -25.5
v -28.1 0.8 -25.3
v -28.1 0.9 -25.3
v -28.2 0.8 -25.3
v -28.2 0.9 -25.3
v -28.2 0.8 -25.2
v -28.2 0.9 -25.2
v -28.3 0.8 -25.2
v -28.3 0.9 -25.2
v -28.3 0.8 -25
v -28.3 0.9 -25
v -28.4 0.8 -25
v -28.4 0.9 -25
v -28.4 0.8 -24.9
v -28.4 0.9 -24.9
v -28.5 0.8 -24.9
v -28.5 0.9 -24.9
v -28.5 0.8 -24.6
v -28.5 0.9 -24.6
v -28.6 0.8 -24.6
v -28.6 0.9 -24.6
v -28.6 0.8 -24.3
v -28.6 0.9 -24.3
v -28.7 0.8 -24.3
v -28.7 0.9 -24.3
v -26.1 0 -23.7
v -26.1 0.8 -23.7
v -26.1 0.9 -23.7
v -26.7 0.8 -23.7
v -26.7 0.9 -23.7
v -28.7 0.8 -23.7
v -28.7 0.9 -23.7
v -29.3 0 -23.7
v -29.3 0.8 -23.7
v -29.3 0.9 -23.7
v -26.1 0 -26.9
v -29.3 0 -26.9
v -26.1 0 -23.7
v -29.3 0 -23.7
v -26.1 0.8 -26.3
v -26.7 0.8 -26.3
v -26.7 0.8 -26.2
v -27 0.8 -26.2
v -27 0.8 -26.1
v -27.3 0.8 -26.1
v -27.3 0.8 -26
v -27.4 0.8 -26
v -27.4 0.8 -25.9
v -27.6 0.8 -25.9
v -27.6 0.8 -25.8
v -27.7 0.8 -25.8
v -27.7 0.8 -25.7
v -27.9 0.8 -25.7
v -27.9 0.8 -25.6
v -28 0.8 -25.6
v -28 0.8 -25.5
v -28.1 0.8 -25.5
v -28.1 0.8 -25.3
v -28.2 0.8 -25.3
v -28.2 0.8 -25.2
v -28.3 0.8 -25.2
v -28.3 0.8 -25
v -28.4 0.8 -25
v -28.4 0.8 -24.9
v -28.5 0.8 -24.9
v -28.5 0.8 -24.6
v -28.6 0.8 -24.6
v -26.1 0.8 -24.3
v -26.4 0.8 -24.3
v -28.6 0.8 -24.3
v -28.7 0.8 -24.3
v -26.4 0.8 -24.2
v -26.5 0.8 -24.2
v -26.5 0.8 -24.1
v -26.6 0.8 -24.1
v -26.6 0.8 -24
v -26.7 0.8 -24
v -26.7 0.8 -23.7
v -28.7 0.8 -23.7
v -26.1 0.9 -26.9
v -29.3 0.9 -26.9
v -26.1 0.9 -26.3
v -26.7 0.9 -26.3
v -26.7 0.9 -26.2
v -27 0.9 -26.2
v -27 0.9 -26.1
v -27.3 0.9 -26.1
v -27.3 0.9 -26
v -27.4 0.9 -26
v -27.4 0.9 -25.9
v -27.6 0.9 -25.9
v -27.6 0.9 -25.8
v -27.7 0.9 -25.8
v -27.7 0.9 -25.7
v -27.9 0.9 -25.7
v -27.9 0.9 -25.6
v -28 0.9 -25.6
v -28 0.9 -25.5
v -28.1 0.9 -25.5
v -28.1 0.9 -25.3
v -28.2 0.9 -25.3
v -28.2 0.9 -25.2
v -28.3 0.9 -25.2
v -28.3 0.9 -25
v -28.4 0.9 -25
v -28.4 0.9 -24.9
v -28.5 0.9 -24.9
v -28.5 0.9 -24.6
v -28.6 0.9 -24.6
v -26.1 0.9 -24.3
v -26.4 0.9 -24.3
v -28.6 0.9 -24.3
v -28.7 0.9 -24.3
v -26.4 0.9 -24.2
v -26.5 0.9 -24.2
v -26.5 0.9 -24.1
v -26.6 0.9 -24.1
v -26.6 0.9 -24
v -26.7 0.9 -24
v -26.1 0.9 -23.7
v -26.7 0.9 -23.7
v -28.7 0.9 -23.7
v -29.3 0.9 -23.7

# faces
f 3/1/1 2/1/1 1/1/1
f 4/1/1 2/1/1 3/1/1
f 5/1/1 2/1/1 4/1/1
f 6/1/1 2/1/1 5/1/1
f 7/2/1 4/2/1 3/2/1
f 8/2/1 4/2/1 7/2/1
f 9/2/1 6/2/1 5/2/1
f 10/2/1 6/2/1 9/2/1
f 13/2/1 12/2/1 11/2/1
f 14/2/1 12/2/1 13/2/1
f 17/2/1 16/2/1 15/2/1
f 18/2/1 16/2/1 17/2/1
f 21/2/1 20/2/1 19/2/1
f 22/2/1 20/2/1 21/2/1
f 25/2/1 24/2/1 23/2/1
f 26/2/1 24/2/1 25/2/1
f 29/2/1 28/2/1 27/2/1
f 30/2/1 28/2/1 29/2/1
f 33/2/1 32/2/1 31/2/1
f 34/2/1 32/2/1 33/2/1
f 37/2/1 36/2/1 35/2/1
f 38/2/1 36/2/1 37/2/1
f 41/2/1 40/2/1 39/2/1
f 42/2/1 40/2/1 41/2/1
f 45/2/1 44/2/1 43/2/1
f 46/2/1 44/2/1 45/2/1
f 49/2/1 48/2/1 47/2/1
f 50/2/1 48/2/1 49/2/1
f 53/2/1 52/2/1 51/2/1
f 54/2/1 52/2/1 53/2/1
f 57/2/1 56/2/1 55/2/1
f 58/2/1 56/2/1 57/2/1
f 61/2/1 60/2/1 59/2/1
f 62/2/1 60/2/1 61/2/1
f 65/2/1 64/2/1 63/2/1
f 66/2/1 64/2/1 65/2/1
f 69/2/1 68/2/1 67/2/1
f 70/2/1 68/2/1 69/2/1
f 71/2/2 72/2/2 73/2/2
f 73/2/2 72/2/2 74/2/2
f 75/2/2 76/2/2 77/2/2
f 77/2/2 76/2/2 78/2/2
f 79/2/2 80/2/2 81/2/2
f 81/2/2 80/2/2 82/2/2
f 83/2/2 84/2/2 85/2/2
f 85/2/2 84/2/2 86/2/2
f 87/1/2 88/1/2 89/1/2
f 89/1/2 88/1/2 90/1/2
f 89/2/2 90/2/2 91/2/2
f 91/2/2 90/2/2 92/2/2
f 96/1/3 94/1/3 93/1/3
f 97/2/3 95/2/3 94/2/3
f 97/1/3 94/1/3 96/1/3
f 98/2/3 95/2/3 97/2/3
f 101/2/3 100/2/3 99/2/3
f 102/2/3 100/2/3 101/2/3
f 105/2/3 104/2/3 103/2/3
f 106/2/3 104/2/3 105/2/3
f 109/2/3 108/2/3 107/2/3
f 110/2/3 108/2/3 109/2/3
f 113/2/3 112/2/3 111/2/3
f 114/2/3 112/2/3 113/2/3
f 115/2/4 116/2/4 117/2/4
f 117/2/4 116/2/4 118/2/4
f 119/2/4 120/2/4 121/2/4
f 121/2/4 120/2/4 122/2/4
f 123/2/4 124/2/4 125/2/4
f 125/2/4 124/2/4 126/2/4
f 127/2/4 128/2/4 129/2/4
f 129/2/4 128/2/4 130/2/4
f 131/2/4 132/2/4 133/2/4
f 133/2/4 132/2/4 134/2/4
f 135/2/4 136/2/4 137/2/4
f 137/2/4 136/2/4 138/2/4
f 139/2/4 140/2/4 141/2/4
f 141/2/4 140/2/4 142/2/4
f 143/2/4 144/2/4 145/2/4
f 145/2/4 144/2/4 146/2/4
f 147/2/4 148/2/4 149/2/4
f 149/2/4 148/2/4 150/2/4
f 151/2/4 152/2/4 153/2/4
f 153/2/4 152/2/4 154/2/4
f 155/2/4 156/2/4 157/2/4
f 157/2/4 156/2/4 158/2/4
f 159/2/4 160/2/4 161/2/4
f 161/2/4 160/2/4 162/2/4
f 163/2/4 164/2/4 165/2/4
f 165/2/4 164/2/4 166/2/4
f 167/2/4 168/2/4 169/2/4
f 169/2/4 168/2/4 170/2/4
f 171/2/4 172/2/4 173/2/4
f 173/2/4 172/2/4 174/2/4
f 175/1/4 176/1/4 178/1/4
f 176/2/4 177/2/4 178/2/4
f 178/2/4 177/2/4 179/2/4
f 175/1/4 178/1/4 180/1/4
f 175/1/4 180/1/4 182/1/4
f 180/2/4 181/2/4 183/2/4
f 182/1/4 180/1/4 183/1/4
f 183/2/4 181/2/4 184/2/4
f 187/1/5 186/1/5 185/1/5
f 188/1/5 186/1/5 187/1/5
f 189/1/6 190/1/6 191/1/6
f 191/1/6 192/1/6 193/1/6
f 193/1/6 194/1/6 195/1/6
f 195/1/6 196/1/6 197/1/6
f 197/1/6 198/1/6 199/1/6
f 199/1/6 200/1/6 201/1/6
f 201/1/6 202/1/6 203/1/6
f 203/1/6 204/1/6 205/1/6
f 205/1/6 206/1/6 207/1/6
f 207/1/6 208/1/6 209/1/6
f 209/1/6 210/1/6 211/1/6
f 211/1/6 212/1/6 213/1/6
f 213/1/6 214/1/6 215/1/6
f 189/1/6 191/1/6 217/1/6
f 215/1/6 216/1/6 217/1/6
f 213/1/6 215/1/6 217/1/6
f 211/1/6 213/1/6 217/1/6
f 209/1/6 211/1/6 217/1/6
f 207/1/6 209/1/6 217/1/6
f 205/1/6 207/1/6 217/1/6
f 203/1/6 205/1/6 217/1/6
f 201/1/6 203/1/6 217/1/6
f 199/1/6 201/1/6 217/1/6
f 197/1/6 199/1/6 217/1/6
f 195/1/6 197/1/6 217/1/6
f 193/1/6 195/1/6 217/1/6
f 191/1/6 193/1/6 217/1/6
f 217/1/6 216/1/6 218/1/6
f 218/1/6 216/1/6 219/1/6
f 219/1/6 220/1/6 221/1/6
f 218/1/6 219/1/6 221/1/6
f 221/1/6 220/1/6 222/1/6
f 222/1/6 220/1/6 223/1/6
f 223/1/6 220/1/6 224/1/6
f 224/1/6 220/1/6 225/1/6
f 225/1/6 220/1/6 226/1/6
f 226/1/6 220/1/6 227/1/6
f 227/1/6 220/1/6 228/1/6
f 229/2/6 230/2/6 231/2/6
f 231/2/6 230/2/6 232/2/6
f 232/2/6 230/2/6 233/2/6
f 233/2/6 230/2/6 234/2/6
f 234/2/6 230/2/6 235/2/6
f 235/2/6 230/2/6 236/2/6
f 236/2/6 230/2/6 237/2/6
f 237/2/6 230/2/6 238/2/6
f 238/2/6 230/2/6 239/2/6
f 239/2/6 230/2/6 240/2/6
f 240/2/6 230/2/6 241/2/6
f 241/2/6 230/2/6 242/2/6
f 242/2/6 230/2/6 243/2/6
f 243/2/6 230/2/6 244/2/6
f 244/2/6 230/2/6 245/2/6
f 245/2/6 230/2/6 246/2/6
f 246/2/6 230/2/6 247/2/6
f 247/2/6 230/2/6 248/2/6
f 248/2/6 230/2/6 249/2/6
f 249/2/6 230/2/6 250/2/6
f 250/2/6 230/2/6 251/2/6
f 251/2/6 230/2/6 252/2/6
f 252/2/6 230/2/6 253/2/6
f 253/2/6 230/2/6 254/2/6
f 254/2/6 230/2/6 255/2/6
f 255/2/6 230/2/6 256/2/6
f 256/2/6 230/2/6 257/2/6
f 257/2/6 230/2/6 258/2/6
f 258/2/6 230/2/6 261/2/6
f 261/2/6 230/2/6 262/2/6
f 259/2/6 260/2/6 263/2/6
f 263/2/6 264/2/6 265/2/6
f 265/2/6 266/2/6 267/2/6
f 259/2/6 263/2/6 269/2/6
f 267/2/6 268/2/6 269/2/6
f 265/2/6 267/2/6 269/2/6
f 263/2/6 265/2/6 269/2/6
f 269/2/6 268/2/6 270/2/6
f 262/2/6 230/2/6 271/2/6
f 271/2/6 230/2/6 272/2/6
